/* XPM */
static char * arbre2_xpm[] = {
"64 64 52 1",
" 	c #7B4720",
".	c #77451F",
"+	c #7A4620",
"@	c #73421E",
"#	c #643A1B",
"$	c #6C3E1D",
"%	c #6D3E1D",
"&	c #78451F",
"*	c #253E13",
"=	c #7A4720",
"-	c #76441F",
";	c #74431E",
">	c #6C8D32",
",	c #794620",
"'	c #6B3E1C",
")	c #64391B",
"!	c #63391B",
"~	c #653A1B",
"{	c #72421E",
"]	c #A0B141",
"^	c #88A339",
"/	c #6F401D",
"(	c #B6BE47",
"_	c #693C1C",
":	c #6A3D1C",
"<	c #4B7224",
"[	c #335819",
"}	c #79461F",
"|	c #70401D",
"1	c #663A1B",
"2	c #673B1C",
"3	c #74421E",
"4	c #693D1C",
"5	c #663B1C",
"6	c #663B1B",
"7	c #75431F",
"8	c #683C1C",
"9	c #431918",
"0	c #6C3933",
"a	c #552524",
"b	c #568C4D",
"c	c #3A6B42",
"d	c #87B758",
"e	c #6A9E4F",
"f	c #6E3F1D",
"g	c #A06D51",
"h	c #8B5544",
"i	c #21452C",
"j	c #76441E",
"k	c #77441F",
"l	c #71411E",
"m	c #75441F",
"                                                                ",
"                                                                ",
"                                                             .+ ",
"                                                            @#$ ",
"                                                            @#% ",
"                                                             &+ ",
"                                                                ",
"                    *         **          ***                   ",
"             =-;&  *>*       *>>*        *>>>*                  ",
"            ,')!~{*>]>*     *>>^>*      *>^>^>*                 ",
"            /!!!!*>^(]>*    *>]^>*      *>^](>*                 ",
"           =_!!!!*>^(^>*    *>^>>*      *>^]]^>*                ",
"            :**!!*<>]^>*   *<>^>>[**    *>>^]^>*                ",
"            *>>*!*<>^^<*   *<>^><[>>*  *<>>^^>>*                ",
"           *>^>>*[<>^>>*   *[<^><>^>>* *<>>>^><*                ",
"           *>(]>[[><^>^>*  *<<><<>^>^>*[<><><><*                ",
"          *>^(]^[[><^^]^>**>>>><<>^]^>*[<><><<*                 ",
"         *<>^]^^<[<>>](]^[>>]^>><>>]^>[[<<>>>>*       +}=       ",
"         *<>>]^><[<>^](]^[>]](]><<>^^>[[<>>^]^>*    +|1#2{      ",
"         *<>>]^><[<>>^]^^>>]((]]><>^><[<>>^](]^>*   /!!!!)3     ",
"         *<>>>^<<[<<>^]^]>^](^]]><>^><[<>>^](]>>*  +~!!!!!4=    ",
"         *<><>><<[<<>>^>]>^^^(]^><>^><[<>>^^]^^>>* &#!!!!!5=    ",
"         *<><>><<[<[><^>^>^^](]^><<><<[<>>>^]^^>>[**6!!!!!:     ",
"         *[<<>><[<<[><>><>^]]^^^>[<><>[<>>>^]>^>>[>>*)!!!#7     ",
"          *<<<><[<[[<>^>>>^]]^>^>[<>>>><<>>>^>^>>>^>>*81:7      ",
"          *<<<><[<[[>^]^>]^>]>>^><<<]>^><>>>^<>><^]^>*==        ",
"          *<[<><[[[<>](^^>>>]^>>><<>](^><><>^<>><>^^>*          ",
"          *[[<<<[*[<>](]^>>>]^>>><>>](^^>><>^<>><>>^<*          ",
"           *[<<[*9*<>^(]^^>>>^>>><>>^]>^><<>><<><>>><*          ",
"            *[<[*0*<>^]>^^>>>^><><>>^]>^><<>><<><<>><*          ",
"            *[<*90*<<>^>^>><>>><>[<>^^>^><<>><[<[<><*           ",
"             *[* 9*[<>^>^>><>>><>[<>^^<><[<<><[<[<><*           ",
"            **[*  *[<<>>^<><>><<>[<>>^<><[<<><[<[<<<*           ",
"           *<><*   *[<>>><<<>><<<[<<>^<>[*<<><[<[*<*            ",
"          *<>>>*   *[<<>><<<>><><[[<>^<<**<<<<*[[*<*            ",
"         *<<>^><*9 *[<<><<[<<><><[[<>><*0*<<<[*[**<*            ",
"         *<>>^><*09*[[<><<[<<><><[*<>><*a*<[<[**  *             ",
"         *<>>>>>*a0a*[<><<[<<>[<[**<<>*a9*<[<[*                 ",
"         *[><>>>*99a*[<<<[[[<>[<*a9*<>*9  *[<[***               ",
"          *><><>*  9*[*<<[[[<>[<*9 *[>*  **[<[*<>*              ",
"          *<<><>*    **[<[*[<>[<*9 *[<* *>>*<*<>^>*             ",
"          *[<><<*     *[<**[<<[[*bb*[<**>>^>[*<>^><*            ",
"           *<>[<*     b*<*a*<<[*9bcb*[**>>^>**<>>><*            ",
"           *[<[<*    b *[*a*[>*a9cdc*[**<>>>**<<><<*            ",
"           *[<[[*   bbb*[*a*[>*a9decb*b*<>><**[<>><*.           ",
"            *<[*    ccbb*90*[>*a09cbccc*<<><*!*<<><*f           ",
"            *[*    bcdcbc900*<*009bcdecb*<<<*!*[<><*4=          ",
"            *[*   bbcedc9gha*[*90h9deecb*[<*)!*[<*[*4           ",
"             *     bbce9hi09*[*9hig9ecbb *[*~!!*<**!/           ",
"                  bbccc9idi9h*h0idi9bbbb *[*/!!*[*!6&           ",
"                  bbcedicedihghidecbbb b  * +f#!*!2j            ",
"    ,{{}           bbceeceec9h0iecbbbbb       kl|@,             ",
"   =:!!8+           bbbbbceb90cbbbbbbbb                         ",
"   &#!!)m            bb bbbbbcdcbbbb b                          ",
"   ,1!!#&              bbbbbcdecbbb                             ",
"    ;82@                bbbbbecb b                              ",
"     ==                  bb bb                                  ",
"                                                                ",
"                                                                ",
"                                                                ",
"                                                                ",
"                                                                ",
"                                                                ",
"                                                                "};
