/* XPM */
static char * dino1_xpm[] = {
"64 64 709 2",
"  	c #7B4720",
". 	c #77451F",
"+ 	c #7A4620",
"@ 	c #73421E",
"# 	c #643A1B",
"$ 	c #6C3E1D",
"% 	c #6D3E1D",
"& 	c #78451F",
"* 	c #84893F",
"= 	c #C1C660",
"- 	c #D6DA6D",
"; 	c #C9CD66",
"> 	c #888B43",
", 	c #8B9441",
"' 	c #D6DD6B",
") 	c #DCE070",
"! 	c #D9DD6E",
"~ 	c #858841",
"{ 	c #7A4720",
"] 	c #76441F",
"^ 	c #74431E",
"/ 	c #CED865",
"( 	c #D8DF6D",
"_ 	c #D7DE6C",
": 	c #DBDF6F",
"< 	c #C5C963",
"[ 	c #794620",
"} 	c #6B3E1C",
"| 	c #64391B",
"1 	c #63391B",
"2 	c #653A1B",
"3 	c #72421E",
"4 	c #9CAD46",
"5 	c #D2DD67",
"6 	c #C1D15B",
"7 	c #BECD5A",
"8 	c #D2DC67",
"9 	c #DADF6E",
"0 	c #878C41",
"a 	c #6F401D",
"b 	c #B4CC50",
"c 	c #D9DF6D",
"d 	c #CEDB63",
"e 	c #AAC04C",
"f 	c #53692F",
"g 	c #8F928B",
"h 	c #98A659",
"i 	c #D5DD6A",
"j 	c #AAB153",
"k 	c #693C1C",
"l 	c #6C8429",
"m 	c #B6D150",
"n 	c #BFD755",
"o 	c #BBD354",
"p 	c #5B7621",
"q 	c #D8D8D8",
"r 	c #FEFFFF",
"s 	c #E6E8E9",
"t 	c #BAC861",
"u 	c #B6BF58",
"v 	c #8B9242",
"w 	c #9EA34D",
"x 	c #9FA34E",
"y 	c #909447",
"z 	c #565828",
"A 	c #6A3D1C",
"B 	c #82A132",
"C 	c #B0CD4B",
"D 	c #BAD551",
"E 	c #A1BD44",
"F 	c #8C9187",
"G 	c #FFFFFF",
"H 	c #F9FDFE",
"I 	c #54C7F0",
"J 	c #B7CDAD",
"K 	c #BBCA58",
"L 	c #CCD166",
"M 	c #DBE06F",
"N 	c #DADE6F",
"O 	c #B9BD5D",
"P 	c #777A39",
"Q 	c #647E24",
"R 	c #91B437",
"S 	c #B1D24A",
"T 	c #B6D44D",
"U 	c #8CAB37",
"V 	c #C0C0C0",
"W 	c #DCECF5",
"X 	c #00AAD5",
"Y 	c #7EC2CC",
"Z 	c #C2D55A",
"` 	c #C2CF5D",
" .	c #CBDB61",
"..	c #CDDB62",
"+.	c #D0DC65",
"@.	c #D7DE6B",
"#.	c #D6DB6C",
"$.	c #7E823C",
"%.	c #73431E",
"&.	c #673B1C",
"*.	c #7EA12E",
"=.	c #98BD3A",
"-.	c #AFD247",
";.	c #B2D349",
">.	c #7D9D2F",
",.	c #D3D3D3",
"'.	c #E4F4FC",
").	c #61AAC9",
"!.	c #0089AE",
"~.	c #5ABDD5",
"{.	c #C2D858",
"].	c #C3D75A",
"^.	c #C6D95C",
"/.	c #C9DA5E",
"(.	c #CBDB60",
"_.	c #CDDB63",
":.	c #D6DE6A",
"<.	c #B1B956",
"[.	c #8AB232",
"}.	c #9EC53C",
"|.	c #ABD143",
"1.	c #ADD245",
"2.	c #7E9F2E",
"3.	c #D5D5D5",
"4.	c #C6EAFD",
"5.	c #00A8D3",
"6.	c #0092B8",
"7.	c #62C7DF",
"8.	c #BDD654",
"9.	c #C0D756",
"0.	c #C4D95A",
"a.	c #C7D95D",
"b.	c #C9DA5F",
"c.	c #CCDB62",
"d.	c #CDD665",
"e.	c #798D33",
"f.	c #6A8C23",
"g.	c #88B130",
"h.	c #A1CB3C",
"i.	c #A7D03F",
"j.	c #A9D142",
"k.	c #8AAE33",
"l.	c #C4C5C4",
"m.	c #DEF3FF",
"n.	c #00C8FB",
"o.	c #03C2F3",
"p.	c #86D0D4",
"q.	c #B9D550",
"r.	c #BCD652",
"s.	c #BED754",
"t.	c #C2D859",
"u.	c #C5D95B",
"v.	c #BECE59",
"w.	c #576D1F",
"x.	c #729826",
"y.	c #87B22F",
"z.	c #A0CE39",
"A.	c #A2CE3B",
"B.	c #A5CF3E",
"C.	c #96BD37",
"D.	c #9BA491",
"E.	c #FEFEFF",
"F.	c #84DAFF",
"G.	c #DFF4FF",
"H.	c #BDDAA8",
"I.	c #B5D44C",
"J.	c #B7D54E",
"K.	c #BCD653",
"L.	c #BED755",
"M.	c #C0D757",
"N.	c #C3D859",
"O.	c #94A941",
"P.	c #79461F",
"Q.	c #739A25",
"R.	c #87B42D",
"S.	c #9CCC35",
"T.	c #9ECD38",
"U.	c #A1CE3A",
"V.	c #A1CD3B",
"W.	c #6F922B",
"X.	c #E1E1E0",
"Y.	c #FDFEFF",
"Z.	c #ECF0E6",
"`.	c #ADCF4E",
" +	c #B1D348",
".+	c #B3D34A",
"++	c #B5D44D",
"@+	c #B8D54F",
"#+	c #C1D857",
"$+	c #BFD357",
"%+	c #70401D",
"&+	c #663A1B",
"*+	c #769D26",
"=+	c #85B12C",
"-+	c #98CB32",
";+	c #9ACC34",
">+	c #9CCD36",
",+	c #97C336",
"'+	c #7B9C41",
")+	c #AABD90",
"!+	c #A2C652",
"~+	c #AAD143",
"{+	c #ACD245",
"]+	c #B1D349",
"^+	c #B3D44B",
"/+	c #BAD651",
"(+	c #BDD653",
"_+	c #ACC24C",
":+	c #74421E",
"<+	c #75962A",
"[+	c #82A92C",
"}+	c #BFD26F",
"|+	c #DCE694",
"1+	c #CFE084",
"2+	c #B0D05E",
"3+	c #9BC837",
"4+	c #9BC738",
"5+	c #9DC73A",
"6+	c #A4CD3E",
"7+	c #A8D041",
"8+	c #B4D44B",
"9+	c #97AD40",
"0+	c #693D1C",
"a+	c #A9BF4C",
"b+	c #AFB63F",
"c+	c #E2E695",
"d+	c #E7EBA1",
"e+	c #BBC27F",
"f+	c #789D2B",
"g+	c #87B12F",
"h+	c #88B230",
"i+	c #93BC36",
"j+	c #A1CA3D",
"k+	c #A9D041",
"l+	c #B4D44C",
"m+	c #7E9334",
"n+	c #663B1C",
"o+	c #7A8438",
"p+	c #ABB84F",
"q+	c #CED34B",
"r+	c #E0E48D",
"s+	c #E5E99B",
"t+	c #E6EA9D",
"u+	c #E6EA9F",
"v+	c #E7EBA0",
"w+	c #BDC283",
"x+	c #617C23",
"y+	c #688724",
"z+	c #739727",
"A+	c #789B2C",
"B+	c #92BA35",
"C+	c #A0C93C",
"D+	c #ADD246",
"E+	c #A8C944",
"F+	c #663B1B",
"G+	c #939F43",
"H+	c #A7B44B",
"I+	c #D7DB6E",
"J+	c #E3E78F",
"K+	c #E3E792",
"L+	c #E4E894",
"M+	c #E4E897",
"N+	c #E5E99A",
"O+	c #E5E99C",
"P+	c #C4C685",
"Q+	c #988C6A",
"R+	c #A2A292",
"S+	c #CBCBB8",
"T+	c #7A875D",
"U+	c #6D8C2C",
"V+	c #87AD31",
"W+	c #9BC33A",
"X+	c #9EC53D",
"Y+	c #718E29",
"Z+	c #71411E",
"`+	c #75431F",
" @	c #98A646",
".@	c #A6B54B",
"+@	c #D9DE74",
"@@	c #E0E485",
"#@	c #E1E588",
"$@	c #E2E68B",
"%@	c #E2E68E",
"&@	c #E3E790",
"*@	c #E3E793",
"=@	c #E3E795",
"-@	c #C5C881",
";@	c #A2A476",
">@	c #9F9C86",
",@	c #ABAB94",
"'@	c #A3A48F",
")@	c #84916D",
"!@	c #5A741E",
"~@	c #683C1C",
"{@	c #9EAC48",
"]@	c #B8CB55",
"^@	c #B6BA41",
"/@	c #D6DA67",
"(@	c #DEE27C",
"_@	c #DFE37F",
":@	c #D9DD70",
"<@	c #DCE07B",
"[@	c #E1E587",
"}@	c #E1E589",
"|@	c #E2E68C",
"1@	c #E0E48F",
"2@	c #C8CB80",
"3@	c #ABAE6F",
"4@	c #A1A36D",
"5@	c #90935D",
"6@	c #9DAD47",
"7@	c #98A53E",
"8@	c #CBD04A",
"9@	c #CFD450",
"0@	c #D2D658",
"a@	c #CFD44E",
"b@	c #D6DB67",
"c@	c #DBE076",
"d@	c #E0E483",
"e@	c #E1E58A",
"f@	c #DCE07C",
"g@	c #A1A543",
"h@	c #BED456",
"i@	c #B5CE50",
"j@	c #8D9936",
"k@	c #C1C646",
"l@	c #CED34D",
"m@	c #D0D555",
"n@	c #D2D75B",
"o@	c #D3D85F",
"p@	c #D2D65A",
"q@	c #B7BB42",
"r@	c #98A944",
"s@	c #ADBA51",
"t@	c #D3DD68",
"u@	c #A7CA43",
"v@	c #7F9634",
"w@	c #9CA043",
"x@	c #9DA038",
"y@	c #A5A93B",
"z@	c #9EA238",
"A@	c #8F9232",
"B@	c #7F822C",
"C@	c #797C2A",
"D@	c #7B7E2B",
"E@	c #7F822D",
"F@	c #7F822B",
"G@	c #82852E",
"H@	c #6E7026",
"I@	c #5E6928",
"J@	c #D3DA6A",
"K@	c #A7CC43",
"L@	c #82A431",
"M@	c #D8DD6D",
"N@	c #D3D76B",
"O@	c #6C6E34",
"P@	c #768433",
"Q@	c #D0DC66",
"R@	c #97C634",
"S@	c #6F9026",
"T@	c #CCDB63",
"U@	c #B0B458",
"V@	c #90A53E",
"W@	c #C4D85B",
"X@	c #A9D043",
"Y@	c #8BB92F",
"Z@	c #6D8B26",
"`@	c #BBD555",
" #	c #DDE177",
".#	c #D9DD75",
"+#	c #959D53",
"@#	c #ADC849",
"##	c #9BC937",
"$#	c #78A127",
"%#	c #86A235",
"&#	c #ADD145",
"*#	c #D8E074",
"=#	c #A8AC65",
"-#	c #ACAF76",
";#	c #CFDD74",
">#	c #757F34",
",#	c #71822F",
"'#	c #B4D34B",
")#	c #80A92A",
"!#	c #6B8528",
"~#	c #ADD146",
"{#	c #C6DA64",
"]#	c #DFE380",
"^#	c #D0D487",
"/#	c #B2B677",
"(#	c #D3E181",
"_#	c #B9CC54",
":#	c #576025",
"<#	c #839538",
"[#	c #A6CB41",
"}#	c #4D6618",
"|#	c #A0C041",
"1#	c #B3D34F",
"2#	c #DFE381",
"3#	c #E6EAA0",
"4#	c #7C804F",
"5#	c #A3A755",
"6#	c #DCE590",
"7#	c #B1C550",
"8#	c #566025",
"9#	c #4C541F",
"0#	c #92A441",
"a#	c #8D9E3F",
"b#	c #CFDB64",
"c#	c #81A42E",
"d#	c #87A534",
"e#	c #A8D040",
"f#	c #DDE280",
"g#	c #ABAE73",
"h#	c #85882F",
"i#	c #E0E58F",
"j#	c #BBD65A",
"k#	c #BBD652",
"l#	c #BACE54",
"m#	c #86923C",
"n#	c #5E6A27",
"o#	c #8C9E3D",
"p#	c #B8CD53",
"q#	c #A8BE4A",
"r#	c #9FB446",
"s#	c #C3CC60",
"t#	c #B7D44E",
"u#	c #9AC03A",
"v#	c #6F9424",
"w#	c #5A722A",
"x#	c #98A277",
"y#	c #9EC93A",
"z#	c #D7E180",
"A#	c #B9BD7E",
"B#	c #76785D",
"C#	c #D0D46D",
"D#	c #CEDF7C",
"E#	c #B3D34B",
"F#	c #BBD254",
"G#	c #B8D151",
"H#	c #9FB744",
"I#	c #B5D34D",
"J#	c #B8D450",
"K#	c #8F9B41",
"L#	c #C6D95D",
"M#	c #AACE44",
"N#	c #9BCA37",
"O#	c #8AB82D",
"P#	c #B0B19D",
"Q#	c #88AD31",
"R#	c #D6E180",
"S#	c #C6CA85",
"T#	c #CBC9B3",
"U#	c #A8AD40",
"V#	c #DFE48B",
"W#	c #B5D456",
"X#	c #B7D54F",
"Y#	c #AECB49",
"Z#	c #8FAE39",
"`#	c #B2D34A",
" $	c #91A83D",
".$	c #CDD466",
"+$	c #BBD553",
"@$	c #A4CF3D",
"#$	c #99CB33",
"$$	c #667F26",
"%$	c #B0C051",
"&$	c #CCD177",
"*$	c #CFD387",
"=$	c #8D906D",
"-$	c #7B7F2A",
";$	c #D5D967",
">$	c #D9E388",
",$	c #B0D24B",
"'$	c #B0D348",
")$	c #93B13A",
"!$	c #99BE3B",
"~$	c #AED246",
"{$	c #A9C746",
"]$	c #B0B756",
"^$	c #A9D042",
"/$	c #6A8D23",
"($	c #A5B055",
"_$	c #E0E48A",
":$	c #E3E791",
"<$	c #C5C980",
"[$	c #5A7029",
"}$	c #3A3C2C",
"|$	c #B0B43F",
"1$	c #DBE07C",
"2$	c #D0E080",
"3$	c #ACD145",
"4$	c #89AB33",
"5$	c #93BB36",
"6$	c #AAD142",
"7$	c #9CA64A",
"8$	c #D9DF6E",
"9$	c #AED146",
"0$	c #A0CD39",
"a$	c #869A59",
"b$	c #A3B15C",
"c$	c #BED157",
"d$	c #BCC173",
"e$	c #B3B874",
"f$	c #83A83D",
"g$	c #ACB088",
"h$	c #717426",
"i$	c #CCD14E",
"j$	c #DFE48C",
"k$	c #DAE590",
"l$	c #BBD866",
"m$	c #A5CF3F",
"n$	c #83A92E",
"o$	c #89B331",
"p$	c #A4CE3D",
"q$	c #839937",
"r$	c #C7D85E",
"s$	c #A8C846",
"t$	c #88AE31",
"u$	c #B5B8AA",
"v$	c #B0B884",
"w$	c #A7B357",
"x$	c #DFE383",
"y$	c #9EA755",
"z$	c #A2BD4F",
"A$	c #A3A58F",
"B$	c #969A35",
"C$	c #D0D557",
"D$	c #DEE285",
"E$	c #E4E895",
"F$	c #E0E692",
"G$	c #D4E184",
"H$	c #B8C671",
"I$	c #7FA82B",
"J$	c #97C236",
"K$	c #9CC13C",
"L$	c #7F8E37",
"M$	c #95AF3E",
"N$	c #526721",
"O$	c #849745",
"P$	c #BFCA5D",
"Q$	c #ACB852",
"R$	c #CFD269",
"S$	c #93A049",
"T$	c #B1C159",
"U$	c #597627",
"V$	c #75441E",
"W$	c #6E3F1D",
"X$	c #A0A539",
"Y$	c #CDD24B",
"Z$	c #D3D862",
"`$	c #DBE07B",
" %	c #DFE38C",
".%	c #75962F",
"+%	c #88B32E",
"@%	c #9ECC38",
"#%	c #9FC53D",
"$%	c #7A875A",
"%%	c #C5C5AD",
"&%	c #ABCC46",
"*%	c #758238",
"=%	c #A6BC52",
"-%	c #A9BE54",
";%	c #648B2C",
">%	c #6C3F1C",
",%	c #75431E",
"'%	c #80842D",
")%	c #A9AE3D",
"!%	c #CCD14A",
"~%	c #CED34C",
"{%	c #D0D452",
"]%	c #96A237",
"^%	c #84B02C",
"/%	c #8CB930",
"(%	c #9ECD37",
"_%	c #A3CB3E",
":%	c #8CAD35",
"<%	c #BCD654",
"[%	c #B4C852",
"}%	c #64992A",
"|%	c #79B335",
"1%	c #7FB439",
"2%	c #5A8126",
"3%	c #6E401D",
"4%	c #6B6E24",
"5%	c #9CA037",
"6%	c #B0B53F",
"7%	c #B6BB42",
"8%	c #789B28",
"9%	c #8CBA2F",
"0%	c #9CCB36",
"a%	c #A2CC3D",
"b%	c #A5CD3F",
"c%	c #9FBD40",
"d%	c #609B27",
"e%	c #73B130",
"f%	c #75B032",
"g%	c #3C5210",
"h%	c #7EA92A",
"i%	c #86B22D",
"j%	c #8EBB30",
"k%	c #8FBB32",
"l%	c #8BB432",
"m%	c #80A031",
"n%	c #549221",
"o%	c #63A228",
"p%	c #528521",
"q%	c #7FAA2A",
"r%	c #85B12E",
"s%	c #8BB532",
"t%	c #93BA36",
"u%	c #4B791B",
"v%	c #519120",
"w%	c #4E871F",
"x%	c #1F3809",
"y%	c #62841F",
"z%	c #80AA2B",
"A%	c #84B02D",
"B%	c #83AD2E",
"C%	c #5F8123",
"D%	c #689C2D",
"E%	c #7EA53B",
"F%	c #556527",
"G%	c #698D22",
"H%	c #8AB431",
"I%	c #A3C93F",
"J%	c #A0C33F",
"K%	c #A2C242",
"L%	c #AEC74D",
"M%	c #81933B",
"N%	c #86B13E",
"O%	c #97BA48",
"P%	c #708535",
"Q%	c #698B22",
"R%	c #8EB733",
"S%	c #C2D758",
"T%	c #9EAD4A",
"U%	c #79A836",
"V%	c #8EB842",
"W%	c #7A9639",
"X%	c #76441E",
"Y%	c #6B8329",
"Z%	c #A8C349",
"`%	c #ACBD4F",
" &	c #708F33",
".&	c #94B846",
"+&	c #8EB043",
"@&	c #566A27",
"#&	c #77441F",
"$&	c #CBD564",
"%&	c #D4DD68",
"&&	c #B9CE53",
"*&	c #90A540",
"=&	c #8A9943",
"-&	c #9BB94B",
";&	c #84AA3D",
">&	c #507422",
",&	c #75441F",
"'&	c #9CB741",
")&	c #C1D758",
"!&	c #CADA60",
"~&	c #CBDA61",
"{&	c #C8D95F",
"]&	c #ACC849",
"^&	c #84A234",
"/&	c #CFD2B7",
"(&	c #A9B193",
"_&	c #658F2C",
":&	c #6A8740",
"<&	c #C4C2B0",
"[&	c #797C64",
"}&	c #86A736",
"|&	c #BABCAB",
"1&	c #B9BD86",
"2&	c #F5F6DE",
"3&	c #B7B9A9",
"4&	c #8E9077",
"5&	c #AFB782",
"6&	c #D4CFC1",
"7&	c #81826E",
"8&	c #61801F",
"9&	c #8CB831",
"0&	c #98C635",
"a&	c #9DCB37",
"b&	c #9CCA37",
"c&	c #9AAA60",
"d&	c #EEF1C4",
"e&	c #E5E6D9",
"f&	c #B5B981",
"g&	c #FBFBF3",
"h&	c #B3B3A1",
"i&	c #A2A38B",
"j&	c #BBC095",
"k&	c #D3CDC4",
"l&	c #5A791B",
"m&	c #759D26",
"n&	c #77A027",
"o&	c #79A227",
"p&	c #779F26",
"q&	c #929D5F",
"r&	c #CED28F",
"s&	c #DBDDC6",
"t&	c #A0A286",
"u&	c #D7D9BA",
"v&	c #D1D3BD",
"w&	c #9E9C8E",
"x&	c #7E8755",
"y&	c #BDBAAB",
"z&	c #8F9177",
"                                                                                                                                ",
"                                                                                                                                ",
"                                                                                                                          . +   ",
"                                                                                                                        @ # $   ",
"                                                                                                                        @ # %   ",
"                                                                                                                          & +   ",
"                                        * = - ; >                                                                               ",
"                                      , ' ) ) ) ! ~                                                                             ",
"                          { ] ^ &     / ) ) ( _ : <                                                                             ",
"                        [ } | 1 2 3 4 : ) 5 6 7 8 9 0                                                                           ",
"                        a 1 1 1 1 2 b c d e f g h i j                                                                           ",
"                      { k 1 1 1 1 l m n o p q r s t u v w x y z                                                                 ",
"                        A 1 1 1 1 B C D E F G H I J K L M : M N O P                                                             ",
"                        ^ | 1 1 Q R S T U V G W X Y Z `  ...+.@.) #.$.                                                          ",
"                          %.k &.*.=.-.;.>.,.'.).!.~.{.].^./.(._.:.9 <.                                                          ",
"                            { { [.}.|.1.2.3.4.5.6.7.8.9.{.0.a.b.c.d.e.                                                          ",
"                              f.g.h.i.j.k.l.m.n.o.p.q.r.s.9.t.u.a.v.w.                                                          ",
"                              x.y.z.A.B.C.D.E.F.G.H.I.J.D K.L.M.N.u.O.                                      + P.{               ",
"                              Q.R.S.T.U.V.W.X.Y.Z.`. +.+++@+D K.n #+$+                                  + %+&+# &.3             ",
"                              *+=+-+;+>+T.,+'+)+!+~+{+-.]+^+T @+/+(+_+                                  a 1 1 1 1 | :+          ",
"                              <+[+}+|+|+1+2+3+4+5+6+7+~+1.-.]+8+T @+9+                                + 2 1 1 1 1 1 0+{         ",
"                              a+b+c+d+d+d+d+e+f+g+h+i+j+k+|.1.-.;.l+m+                                & # 1 1 1 1 1 n+{         ",
"                            o+p+q+r+s+t+u+v+d+w+x+y+z+A+B+C+k+|.D+E+                                  + F+1 1 1 1 1 A           ",
"                            G+H+q+I+J+K+L+M+N+O+P+Q+R+S+T+U+V+W+X+Y+                                    Z+| 1 1 1 # `+          ",
"                             @.@q+q++@@@#@$@%@&@*@=@-@;@>@,@'@)@!@                                        3 ~@&+A `+            ",
"                            {@]@^@q+q+/@(@_@:@<@[@}@|@%@1@2@3@4@5@                                          { {                 ",
"                            6@N.7@8@q+q+9@0@q+a@b@c@_@d@@@#@e@f@g@                                                              ",
"                            4 h@i@j@k@q+q+q+q+q+q+q+l@m@n@o@p@q@                                                                ",
"                            r@s@t@u@v@w@x@y@z@A@B@C@D@E@F@G@H@                                                                  ",
"                            I@J@) K@L@M@! N@O@                                                                                  ",
"                            P@) Q@R@S@T@) ) U@                                                                                  ",
"                            V@W@X@Y@Z@`@ # #.#                                                                                  ",
"    +#                      @#|.##$#%#&#*#_@@@=#                                                                                ",
"  -#;#>#                  ,#'#R )#!#~#|.{#]#}@^#                                                                                ",
"  /#(#_#:#                <#K.[#}#|#&#j.1#2#M+3#4#                                                                              ",
"  5#6#K.7#8#          9#0#a#b# +c#d#[#e#B.f#3#d+g#                                                                              ",
"  h#i#j#k#l#m#    n#o#p#q#r#s#t#u#v#w#x#y#z#d+d+A#B#                                                                            ",
"    C#D#E#D M.F#G#K.r.H#I#J#K#L#M#N#O#P#Q#R#d+d+S#T#                                                                            ",
"    U#V#W#.+@+X#t#T Y#Z#`#++ $.$+$@$#$$$%$&$%@L+*$=$                                                                            ",
"    -$;$>$,$;.]+'$-.)$!$~$]+{$]$8 ^$S./$Z ($_$:$<$[$}$                                                                          ",
"      |$1$2$3$~+^$k+4$5$6$3$-.7$8$9$0$a$b$c$d$K+e$f$g$                                                                          ",
"      h$i$j$k$l$m$A.n$o$p$7+|.q$r$s$t$u$v$9.w$x$y$z$A$                                                                          ",
"        B$C$D$E$F$G$H$I$J$@$i.K$L$M$N$O$P$@.Q$R$S$T$U$                                      V$%+W$3 P.                          ",
"          X$Y$Z$`$}@ %.%+%@%A.B.#%$%%%&%c ) P$*%=%-%;%                                  + >%| 1 1 1 F+,%                        ",
"            '%)%!%~%{%]%^%/%(%U.@$_%:%3$<%_ [%}%|%1%2%                                  3%1 1 1 1 1 1 2 .                       ",
"                4%5%6%7%8%^%9%0%z.A.a%b%|.~$c%d%e%f%                                  P.2 1 1 1 1 1 1 1 W$                      ",
"                        g%h%^%i%j%k%h+l%_%6$m%n%o%p%                                  ,%| 1 1 1 1 1 1 1 0+{                     ",
"                            q%^%^%^%r%g+s%t%u%v%w%x%                                  ,%| 1 1 1 1 1 1 1 0+                      ",
"                            y%z%^%^%^%A%B%C%D%E%F%                                    [ 2 1 1 1 1 1 1 1 a                       ",
"                            G%H%I%J%K%L%M%N%O%P%                                        a 1 1 1 1 1 1 F+&                       ",
"                            Q%R%~$@+S%T%U%V%W%                                          + W$# 1 1 1 &.X%                        ",
"        [ 3 3 P.            Y%Z%M.$+`% &.&+&@&                                              #&Z+%+@ [                           ",
"      { A 1 1 ~@+           $&: ) M %&&&*&=&-&;&>&                                                                              ",
"      & # 1 1 | ,&        '&)&!&~&{&M.]&^&/&(&_&:&<&[&                                                                          ",
"      [ &+1 1 # &         I%~+~+~+~+~+}&|&1&2&3&4&5&6&7&                                                                        ",
"        ^ ~@&.@         8&9&0&a&(%(%b&c&d&e&f&g&h&i&j&k&                                                                        ",
"          { {           l&m&m&m&n&o&p&q&r&s&t&u&v&w&x&y&z&                                                                      ",
"                                                                                                                                ",
"                                                                                                                                ",
"                                                                                                                                ",
"                                                                                                                                ",
"                                                                                                                                ",
"                                                                                                                                ",
"                                                                                                                                "};
