/* XPM */
static char * dino2_xpm[] = {
"64 64 709 2",
"  	c #7B4720",
". 	c #7A4620",
"+ 	c #77451F",
"@ 	c #6C3E1D",
"# 	c #643A1B",
"$ 	c #73421E",
"% 	c #6D3E1D",
"& 	c #78451F",
"* 	c #888B43",
"= 	c #C9CD66",
"- 	c #D6DA6D",
"; 	c #C1C660",
"> 	c #84893F",
", 	c #858841",
"' 	c #D9DD6E",
") 	c #DCE070",
"! 	c #D6DD6B",
"~ 	c #8B9441",
"{ 	c #C5C963",
"] 	c #DBDF6F",
"^ 	c #D7DE6C",
"/ 	c #D8DF6D",
"( 	c #CED865",
"_ 	c #74431E",
": 	c #76441F",
"< 	c #7A4720",
"[ 	c #878C41",
"} 	c #DADF6E",
"| 	c #D2DC67",
"1 	c #BECD5A",
"2 	c #C1D15B",
"3 	c #D2DD67",
"4 	c #9CAD46",
"5 	c #72421E",
"6 	c #653A1B",
"7 	c #63391B",
"8 	c #64391B",
"9 	c #6B3E1C",
"0 	c #794620",
"a 	c #AAB153",
"b 	c #D5DD6A",
"c 	c #98A659",
"d 	c #8F928B",
"e 	c #53692F",
"f 	c #AAC04C",
"g 	c #CEDB63",
"h 	c #D9DF6D",
"i 	c #B4CC50",
"j 	c #6F401D",
"k 	c #565828",
"l 	c #909447",
"m 	c #9FA34E",
"n 	c #9EA34D",
"o 	c #8B9242",
"p 	c #B6BF58",
"q 	c #BAC861",
"r 	c #E6E8E9",
"s 	c #FEFFFF",
"t 	c #D8D8D8",
"u 	c #5B7621",
"v 	c #BBD354",
"w 	c #BFD755",
"x 	c #B6D150",
"y 	c #6C8429",
"z 	c #693C1C",
"A 	c #777A39",
"B 	c #B9BD5D",
"C 	c #DADE6F",
"D 	c #DBE06F",
"E 	c #CCD166",
"F 	c #BBCA58",
"G 	c #B7CDAD",
"H 	c #54C7F0",
"I 	c #F9FDFE",
"J 	c #FFFFFF",
"K 	c #8C9187",
"L 	c #A1BD44",
"M 	c #BAD551",
"N 	c #B0CD4B",
"O 	c #82A132",
"P 	c #6A3D1C",
"Q 	c #7E823C",
"R 	c #D6DB6C",
"S 	c #D7DE6B",
"T 	c #D0DC65",
"U 	c #CDDB62",
"V 	c #CBDB61",
"W 	c #C2CF5D",
"X 	c #C2D55A",
"Y 	c #7EC2CC",
"Z 	c #00AAD5",
"` 	c #DCECF5",
" .	c #C0C0C0",
"..	c #8CAB37",
"+.	c #B6D44D",
"@.	c #B1D24A",
"#.	c #91B437",
"$.	c #647E24",
"%.	c #B1B956",
"&.	c #D6DE6A",
"*.	c #CDDB63",
"=.	c #CBDB60",
"-.	c #C9DA5E",
";.	c #C6D95C",
">.	c #C3D75A",
",.	c #C2D858",
"'.	c #5ABDD5",
").	c #0089AE",
"!.	c #61AAC9",
"~.	c #E4F4FC",
"{.	c #D3D3D3",
"].	c #7D9D2F",
"^.	c #B2D349",
"/.	c #AFD247",
"(.	c #98BD3A",
"_.	c #7EA12E",
":.	c #673B1C",
"<.	c #73431E",
"[.	c #798D33",
"}.	c #CDD665",
"|.	c #CCDB62",
"1.	c #C9DA5F",
"2.	c #C7D95D",
"3.	c #C4D95A",
"4.	c #C0D756",
"5.	c #BDD654",
"6.	c #62C7DF",
"7.	c #0092B8",
"8.	c #00A8D3",
"9.	c #C6EAFD",
"0.	c #D5D5D5",
"a.	c #7E9F2E",
"b.	c #ADD245",
"c.	c #ABD143",
"d.	c #9EC53C",
"e.	c #8AB232",
"f.	c #576D1F",
"g.	c #BECE59",
"h.	c #C5D95B",
"i.	c #C2D859",
"j.	c #BED754",
"k.	c #BCD652",
"l.	c #B9D550",
"m.	c #86D0D4",
"n.	c #03C2F3",
"o.	c #00C8FB",
"p.	c #DEF3FF",
"q.	c #C4C5C4",
"r.	c #8AAE33",
"s.	c #A9D142",
"t.	c #A7D03F",
"u.	c #A1CB3C",
"v.	c #88B130",
"w.	c #6A8C23",
"x.	c #79461F",
"y.	c #94A941",
"z.	c #C3D859",
"A.	c #C0D757",
"B.	c #BED755",
"C.	c #BCD653",
"D.	c #B7D54E",
"E.	c #B5D44C",
"F.	c #BDDAA8",
"G.	c #DFF4FF",
"H.	c #84DAFF",
"I.	c #FEFEFF",
"J.	c #9BA491",
"K.	c #96BD37",
"L.	c #A5CF3E",
"M.	c #A2CE3B",
"N.	c #A0CE39",
"O.	c #87B22F",
"P.	c #729826",
"Q.	c #663A1B",
"R.	c #70401D",
"S.	c #BFD357",
"T.	c #C1D857",
"U.	c #B8D54F",
"V.	c #B5D44D",
"W.	c #B3D34A",
"X.	c #B1D348",
"Y.	c #ADCF4E",
"Z.	c #ECF0E6",
"`.	c #FDFEFF",
" +	c #E1E1E0",
".+	c #6F922B",
"++	c #A1CD3B",
"@+	c #A1CE3A",
"#+	c #9ECD38",
"$+	c #9CCC35",
"%+	c #87B42D",
"&+	c #739A25",
"*+	c #74421E",
"=+	c #ACC24C",
"-+	c #BDD653",
";+	c #BAD651",
">+	c #B3D44B",
",+	c #B1D349",
"'+	c #ACD245",
")+	c #AAD143",
"!+	c #A2C652",
"~+	c #AABD90",
"{+	c #7B9C41",
"]+	c #97C336",
"^+	c #9CCD36",
"/+	c #9ACC34",
"(+	c #98CB32",
"_+	c #85B12C",
":+	c #769D26",
"<+	c #693D1C",
"[+	c #97AD40",
"}+	c #B4D44B",
"|+	c #A8D041",
"1+	c #A4CD3E",
"2+	c #9DC73A",
"3+	c #9BC738",
"4+	c #9BC837",
"5+	c #B0D05E",
"6+	c #CFE084",
"7+	c #DCE694",
"8+	c #BFD26F",
"9+	c #82A92C",
"0+	c #75962A",
"a+	c #663B1C",
"b+	c #7E9334",
"c+	c #B4D44C",
"d+	c #A9D041",
"e+	c #A1CA3D",
"f+	c #93BC36",
"g+	c #88B230",
"h+	c #87B12F",
"i+	c #789D2B",
"j+	c #BBC27F",
"k+	c #E7EBA1",
"l+	c #E2E695",
"m+	c #AFB63F",
"n+	c #A9BF4C",
"o+	c #663B1B",
"p+	c #A8C944",
"q+	c #ADD246",
"r+	c #A0C93C",
"s+	c #92BA35",
"t+	c #789B2C",
"u+	c #739727",
"v+	c #688724",
"w+	c #617C23",
"x+	c #BDC283",
"y+	c #E7EBA0",
"z+	c #E6EA9F",
"A+	c #E6EA9D",
"B+	c #E5E99B",
"C+	c #E0E48D",
"D+	c #CED34B",
"E+	c #ABB84F",
"F+	c #7A8438",
"G+	c #75431F",
"H+	c #71411E",
"I+	c #718E29",
"J+	c #9EC53D",
"K+	c #9BC33A",
"L+	c #87AD31",
"M+	c #6D8C2C",
"N+	c #7A875D",
"O+	c #CBCBB8",
"P+	c #A2A292",
"Q+	c #988C6A",
"R+	c #C4C685",
"S+	c #E5E99C",
"T+	c #E5E99A",
"U+	c #E4E897",
"V+	c #E4E894",
"W+	c #E3E792",
"X+	c #E3E78F",
"Y+	c #D7DB6E",
"Z+	c #A7B44B",
"`+	c #939F43",
" @	c #683C1C",
".@	c #5A741E",
"+@	c #84916D",
"@@	c #A3A48F",
"#@	c #ABAB94",
"$@	c #9F9C86",
"%@	c #A2A476",
"&@	c #C5C881",
"*@	c #E3E795",
"=@	c #E3E793",
"-@	c #E3E790",
";@	c #E2E68E",
">@	c #E2E68B",
",@	c #E1E588",
"'@	c #E0E485",
")@	c #D9DE74",
"!@	c #A6B54B",
"~@	c #98A646",
"{@	c #90935D",
"]@	c #A1A36D",
"^@	c #ABAE6F",
"/@	c #C8CB80",
"(@	c #E0E48F",
"_@	c #E2E68C",
":@	c #E1E589",
"<@	c #E1E587",
"[@	c #DCE07B",
"}@	c #D9DD70",
"|@	c #DFE37F",
"1@	c #DEE27C",
"2@	c #D6DA67",
"3@	c #B6BA41",
"4@	c #B8CB55",
"5@	c #9EAC48",
"6@	c #A1A543",
"7@	c #DCE07C",
"8@	c #E1E58A",
"9@	c #E0E483",
"0@	c #DBE076",
"a@	c #D6DB67",
"b@	c #CFD44E",
"c@	c #D2D658",
"d@	c #CFD450",
"e@	c #CBD04A",
"f@	c #98A53E",
"g@	c #9DAD47",
"h@	c #B7BB42",
"i@	c #D2D65A",
"j@	c #D3D85F",
"k@	c #D2D75B",
"l@	c #D0D555",
"m@	c #CED34D",
"n@	c #C1C646",
"o@	c #8D9936",
"p@	c #B5CE50",
"q@	c #BED456",
"r@	c #6E7026",
"s@	c #82852E",
"t@	c #7F822B",
"u@	c #7F822D",
"v@	c #7B7E2B",
"w@	c #797C2A",
"x@	c #7F822C",
"y@	c #8F9232",
"z@	c #9EA238",
"A@	c #A5A93B",
"B@	c #9DA038",
"C@	c #9CA043",
"D@	c #7F9634",
"E@	c #A7CA43",
"F@	c #D3DD68",
"G@	c #ADBA51",
"H@	c #98A944",
"I@	c #6C6E34",
"J@	c #D3D76B",
"K@	c #D8DD6D",
"L@	c #82A431",
"M@	c #A7CC43",
"N@	c #D3DA6A",
"O@	c #5E6928",
"P@	c #B0B458",
"Q@	c #CCDB63",
"R@	c #6F9026",
"S@	c #97C634",
"T@	c #D0DC66",
"U@	c #768433",
"V@	c #D9DD75",
"W@	c #DDE177",
"X@	c #BBD555",
"Y@	c #6D8B26",
"Z@	c #8BB92F",
"`@	c #A9D043",
" #	c #C4D85B",
".#	c #90A53E",
"+#	c #A8AC65",
"@#	c #D8E074",
"##	c #ADD145",
"$#	c #86A235",
"%#	c #78A127",
"&#	c #9BC937",
"*#	c #ADC849",
"=#	c #959D53",
"-#	c #D0D487",
";#	c #DFE380",
">#	c #C6DA64",
",#	c #ADD146",
"'#	c #6B8528",
")#	c #80A92A",
"!#	c #B4D34B",
"~#	c #71822F",
"{#	c #757F34",
"]#	c #CFDD74",
"^#	c #ACAF76",
"/#	c #7C804F",
"(#	c #E6EAA0",
"_#	c #DFE381",
":#	c #B3D34F",
"<#	c #A0C041",
"[#	c #4D6618",
"}#	c #A6CB41",
"|#	c #839538",
"1#	c #576025",
"2#	c #B9CC54",
"3#	c #D3E181",
"4#	c #B2B677",
"5#	c #ABAE73",
"6#	c #DDE280",
"7#	c #A8D040",
"8#	c #87A534",
"9#	c #81A42E",
"0#	c #CFDB64",
"a#	c #8D9E3F",
"b#	c #92A441",
"c#	c #4C541F",
"d#	c #566025",
"e#	c #B1C550",
"f#	c #DCE590",
"g#	c #A3A755",
"h#	c #76785D",
"i#	c #B9BD7E",
"j#	c #D7E180",
"k#	c #9EC93A",
"l#	c #98A277",
"m#	c #5A722A",
"n#	c #6F9424",
"o#	c #9AC03A",
"p#	c #B7D44E",
"q#	c #C3CC60",
"r#	c #9FB446",
"s#	c #A8BE4A",
"t#	c #B8CD53",
"u#	c #8C9E3D",
"v#	c #5E6A27",
"w#	c #86923C",
"x#	c #BACE54",
"y#	c #BBD652",
"z#	c #BBD65A",
"A#	c #E0E58F",
"B#	c #85882F",
"C#	c #CBC9B3",
"D#	c #C6CA85",
"E#	c #D6E180",
"F#	c #88AD31",
"G#	c #B0B19D",
"H#	c #8AB82D",
"I#	c #9BCA37",
"J#	c #AACE44",
"K#	c #C6D95D",
"L#	c #8F9B41",
"M#	c #B8D450",
"N#	c #B5D34D",
"O#	c #9FB744",
"P#	c #B8D151",
"Q#	c #BBD254",
"R#	c #B3D34B",
"S#	c #CEDF7C",
"T#	c #D0D46D",
"U#	c #8D906D",
"V#	c #CFD387",
"W#	c #CCD177",
"X#	c #B0C051",
"Y#	c #667F26",
"Z#	c #99CB33",
"`#	c #A4CF3D",
" $	c #BBD553",
".$	c #CDD466",
"+$	c #91A83D",
"@$	c #B2D34A",
"#$	c #8FAE39",
"$$	c #AECB49",
"%$	c #B7D54F",
"&$	c #B5D456",
"*$	c #DFE48B",
"=$	c #A8AD40",
"-$	c #3A3C2C",
";$	c #5A7029",
">$	c #C5C980",
",$	c #E3E791",
"'$	c #E0E48A",
")$	c #A5B055",
"!$	c #6A8D23",
"~$	c #A9D042",
"{$	c #B0B756",
"]$	c #A9C746",
"^$	c #AED246",
"/$	c #99BE3B",
"($	c #93B13A",
"_$	c #B0D348",
":$	c #B0D24B",
"<$	c #D9E388",
"[$	c #D5D967",
"}$	c #7B7F2A",
"|$	c #ACB088",
"1$	c #83A83D",
"2$	c #B3B874",
"3$	c #BCC173",
"4$	c #BED157",
"5$	c #A3B15C",
"6$	c #869A59",
"7$	c #A0CD39",
"8$	c #AED146",
"9$	c #D9DF6E",
"0$	c #9CA64A",
"a$	c #ACD145",
"b$	c #AAD142",
"c$	c #93BB36",
"d$	c #89AB33",
"e$	c #D0E080",
"f$	c #DBE07C",
"g$	c #B0B43F",
"h$	c #A3A58F",
"i$	c #A2BD4F",
"j$	c #9EA755",
"k$	c #DFE383",
"l$	c #A7B357",
"m$	c #B0B884",
"n$	c #B5B8AA",
"o$	c #88AE31",
"p$	c #A8C846",
"q$	c #C7D85E",
"r$	c #839937",
"s$	c #A4CE3D",
"t$	c #89B331",
"u$	c #83A92E",
"v$	c #A5CF3F",
"w$	c #BBD866",
"x$	c #DAE590",
"y$	c #DFE48C",
"z$	c #CCD14E",
"A$	c #717426",
"B$	c #6E3F1D",
"C$	c #75441E",
"D$	c #597627",
"E$	c #B1C159",
"F$	c #93A049",
"G$	c #CFD269",
"H$	c #ACB852",
"I$	c #BFCA5D",
"J$	c #849745",
"K$	c #526721",
"L$	c #95AF3E",
"M$	c #7F8E37",
"N$	c #9CC13C",
"O$	c #97C236",
"P$	c #7FA82B",
"Q$	c #B8C671",
"R$	c #D4E184",
"S$	c #E0E692",
"T$	c #E4E895",
"U$	c #DEE285",
"V$	c #D0D557",
"W$	c #969A35",
"X$	c #75431E",
"Y$	c #6C3F1C",
"Z$	c #648B2C",
"`$	c #A9BE54",
" %	c #A6BC52",
".%	c #758238",
"+%	c #ABCC46",
"@%	c #C5C5AD",
"#%	c #7A875A",
"$%	c #9FC53D",
"%%	c #9ECC38",
"&%	c #88B32E",
"*%	c #75962F",
"=%	c #DFE38C",
"-%	c #DBE07B",
";%	c #D3D862",
">%	c #CDD24B",
",%	c #A0A539",
"'%	c #6E401D",
")%	c #5A8126",
"!%	c #7FB439",
"~%	c #79B335",
"{%	c #64992A",
"]%	c #B4C852",
"^%	c #BCD654",
"/%	c #8CAD35",
"(%	c #A3CB3E",
"_%	c #9ECD37",
":%	c #8CB930",
"<%	c #84B02C",
"[%	c #96A237",
"}%	c #D0D452",
"|%	c #CED34C",
"1%	c #CCD14A",
"2%	c #A9AE3D",
"3%	c #80842D",
"4%	c #75B032",
"5%	c #73B130",
"6%	c #609B27",
"7%	c #9FBD40",
"8%	c #A5CD3F",
"9%	c #A2CC3D",
"0%	c #9CCB36",
"a%	c #8CBA2F",
"b%	c #789B28",
"c%	c #B6BB42",
"d%	c #B0B53F",
"e%	c #9CA037",
"f%	c #6B6E24",
"g%	c #528521",
"h%	c #63A228",
"i%	c #549221",
"j%	c #80A031",
"k%	c #8BB432",
"l%	c #8FBB32",
"m%	c #8EBB30",
"n%	c #86B22D",
"o%	c #7EA92A",
"p%	c #3C5210",
"q%	c #1F3809",
"r%	c #4E871F",
"s%	c #519120",
"t%	c #4B791B",
"u%	c #93BA36",
"v%	c #8BB532",
"w%	c #85B12E",
"x%	c #7FAA2A",
"y%	c #556527",
"z%	c #7EA53B",
"A%	c #689C2D",
"B%	c #5F8123",
"C%	c #83AD2E",
"D%	c #84B02D",
"E%	c #80AA2B",
"F%	c #62841F",
"G%	c #708535",
"H%	c #97BA48",
"I%	c #86B13E",
"J%	c #81933B",
"K%	c #AEC74D",
"L%	c #A2C242",
"M%	c #A0C33F",
"N%	c #A3C93F",
"O%	c #8AB431",
"P%	c #698D22",
"Q%	c #76441E",
"R%	c #7A9639",
"S%	c #8EB842",
"T%	c #79A836",
"U%	c #9EAD4A",
"V%	c #C2D758",
"W%	c #8EB733",
"X%	c #698B22",
"Y%	c #77441F",
"Z%	c #566A27",
"`%	c #8EB043",
" &	c #94B846",
".&	c #708F33",
"+&	c #ACBD4F",
"@&	c #A8C349",
"#&	c #6B8329",
"$&	c #507422",
"%&	c #84AA3D",
"&&	c #9BB94B",
"*&	c #8A9943",
"=&	c #90A540",
"-&	c #B9CE53",
";&	c #D4DD68",
">&	c #CBD564",
",&	c #797C64",
"'&	c #C4C2B0",
")&	c #6A8740",
"!&	c #658F2C",
"~&	c #A9B193",
"{&	c #CFD2B7",
"]&	c #84A234",
"^&	c #ACC849",
"/&	c #C8D95F",
"(&	c #CBDA61",
"_&	c #CADA60",
":&	c #C1D758",
"<&	c #9CB741",
"[&	c #75441F",
"}&	c #81826E",
"|&	c #D4CFC1",
"1&	c #AFB782",
"2&	c #8E9077",
"3&	c #B7B9A9",
"4&	c #F5F6DE",
"5&	c #B9BD86",
"6&	c #BABCAB",
"7&	c #86A736",
"8&	c #D3CDC4",
"9&	c #BBC095",
"0&	c #A2A38B",
"a&	c #B3B3A1",
"b&	c #FBFBF3",
"c&	c #B5B981",
"d&	c #E5E6D9",
"e&	c #EEF1C4",
"f&	c #9AAA60",
"g&	c #9CCA37",
"h&	c #9DCB37",
"i&	c #98C635",
"j&	c #8CB831",
"k&	c #61801F",
"l&	c #8F9177",
"m&	c #BDBAAB",
"n&	c #7E8755",
"o&	c #9E9C8E",
"p&	c #D1D3BD",
"q&	c #D7D9BA",
"r&	c #A0A286",
"s&	c #DBDDC6",
"t&	c #CED28F",
"u&	c #929D5F",
"v&	c #779F26",
"w&	c #79A227",
"x&	c #77A027",
"y&	c #759D26",
"z&	c #5A791B",
"                                                                                                                                ",
"                                                                                                                                ",
"  . +                                                                                                                           ",
"  @ # $                                                                                                                         ",
"  % # $                                                                                                                         ",
"  . &                                                                                                                           ",
"                                                                              * = - ; >                                         ",
"                                                                            , ' ) ) ) ! ~                                       ",
"                                                                            { ] ^ / ) ) (     & _ : <                           ",
"                                                                          [ } | 1 2 3 ) ] 4 5 6 7 8 9 0                         ",
"                                                                          a b c d e f g h i 6 7 7 7 7 j                         ",
"                                                                k l m n o p q r s t u v w x y 7 7 7 7 z <                       ",
"                                                            A B C D ] D E F G H I J K L M N O 7 7 7 7 P                         ",
"                                                          Q R ) S T U V W X Y Z ` J  ...+.@.#.$.7 7 8 _                         ",
"                                                          %.} &.*.=.-.;.>.,.'.).!.~.{.].^./.(._.:.z <.                          ",
"                                                          [.}.|.1.2.3.,.4.5.6.7.8.9.0.a.b.c.d.e.< <                             ",
"                                                          f.g.2.h.i.4.j.k.l.m.n.o.p.q.r.s.t.u.v.w.                              ",
"              < x..                                       y.h.z.A.B.C.M D.E.F.G.H.I.J.K.L.M.N.O.P.                              ",
"            5 :.# Q.R..                                   S.T.w C.M U.V.W.X.Y.Z.`. +.+++@+#+$+%+&+                              ",
"          *+8 7 7 7 7 j                                   =+-+;+U.+.>+,+/.'+)+!+~+{+]+#+^+/+(+_+:+                              ",
"        < <+7 7 7 7 7 6 .                                 [+U.+.}+,+/.b.)+|+1+2+3+4+5+6+7+7+8+9+0+                              ",
"        < a+7 7 7 7 7 # &                                 b+c+^./.b.c.d+e+f+g+h+i+j+k+k+k+k+l+m+n+                              ",
"          P 7 7 7 7 7 o+.                                   p+q+c.d+r+s+t+u+v+w+x+k+y+z+A+B+C+D+E+F+                            ",
"          G+# 7 7 7 8 H+                                    I+J+K+L+M+N+O+P+Q+R+S+T+U+V+W+X+Y+D+Z+`+                            ",
"            G+P Q. @5                                         .@+@@@#@$@%@&@*@=@-@;@>@,@'@)@D+D+!@~@                            ",
"                < <                                           {@]@^@/@(@;@_@:@<@[@}@|@1@2@D+D+3@4@5@                            ",
"                                                              6@7@8@,@'@9@|@0@a@b@D+c@d@D+D+e@f@z.g@                            ",
"                                                                h@i@j@k@l@m@D+D+D+D+D+D+D+n@o@p@q@4                             ",
"                                                                  r@s@t@u@v@w@x@y@z@A@B@C@D@E@F@G@H@                            ",
"                                                                                  I@J@' K@L@M@) N@O@                            ",
"                                                                                  P@) ) Q@R@S@T@) U@                            ",
"                                                                                  V@W@W@X@Y@Z@`@ #.#                            ",
"                                                                                +#'@|@@###$#%#&#c.*#                      =#    ",
"                                                                                -#:@;#>#c.,#'#)##.!#~#                  {#]#^#  ",
"                                                                              /#(#U+_#:#s.##<#[#}#C.|#                1#2#3#4#  ",
"                                                                              5#k+(#6#L.7#}#8#9#X.0#a#b#c#          d#e#C.f#g#  ",
"                                                                            h#i#k+k+j#k#l#m#n#o#p#q#r#s#t#u#v#    w#x#y#z#A#B#  ",
"                                                                            C#D#k+k+E#F#G#H#I#J#K#L#M#N#O#k.C.P#Q#A.M R#S#T#    ",
"                                                                            U#V#V+;@W#X#Y#Z#`# $.$+$V.@$#$$$+.p#%$U.W.&$*$=$    ",
"                                                                          -$;$>$,$'$)$X !$$+~$| {$]$,+^$/$($/._$,+^.:$<$[$}$    ",
"                                                                          |$1$2$W+3$4$5$6$7$8$9$0$/.a$b$c$d$d+~$)+a$e$f$g$      ",
"                                                                          h$i$j$k$l$4.m$n$o$p$q$r$c.|+s$t$u$M.v$w$x$y$z$A$      ",
"                          x.5 B$R.C$                                      D$E$F$G$H$S I$J$K$L$M$N$t.`#O$P$Q$R$S$T$U$V$W$        ",
"                        X$o+7 7 7 8 Y$.                                   Z$`$ %.%I$) h +%@%#%$%L.M.%%&%*%=%:@-%;%>%,%          ",
"                      + 6 7 7 7 7 7 7 '%                                  )%!%~%{%]%^ ^%a$/%(%`#@+_%:%<%[%}%|%1%2%3%            ",
"                      B$7 7 7 7 7 7 7 6 x.                                  4%5%6%7%^$c.8%9%M.N.0%a%<%b%c%d%e%f%                ",
"                    < <+7 7 7 7 7 7 7 8 X$                                  g%h%i%j%b$(%k%g+l%m%n%<%o%p%                        ",
"                      <+7 7 7 7 7 7 7 8 X$                                  q%r%s%t%u%v%h+w%<%<%<%x%                            ",
"                      j 7 7 7 7 7 7 7 6 0                                     y%z%A%B%C%D%<%<%<%E%F%                            ",
"                      & o+7 7 7 7 7 7 j                                         G%H%I%J%K%L%M%N%O%P%                            ",
"                        Q%:.7 7 7 # B$.                                           R%S%T%U%V%U.^$W%X%                            ",
"                          0 $ R.H+Y%                                              Z%`% &.&+&S.A.@&#&            x.5 5 0         ",
"                                                                              $&%&&&*&=&-&;&D ) ] >&          .  @7 7 P <       ",
"                                                                          ,&'&)&!&~&{&]&^&A./&(&_&:&<&        [&8 7 7 # &       ",
"                                                                        }&|&1&2&3&4&5&6&7&)+)+)+)+)+N%        & # 7 7 Q.0       ",
"                                                                        8&9&0&a&b&c&d&e&f&g&_%_%h&i&j&k&        $ :. @_         ",
"                                                                      l&m&n&o&p&q&r&s&t&u&v&w&x&y&y&y&z&          < <           ",
"                                                                                                                                ",
"                                                                                                                                ",
"                                                                                                                                ",
"                                                                                                                                ",
"                                                                                                                                ",
"                                                                                                                                ",
"                                                                                                                                "};
