/* XPM */
static char * food_xpm[] = {
"64 64 636 2",
"  	c #7B4720",
". 	c #77451F",
"+ 	c #7A4620",
"@ 	c #73421E",
"# 	c #643A1B",
"$ 	c #6C3E1D",
"% 	c #6D3E1D",
"& 	c #78451F",
"* 	c #7A4720",
"= 	c #76441F",
"- 	c #74431E",
"; 	c #794620",
"> 	c #6B3E1C",
", 	c #64391B",
"' 	c #63391B",
") 	c #653A1B",
"! 	c #72421E",
"~ 	c #6F401D",
"{ 	c #693C1C",
"] 	c #6A3D1C",
"^ 	c #683C1C",
"/ 	c #302525",
"( 	c #312726",
"_ 	c #73431E",
": 	c #673B1C",
"< 	c #342A28",
"[ 	c #726D58",
"} 	c #554E41",
"| 	c #3C332E",
"1 	c #7F7A61",
"2 	c #827D62",
"3 	c #878168",
"4 	c #B9B291",
"5 	c #756E5F",
"6 	c #2F2424",
"7 	c #484138",
"8 	c #868166",
"9 	c #B4AE89",
"0 	c #C7C19A",
"a 	c #E4DCB5",
"b 	c #A69E89",
"c 	c #312525",
"d 	c #403831",
"e 	c #6F6954",
"f 	c #9C9676",
"g 	c #B2AB8A",
"h 	c #D3CCAD",
"i 	c #817A6B",
"j 	c #79461F",
"k 	c #332527",
"l 	c #3F292E",
"m 	c #432D32",
"n 	c #684551",
"o 	c #8B6170",
"p 	c #885E6D",
"q 	c #5B353F",
"r 	c #5C343D",
"s 	c #613640",
"t 	c #553138",
"u 	c #312626",
"v 	c #53363D",
"w 	c #422D31",
"x 	c #322727",
"y 	c #70401D",
"z 	c #663A1B",
"A 	c #352528",
"B 	c #3B262C",
"C 	c #422830",
"D 	c #452A32",
"E 	c #5F3E49",
"F 	c #694C56",
"G 	c #9F7283",
"H 	c #C48DA2",
"I 	c #A87689",
"J 	c #976979",
"K 	c #7E515F",
"L 	c #713D49",
"M 	c #824A59",
"N 	c #513239",
"O 	c #623B45",
"P 	c #985B6F",
"Q 	c #352729",
"R 	c #281F1F",
"S 	c #74421E",
"T 	c #38262A",
"U 	c #41282F",
"V 	c #4C2F39",
"W 	c #A07284",
"X 	c #B68397",
"Y 	c #4F2E37",
"Z 	c #3A282B",
"` 	c #462C31",
" .	c #462C32",
"..	c #502F37",
"+.	c #5B333D",
"@.	c #5C333E",
"#.	c #6F3B48",
"$.	c #834A59",
"%.	c #6D414C",
"&.	c #795360",
"*.	c #9D5E72",
"=.	c #845060",
"-.	c #2C2222",
";.	c #693D1C",
">.	c #39252A",
",.	c #3C252C",
"'.	c #3D252D",
").	c #3F262E",
"!.	c #A57688",
"~.	c #C690A5",
"{.	c #6D4A56",
"].	c #4D2E35",
"^.	c #492C32",
"/.	c #432B2F",
"(.	c #543038",
"_.	c #5C333D",
":.	c #653742",
"<.	c #7C4553",
"[.	c #8B5564",
"}.	c #AD7D90",
"|.	c #BA7B91",
"1.	c #935668",
"2.	c #8B5869",
"3.	c #2E2323",
"4.	c #663B1C",
"5.	c #362529",
"6.	c #3C252D",
"7.	c #492B34",
"8.	c #402A2F",
"9.	c #3D292D",
"0.	c #57313B",
"a.	c #59323C",
"b.	c #663843",
"c.	c #804958",
"d.	c #DC9DB6",
"e.	c #D895AE",
"f.	c #864D5D",
"g.	c #854C5C",
"h.	c #C28A9F",
"i.	c #663B1B",
"j.	c #332526",
"k.	c #3D2729",
"l.	c #542E33",
"m.	c #342627",
"n.	c #3A262B",
"o.	c #3A272B",
"p.	c #372729",
"q.	c #512F38",
"r.	c #5A323C",
"s.	c #643843",
"t.	c #814958",
"u.	c #C1859B",
"v.	c #EBA9C3",
"w.	c #915668",
"x.	c #693944",
"y.	c #8E5566",
"z.	c #9A7080",
"A.	c #71411E",
"B.	c #75431F",
"C.	c #4B252A",
"D.	c #472529",
"E.	c #4C2629",
"F.	c #58272C",
"G.	c #322526",
"H.	c #8C6471",
"I.	c #966C7C",
"J.	c #342728",
"K.	c #3E2E31",
"L.	c #3B272C",
"M.	c #4A2C35",
"N.	c #6C3D49",
"O.	c #834B5A",
"P.	c #6E444F",
"Q.	c #E9AAC3",
"R.	c #9E687A",
"S.	c #5E343E",
"T.	c #4B2E33",
"U.	c #724654",
"V.	c #2B2121",
"W.	c #322525",
"X.	c #3A2527",
"Y.	c #5F272E",
"Z.	c #842E39",
"`.	c #652A31",
" +	c #69272B",
".+	c #45272A",
"++	c #633339",
"@+	c #5E424A",
"#+	c #BC7386",
"$+	c #9A4C5B",
"%+	c #3D292B",
"&+	c #442A31",
"*+	c #58323C",
"=+	c #71404D",
"-+	c #5E3740",
";+	c #B08093",
">+	c #B1798D",
",+	c #5C343E",
"'+	c #58343B",
")+	c #E0A1BA",
"!+	c #5C3E47",
"~+	c #3D2527",
"{+	c #62313A",
"]+	c #B97B8F",
"^+	c #AF6C7E",
"/+	c #BC7F93",
"(+	c #882933",
"_+	c #412627",
":+	c #82292E",
"<+	c #7C292F",
"[+	c #522A2D",
"}+	c #B47083",
"|+	c #CE697E",
"1+	c #39262A",
"2+	c #6E3C49",
"3+	c #57323A",
"4+	c #62444D",
"5+	c #B17589",
"6+	c #7D4756",
"7+	c #683944",
"8+	c #4A2D33",
"9+	c #724450",
"0+	c #CD96AC",
"a+	c #332525",
"b+	c #50252B",
"c+	c #5C3F47",
"d+	c #B97E91",
"e+	c #C08296",
"f+	c #AD6E80",
"g+	c #6F2830",
"h+	c #7A282E",
"i+	c #A32C36",
"j+	c #B63846",
"k+	c #AB3846",
"l+	c #3D2B2D",
"m+	c #AD5C6E",
"n+	c #4A2D32",
"o+	c #4E2D37",
"p+	c #512F36",
"q+	c #382729",
"r+	c #7D4857",
"s+	c #AC677E",
"t+	c #814858",
"u+	c #3B282B",
"v+	c #935D6D",
"w+	c #B38396",
"x+	c #4C252A",
"y+	c #352526",
"z+	c #742831",
"A+	c #832B36",
"B+	c #7B2934",
"C+	c #7B2933",
"D+	c #8A2934",
"E+	c #932A35",
"F+	c #8A2D37",
"G+	c #752E35",
"H+	c #A83F4E",
"I+	c #734650",
"J+	c #4A2F34",
"K+	c #422A2F",
"L+	c #312526",
"M+	c #352628",
"N+	c #673944",
"O+	c #915466",
"P+	c #BF728D",
"Q+	c #56343C",
"R+	c #53343B",
"S+	c #BF8399",
"T+	c #AA7C8E",
"U+	c #4E262A",
"V+	c #782B36",
"W+	c #983540",
"X+	c #8B2934",
"Y+	c #812933",
"Z+	c #962B35",
"`+	c #B33643",
" @	c #892C36",
".@	c #B03746",
"+@	c #D6576D",
"@@	c #926372",
"#@	c #964E5D",
"$@	c #362728",
"%@	c #352728",
"&@	c #784553",
"*@	c #A56278",
"=@	c #B46B85",
"-@	c #523037",
";@	c #3F2B2E",
">@	c #95596C",
",@	c #C2879D",
"'@	c #513C42",
")@	c #2A2020",
"!@	c #5D262D",
"~@	c #702832",
"{@	c #863D49",
"]@	c #BB7083",
"^@	c #902A34",
"/@	c #802933",
"(@	c #8B2C38",
"_@	c #BA3B4B",
":@	c #B03847",
"<@	c #CB4B5E",
"[@	c #DC5A71",
"}@	c #7C5662",
"|@	c #BC5F72",
"1@	c #693B46",
"2@	c #894E5F",
"3@	c #A7647A",
"4@	c #824C5D",
"5@	c #482E33",
"6@	c #895061",
"7@	c #9D5F72",
"8@	c #593942",
"9@	c #794B5A",
"0@	c #251C1C",
"a@	c #382526",
"b@	c #6E2831",
"c@	c #7C2933",
"d@	c #822934",
"e@	c #8D2934",
"f@	c #862930",
"g@	c #A42C36",
"h@	c #B73948",
"i@	c #D55267",
"j@	c #D24F64",
"k@	c #B64354",
"l@	c #573E45",
"m@	c #63383F",
"n@	c #3E292D",
"o@	c #6C3B47",
"p@	c #8E5264",
"q@	c #945769",
"r@	c #5D343F",
"s@	c #764350",
"t@	c #915567",
"u@	c #56373F",
"v@	c #9E6075",
"w@	c #623E49",
"x@	c #2D2222",
"y@	c #432528",
"z@	c #342526",
"A@	c #7B2832",
"B@	c #862934",
"C@	c #882934",
"D@	c #723138",
"E@	c #612B30",
"F@	c #892A34",
"G@	c #B13542",
"H@	c #BC3C4C",
"I@	c #C64658",
"J@	c #AE323E",
"K@	c #843039",
"L@	c #352627",
"M@	c #733B45",
"N@	c #553139",
"O@	c #784250",
"P@	c #905365",
"Q@	c #8E5364",
"R@	c #72404D",
"S@	c #874D5D",
"T@	c #69414B",
"U@	c #9D6579",
"V@	c #9B5E73",
"W@	c #3C2527",
"X@	c #5E272A",
"Y@	c #352626",
"Z@	c #C3879B",
"`@	c #B04856",
" #	c #98303A",
".#	c #992B35",
"+#	c #922A35",
"@#	c #84292F",
"##	c #582729",
"$#	c #8F343F",
"%#	c #843C47",
"&#	c #9C4E5D",
"*#	c #482D30",
"=#	c #6E3E4A",
"-#	c #8C5061",
";#	c #864C5C",
">#	c #9A5F71",
",#	c #E3A4BD",
"'#	c #C37E97",
")#	c #442E33",
"!#	c #452529",
"~#	c #61272B",
"{#	c #58262B",
"]#	c #65292D",
"^#	c #983E4C",
"/#	c #5B3238",
"(#	c #5F2F35",
"_#	c #65272E",
":#	c #4F262A",
"<#	c #412628",
"[#	c #402627",
"}#	c #902A31",
"|#	c #AB303C",
"1#	c #B83B4B",
"2#	c #8B4955",
"3#	c #B95B6D",
"4#	c #432C2F",
"5#	c #814A59",
"6#	c #9D5E71",
"7#	c #925567",
"8#	c #DE9BB5",
"9#	c #D58EA9",
"0#	c #5E3C46",
"a#	c #362526",
"b#	c #63272C",
"c#	c #802931",
"d#	c #863039",
"e#	c #C44456",
"f#	c #94343F",
"g#	c #372626",
"h#	c #595244",
"i#	c #494238",
"j#	c #64272E",
"k#	c #892934",
"l#	c #882A31",
"m#	c #8B4954",
"n#	c #9A5A68",
"o#	c #954A59",
"p#	c #714350",
"q#	c #A56478",
"r#	c #C17C94",
"s#	c #CB809B",
"t#	c #7A4B5A",
"u#	c #392526",
"v#	c #73282F",
"w#	c #972B36",
"x#	c #A42E39",
"y#	c #7D2832",
"z#	c #544E41",
"A#	c #938E71",
"B#	c #989176",
"C#	c #57272C",
"D#	c #7A2833",
"E#	c #872933",
"F#	c #B73B4A",
"G#	c #73434C",
"H#	c #663941",
"I#	c #6B424D",
"J#	c #DE9DB6",
"K#	c #E8A2BE",
"L#	c #8B5568",
"M#	c #302425",
"N#	c #55262C",
"O#	c #442627",
"P#	c #982A34",
"Q#	c #832933",
"R#	c #422628",
"S#	c #4D463B",
"T#	c #817C63",
"U#	c #C1BB95",
"V#	c #E0D8B9",
"W#	c #412E2D",
"X#	c #732832",
"Y#	c #8C2934",
"Z#	c #8D2A34",
"`#	c #93323C",
" $	c #A44A59",
".$	c #5A4148",
"+$	c #F3B0CB",
"@$	c #A56A7F",
"#$	c #322626",
"$$	c #261D1D",
"%$	c #752831",
"&$	c #4A4339",
"*$	c #7E7961",
"=$	c #A6A17F",
"-$	c #D8D1AB",
";$	c #CFC7AD",
">$	c #442729",
",$	c #722832",
"'$	c #872934",
")$	c #9B2B35",
"!$	c #B93A4A",
"~$	c #C54C5F",
"{$	c #87616E",
"]$	c #B8869A",
"^$	c #D18DA7",
"/$	c #402D30",
"($	c #3B2627",
"_$	c #4C453A",
":$	c #7D7860",
"<$	c #9E9878",
"[$	c #CBC59F",
"}$	c #ECE4C4",
"|$	c #665F54",
"1$	c #59262D",
"2$	c #88424F",
"3$	c #B56E80",
"4$	c #A6303C",
"5$	c #C74658",
"6$	c #DA5970",
"7$	c #C26B7F",
"8$	c #AB7B8D",
"9$	c #A5677D",
"0$	c #504A3E",
"a$	c #817C62",
"b$	c #9A9575",
"c$	c #C4BE98",
"d$	c #ECE5C4",
"e$	c #857F6F",
"f$	c #523136",
"g$	c #D999B0",
"h$	c #9A4B59",
"i$	c #A6323E",
"j$	c #CA485B",
"k$	c #D96277",
"l$	c #C17388",
"m$	c #804D5C",
"n$	c #895466",
"o$	c #2D2323",
"p$	c #2F2525",
"q$	c #423A33",
"r$	c #403832",
"s$	c #706A55",
"t$	c #8E896C",
"u$	c #BEB892",
"v$	c #ECE4C3",
"w$	c #A9A28D",
"x$	c #3E2527",
"y$	c #4F252B",
"z$	c #72424B",
"A$	c #A34350",
"B$	c #9F2F3A",
"C$	c #B33644",
"D$	c #BD6374",
"E$	c #51363B",
"F$	c #8F576A",
"G$	c #422D32",
"H$	c #3C342F",
"I$	c #322726",
"J$	c #362D2A",
"K$	c #686250",
"L$	c #827D63",
"M$	c #5C5646",
"N$	c #7B755C",
"O$	c #ABA582",
"P$	c #DDD6B3",
"Q$	c #C8C0A7",
"R$	c #3A2B2A",
"S$	c #55242C",
"T$	c #82333E",
"U$	c #C17487",
"V$	c #D67D92",
"W$	c #C04657",
"X$	c #BB3C4C",
"Y$	c #7F3C45",
"Z$	c #402C30",
"`$	c #75441E",
" %	c #6E3F1D",
".%	c #50493D",
"+%	c #7F7960",
"@%	c #736E57",
"#%	c #5A5345",
"$%	c #A19B7A",
"%%	c #837E63",
"&%	c #A8A380",
"*%	c #BBB493",
"=%	c #9A937F",
"-%	c #382C2B",
";%	c #3B2527",
">%	c #762B32",
",%	c #96404B",
"'%	c #8D3841",
")%	c #872F38",
"!%	c #652C31",
"~%	c #63373E",
"{%	c #5A343A",
"]%	c #6C3F1C",
"^%	c #75431E",
"/%	c #5F5949",
"(%	c #878266",
"_%	c #9A9573",
":%	c #BAB58E",
"<%	c #9A9475",
"[%	c #7C775D",
"}%	c #494137",
"|%	c #6A6352",
"1%	c #352B29",
"2%	c #52242B",
"3%	c #4D242A",
"4%	c #492629",
"5%	c #492628",
"6%	c #853742",
"7%	c #773A44",
"8%	c #6E401D",
"9%	c #554F41",
"0%	c #847F65",
"a%	c #8B866A",
"b%	c #A5A07C",
"c%	c #78735C",
"d%	c #666250",
"e%	c #77725B",
"f%	c #938D70",
"g%	c #D7D0AE",
"h%	c #39302D",
"i%	c #2C2121",
"j%	c #432628",
"k%	c #3C342E",
"l%	c #736E59",
"m%	c #807B62",
"n%	c #908B6D",
"o%	c #4E483D",
"p%	c #67614E",
"q%	c #898468",
"r%	c #B3AD89",
"s%	c #E2DAB9",
"t%	c #281E1E",
"u%	c #3E3630",
"v%	c #5C5545",
"w%	c #494138",
"x%	c #9A9574",
"y%	c #BFB992",
"z%	c #EBE3C2",
"A%	c #3B322F",
"B%	c #271E1E",
"C%	c #5C5747",
"D%	c #898469",
"E%	c #BEB993",
"F%	c #C8C29B",
"G%	c #F7EFCF",
"H%	c #3F3632",
"I%	c #716B55",
"J%	c #BFB994",
"K%	c #E5DDB6",
"L%	c #CBC4AA",
"M%	c #332827",
"N%	c #392F2C",
"O%	c #453D36",
"P%	c #332928",
"Q%	c #76441E",
"R%	c #77441F",
"S%	c #75441F",
"                                                                                                                                ",
"                                                                                                                                ",
"                                                                                                                          . +   ",
"                                                                                                                        @ # $   ",
"                                                                                                                        @ # %   ",
"                                                                                                                          & +   ",
"                                                                                                                                ",
"                                                                                                                                ",
"                          * = - &                                                                                               ",
"                        ; > , ' ) !                                                                                             ",
"                        ~ ' ' ' ' ) .                                                                                           ",
"                      * { ' ' ' ' ' !                                                                                           ",
"                        ] ' ' ' ' ' -                                                                                           ",
"                        - , ' ' ' ^ +                                                 / ( /                                     ",
"                          _ { : $ &                                                   < [ } / / /                               ",
"                            * *                                                       | 1 2 3 4 5                               ",
"                                                                                    6 7 8 9 0 a b /                             ",
"                                                                    / / / c c / / / / d e f g h i           + j *               ",
"                                                          / / / / k l m n o p q r s t u v w / x u       + y z # : !             ",
"                                                      / c A B C D E F G H I J K L M N O P Q R           ~ ' ' ' ' , S           ",
"                                                / / k T U V W X Y Z `  ...+.@.#.$.%.&.*.=.-.          + ) ' ' ' ' ' ;.*         ",
"                                            / k >.,.'.'.).!.~.{.].^./.(._.+.:.<.[.}.|.1.2.3.          & # ' ' ' ' ' 4.*         ",
"                                          / 5.6.,.'.).7.Y 8.9.0.+.+.a.+.+.+.b.c.d.e.f.g.h.u           + i.' ' ' ' ' ]           ",
"                                          / j.k.l.m.5.n.o.p.q.r.+.+.+.+.+.s.t.u.v.w.x.y.z./             A., ' ' ' # B.          ",
"                                        6 C.D.E.F.G.H.I.J.K.L.M.0.+.+.+.N.O.P.Q.R.S.T.M U./               ! ^ z ] B.            ",
"                                      V.W.X.Y.Z.`. +.+++@+#+$+%+&+*++.=+t.-+;+>+,+r.'+)+!+                  * *                 ",
"                                      W.~+{+]+^+/+(+_+:+<+[+}+|+1+Y S.2+3+4+5+6+7+8+9+0+u                                       ",
"                                      a+b+c+d+e+f+g+h+i+j+k+l+m+n+o+S.p+q+r+s+t+:.u+v+w+/                                       ",
"                                    . 3.x+y+z+A+B+C+D+E+F+G+H+I+J+K+L+M+N+O+P+2+Q+R+S+T+                                        ",
"                                  + ^ 6 W.U+V+W+X+Y+Z+`+ @.@+@@@#@$@/ %@&@*@=@-@;@>@,@'@/                                       ",
"                                  = )@/ !@~@{@]@^@/@(@_@:@<@[@}@|@/ c 1@2@3@4@5@6@7@8@9@/                                       ",
"                                  0@a@y+b@c@d@e@f@g+g@h@i@j@k@l@m@/ n@o@p@q@r@s@t@u@v@w@                                        ",
"                                  x@y@z@A@B@C@D@E@F@G@H@I@J@K@L@M@$@N@O@P@Q@R@S@T@U@V@L+                                        ",
"                                    / c a+W@X@Y@Z@`@ #.#+#@###$#%#&#*#=#-#Q@;#>#,#'#)#                                          ",
"                                    y+!#~#{#]#^#/#(#_#:#<#[#}#|#1#2#3#4#5#6#7#8#9#0#/                                           ",
"                                    a#a@b#c#d#e#f#y+g#h#i#j#B@k#l#m#n#o#p#q#r#s#t#/                                             ",
"                                    V.W.u#v#w#x#y#u#z#A#B#C#D#X+E#F#G#H#I#J#K#L#L+                                              ",
"                                      M#N#O#P#Q#R#S#T#U#V#W#X#Y#Z#`# $.$G +$@$#$                                                ",
"                                      $$c y+%$R#&$*$=$-$;$>$,$'$)$!$~${$]$^$/$                                                  ",
"                                        V.a+($_$:$<$[$}$|$1$2$3$4$5$6$7$8$9$/                                                   ",
"                                        -./ 0$a$b$c$d$e$D.f$g$h$i$j$k$l$m$n$/                                                   ",
"                                / o$o$p$q$r$s$t$u$v$w$x$y$z$A$B$C$H@D$E$F$G$                                                    ",
"                              u H$I$J$K$L$M$N$O$P$Q$R$S$X.T$U$V$W$X$Y$c Z$                  `$y  %! j                           ",
"                              .%1 +%@%#%$%%%&%*%=%-%a@;%y+>%,%'%)%!%~%{%/               + ]%, ' ' ' i.^%                        ",
"                            V./%(%_%:%3 <%[%}%|%1%W@2%3%y+4%E.z@5%6%7%/                 8%' ' ' ' ' ' ) .                       ",
"                            )@9%0%a%b%c%d%e%f%g%h%i%/ 6 / j%c -.-.x@o$                j ) ' ' ' ' ' ' '  %                      ",
"                            0@k%l%m%n%o%p%q%r%s%h%        t%                          ^%, ' ' ' ' ' ' ' ;.*                     ",
"                              3.u%h#v%w%L$x%y%z%A%                                    ^%, ' ' ' ' ' ' ' ;.                      ",
"                                B%)@6 C%D%E%F%G%H%                                    ; ) ' ' ' ' ' ' ' ~                       ",
"                                      < I%J%K%L%M%                                      ~ ' ' ' ' ' ' i.&                       ",
"                                        3.N%O%P%                                        +  %# ' ' ' : Q%                        ",
"        ; ! ! j                                                                             R%A.y @ ;                           ",
"      * ] ' ' ^ +                                                                                                               ",
"      & # ' ' , S%                                                                                                              ",
"      ; z ' ' # &                                                                                                               ",
"        - ^ : @                                                                                                                 ",
"          * *                                                                                                                   ",
"                                                                                                                                ",
"                                                                                                                                ",
"                                                                                                                                ",
"                                                                                                                                ",
"                                                                                                                                ",
"                                                                                                                                ",
"                                                                                                                                "};
