/* XPM */
static char * sol_xpm[] = {
"64 64 42 1",
" 	c #7B4720",
".	c #77451F",
"+	c #7A4620",
"@	c #73421E",
"#	c #643A1B",
"$	c #6C3E1D",
"%	c #6D3E1D",
"&	c #78451F",
"*	c #7A4720",
"=	c #76441F",
"-	c #74431E",
";	c #794620",
">	c #6B3E1C",
",	c #64391B",
"'	c #63391B",
")	c #653A1B",
"!	c #72421E",
"~	c #6F401D",
"{	c #693C1C",
"]	c #6A3D1C",
"^	c #683C1C",
"/	c #73431E",
"(	c #673B1C",
"_	c #79461F",
":	c #70401D",
"<	c #663A1B",
"[	c #74421E",
"}	c #693D1C",
"|	c #663B1C",
"1	c #663B1B",
"2	c #71411E",
"3	c #75431F",
"4	c #6B3E1D",
"5	c #72411E",
"6	c #75441E",
"7	c #6E3F1D",
"8	c #6C3F1C",
"9	c #75431E",
"0	c #6E401D",
"a	c #76441E",
"b	c #77441F",
"c	c #75441F",
"                                                                ",
"                                                                ",
"                                                             .+ ",
"                                                            @#$ ",
"                                                            @#% ",
"                                                             &+ ",
"                                                                ",
"                                                                ",
"             *=-&                                               ",
"            ;>,')!                                              ",
"            ~'''').                                             ",
"           *{'''''!                                             ",
"            ]'''''-                                             ",
"            -,'''^+                                             ",
"             /{($&                                              ",
"              **                                                ",
"                                                                ",
"                                                      +_*       ",
"                                                    +:<#(!      ",
"                                                    ~'''',[     ",
"                                                   +)'''''}*    ",
"                                                   &#'''''|*    ",
"                                                   +1''''']     ",
"                                                    2,'''#3     ",
"                                                     !^<]3      ",
"                                                      **        ",
"                                                                ",
"                                                                ",
"                  .$]2                                          ",
"                 +^'',!                                         ",
"                 =,'''4                                         ",
"                 &)'''~                                         ",
"                  5)#}_                                         ",
"                   ;&*                                          ",
"                                                                ",
"                                                                ",
"                                                                ",
"                                                                ",
"                                                                ",
"                                                                ",
"                                                                ",
"                                                                ",
"                                              6:7!_             ",
"                                            +8,'''19            ",
"                                            0'''''').           ",
"                                           _)'''''''7           ",
"                                           9,'''''''}*          ",
"                                           9,'''''''}           ",
"                                           ;)'''''''~           ",
"                                            ~''''''1&           ",
"                                            +7#'''(a            ",
"    ;!!_                                      b2:@;             ",
"   *]''^+                                                       ",
"   &#'',c                                                       ",
"   ;<''#&                                                       ",
"    -^(@                                                        ",
"     **                                                         ",
"                                                                ",
"                                                                ",
"                                                                ",
"                                                                ",
"                                                                ",
"                                                                ",
"                                                                "};
