/* XPM */
static char *c5deebe8d79447fb9bfee0766cd45a9d06RMBWUrExHGLzft[] = {
/* columns rows colors chars-per-pixel */
"160 32 200 2 ",
"   c None",
".  c black",
"X  c #010101",
"o  c #020202",
"O  c gray1",
"+  c #040404",
"@  c gray2",
"#  c #060606",
"$  c #070707",
"%  c gray3",
"&  c #090909",
"*  c gray4",
"=  c #0B0B0B",
"-  c #0C0C0C",
";  c gray5",
":  c #0E0E0E",
">  c gray6",
",  c #1C0000",
"<  c #101010",
"1  c #111111",
"2  c #131313",
"3  c gray8",
"4  c #151515",
"5  c #161616",
"6  c #181818",
"7  c #191919",
"8  c gray10",
"9  c #1B1B1B",
"0  c gray11",
"q  c #1D1D1D",
"w  c gray12",
"e  c #230000",
"r  c #240000",
"t  c #250000",
"y  c #260000",
"u  c #320000",
"i  c #370000",
"p  c #390000",
"a  c #3C0000",
"s  c #3E0000",
"d  c #202020",
"f  c gray13",
"g  c #222222",
"h  c #232323",
"j  c gray14",
"k  c #252525",
"l  c gray15",
"z  c #272727",
"x  c #282828",
"c  c gray16",
"v  c gray17",
"b  c #2C2C2C",
"n  c #2D2D2D",
"m  c #2F2F2F",
"M  c #313131",
"N  c #323232",
"B  c gray20",
"V  c #343434",
"C  c #353535",
"Z  c gray21",
"A  c gray22",
"S  c #393939",
"D  c #3A3A3A",
"F  c gray23",
"G  c #3C3C3C",
"H  c gray24",
"J  c #3E3E3E",
"K  c #3F3F3F",
"L  c #4F0000",
"P  c #620000",
"I  c #680000",
"U  c #770000",
"Y  c #7E0000",
"T  c gray25",
"R  c #414141",
"E  c gray26",
"W  c #434343",
"Q  c #444444",
"!  c gray27",
"~  c #464646",
"^  c gray28",
"/  c #484848",
"(  c #494949",
")  c gray29",
"_  c #4B4B4B",
"`  c #4C4C4C",
"'  c gray30",
"]  c #4E4E4E",
"[  c gray31",
"{  c #505050",
"}  c #515151",
"|  c gray32",
" . c #535353",
".. c gray33",
"X. c #555555",
"o. c #565656",
"O. c gray34",
"+. c #585858",
"@. c gray35",
"#. c #5A5A5A",
"$. c #5B5B5B",
"%. c gray36",
"&. c #5D5D5D",
"*. c gray37",
"=. c #5F5F5F",
"-. c #606060",
";. c gray38",
":. c #626262",
">. c gray39",
",. c #646464",
"<. c #656565",
"1. c gray40",
"2. c #676767",
"3. c #686868",
"4. c DimGray",
"5. c #6A6A6A",
"6. c gray42",
"7. c #6C6C6C",
"8. c #6D6D6D",
"9. c gray43",
"0. c #6F6F6F",
"q. c gray44",
"w. c #717171",
"e. c #727272",
"r. c gray45",
"t. c #747474",
"y. c gray46",
"u. c #767676",
"i. c #777777",
"p. c gray47",
"a. c #797979",
"s. c gray48",
"d. c #7B7B7B",
"f. c #7C7C7C",
"g. c gray49",
"h. c #7E7E7E",
"j. c #8D0000",
"k. c #960000",
"l. c #9A0000",
"z. c #808080",
"x. c #818181",
"c. c gray51",
"v. c #838383",
"b. c #848484",
"n. c gray52",
"m. c #868686",
"M. c gray53",
"N. c #898989",
"B. c gray54",
"V. c #8B8B8B",
"C. c gray55",
"Z. c gray56",
"A. c #909090",
"S. c gray57",
"D. c #929292",
"F. c #939393",
"G. c gray58",
"H. c #959595",
"J. c gray59",
"K. c #979797",
"L. c #989898",
"P. c gray60",
"I. c #9A9A9A",
"U. c #9F9F9F",
"Y. c gray63",
"T. c #A5A5A5",
"R. c #A7A7A7",
"E. c #A9A9A9",
"W. c #ACACAC",
"Q. c #AFAFAF",
"!. c #B1B1B1",
"~. c gray70",
"^. c #B4B4B4",
"/. c gray71",
"(. c #B6B6B6",
"). c gray72",
"_. c #BCBCBC",
"`. c gray",
"'. c #C1C1C1",
"]. c gray76",
"[. c #C3C3C3",
"{. c #C5C5C5",
"}. c #C6C6C6",
"|. c #CACACA",
" X c #D0D0D0",
".X c gray82",
"XX c LightGray",
"oX c #D5D5D5",
"OX c #D8D8D8",
"+X c #DADADA",
"@X c gray86",
"#X c gray89",
"$X c #E7E7E7",
"%X c gray91",
"&X c #EAEAEA",
"*X c gray94",
"=X c #F3F3F3",
"-X c #F8F8F8",
";X c #F9F9F9",
":X c #FEFEFE",
/* pixels */
"                                                                                                                                                                                                                                                                                                                                ",
"                                                                                                                                                . . . . . .                                                                                                                                                                     ",
"                                                                                                                                              . . . = . . . . . . . . .                                                                                                                                                         ",
"                                                                                                                                            . . 2 F ( *.( F l 5 # . . . . . . . .                                                                                                                                               ",
"                    . . .                                                                                                               . . . l V N N ( 1.1.1.1.1.X.~ N g - . . . . . . . . .                                                                                                                                   ",
"              . . . . . . . . . .                                                                                                     . . . V N N N N N ( 1.1.1.1.1.1.1.1.1.>.` K c 9 # . . . . . . . .                                                                                                                         ",
"          . . . q V W ` | | | N . . .                                                                                               . . 2 F N N N N N N N ( 1.1.1.1.1.1.1.1.1.1.1.1.1.1.#.( V l 2 . . . . . . . . .                                                                                                             ",
"        . . q ~ ` ` ` ` ` ` ` *.>.N . .                                                                                         . . . l V N N N N N N N N N | 1.1.1.1.1.1.1.1.1.1.1.1.1.1.1.1.1.1.>.| W m q = . . . . . . . . .                                                                                                 ",
"      . . N ` ` ` ` ` ` ` ` ` ` X.1.` . .                                                                                     . . . V N V N N N N N N N N N V 1.1.1.1.1.1.1.1.1.1.1.1.1.1.1.1.1.1.1.1.1.1.1.1.*.( F c 5 # . . . . . . . .                                                                                       ",
"    . . V ` ` ` ` ` ` ` ` ` ` ` ` X.1.` . .                                                                                 . . - F N N V N N N N N N N N N N F r.1.1.1.1.1.1.1.1.1.1.1.1.1.1.1.1.1.1.1.1.1.1.1.1.1.1.1.1.#.` ~ K m . . . . . . . . .                                                                           ",
"    . g ` ` ` X.*.` l = - 9 V ` ` ` #.1.V .                                                                             . . . g V V N N N N N N V N N N N N N N ~ f.1.1.1.1.1.1.1.1.1.1.1.1.1.1.1.1.1.1.1.1.1.1.1.1.1.1.1.1.1.1.1.6.f.t.9.6.| 9 . . . . . . . .                                                                 ",
"  . # ( ` ` *.>.l . . . . . . 5 ( ` ` >.>.# . . . . . . . . . . . . . . . . . . . . . . . . . . . . . . . . . . . . . . . . . m N N N N N N N N V N V V N N N N N #.v.1.1.1.1.1.1.1.1.1.1.1.1.1.1.1.1.1.1.1.1.1.1.1.1.1.1.1.1.1.1.1.1.1.1.1.r.D.P.J.C.r.K # . . . . . . . .                                                     ",
"  . l ` ` *.1.g . .         . . 5 ` ` #.1.F . e p p p p p p p p p p p p p p p p p p p p p p p p p p p p p p p p p p p p p t . m N N N N N N N N N N V N N N N N N N 9.m.6.1.1.1.1.1.1.1.1.1.1.1.1.1.1.1.1.1.1.1.1.1.1.1.1.1.1.1.1.1.1.1.1.1.1.1.1.1.1.p.P././.~.D.*.l . . . . . . . . .                                         ",
"  . K ` X.1.( .               . . N ` | 1.#.. i Y Y Y Y Y Y Y Y Y Y Y Y Y Y Y Y Y Y Y Y Y Y Y Y Y Y Y Y Y Y Y Y Y Y Y Y Y L . m N N N N V N N N N V V N N N N N N N V v.m.6.1.1.1.1.1.1.1.1.1.1.1.1.1.1.1.1.1.1.1.1.1.1.1.1.1.1.1.1.1.1.1.1.1.1.1.1.1.1.1.1.1.6.v.Y.].oX.XQ.f.( - . . . . . . . .                               ",
". . ` ` *.1.9 .                 . 2 ` ` 1.1.. t Y Y Y Y Y Y Y Y Y Y Y Y Y Y Y Y Y Y Y Y Y Y Y Y Y Y Y Y Y Y Y Y Y Y Y Y Y L . m N N N V N N N N N N N N N N N N N N N K C.V.6.1.1.1.1.1.1.1.1.1.1.1.1.1.1.1.1.1.1.1.1.1.1.1.1.1.1.1.1.1.1.1.1.1.1.1.1.1.1.1.1.1.1.1.1.1.6.V.E.|.%X%X].P.6.N . . . . . . . . .                   ",
". = ` ` 1.1.. .                 . # ` ` >.1.= , Y Y Y Y Y Y Y Y Y Y Y Y Y Y Y Y Y Y Y Y Y Y Y Y Y Y Y Y Y Y Y Y Y Y Y Y Y L . m N N V V N N N N N N N N N N N N N N N N ( J.C.v.v.f.f.p.p.p.t.t.r.r.r.9.9.6.6.1.1.1.1.1.1.1.1.1.1.1.1.1.1.1.1.1.1.1.1.1.1.1.1.1.1.1.1.1.1.1.1.1.1.r.D.~..X*X-XOX/.m.| 9 . . . . . . . . .       ",
". - ` ` 1.1.. .                 . . ` ` >.1.- t k.k.k.k.k.k.k.k.k.k.k.k.k.k.k.k.k.k.k.k.k.k.k.k.k.k.k.k.k.k.k.k.k.k.k.k.k.U . m N N N N N N N N N N N N N N N N N N N N V v.P.P.J.J.D.C.V.m.v.v.f.p.t.t.r.9.6.1.>.*.#.| | | | | | | | | | | | | | | | | | | | | | | | | | | | | | | #.f.Y.{.-X:X$X{.U.9.9 . . . . . . . . .     ",
". # ` ` >.1.- .                 . - ` ` >.1.. u l.l.l.l.l.l.l.l.l.l.l.l.l.l.l.l.l.l.l.l.l.l.l.l.l.l.l.l.l.l.l.l.l.l.l.l.l.Y . m N N N N N N N N N N N N N N N N N N N N 6.J.>.` ` ` ` ` ` ` ` ` ` ` ` ` ` ` ` ` ` ` ` ` ` ` ` ` ` ` ` ` ` ` ` ` ` ` ` ` ` ` ` ` ` ` ` ` ` | t.P._.#X*X.XQ.m.` 2 . . . . . . . .                 ",
". . ~ ` #.1.K .                 . l ` ` 1.*.. a j.j.j.j.j.j.j.j.j.j.j.j.j.j.j.j.j.j.j.j.j.j.j.j.j.j.j.j.j.j.j.j.j.j.j.j.j.I . m N N N N N N N N N V N N N N V N N N N #.J.>.` ` ` ` ` ` ` ` ` ` ` ` ` ` ` ` ` ` ` ` ` ` ` ` ` ` ` ` ` ` ` ` ` ` ` ` ` ` ` ` ` ` | 9.D.).OXOX_.J.1.c . . . . . . . . .                           ",
"  . m ` ` >.>.= .             . # ( ` X.1.( . i P P P P P P P P P P P P P P P P P P P P P P P P P P P P P P P P P P P P P a . m N N N N N V V V N V N N N N V N N N ( D.*.` ` ` ` ` ` ` ` ` ` ` ` ` ` ` ` ` ` ` ` ` ` ` ` ` ` ` ` ` ` ` ` ` ` ` ` ` ` ` 1.C.~.].].R.p.W # . . . . . . . .                                       ",
"  . - ` ` | 1.#.= . .     . . # K ` ` >.1.5 . . . . . . . . . . . . . . . . . . . . . . . . . . . . . . . . . . . . . . . . . m N N N N N N N N N N N N N N N N N W V.*.` ` ` ` ` ` ` ` ` ` ` ` ` ` ` ` ` ` ` ` ` ` ` ` ` ` ` ` ` ` ` ` ` ` ` >.m.Y.R.E.V.#.9 . . . . . . . .                                                   ",
"  . . N ` ` ` *.*.N # . . . q ~ ` ` X.1.` . .                                                                           . . . N N N N N N N N N N N N N N N N N F v.#.` ` ` ` ` ` ` ` ` ` ` ` ` ` ` ` ` ` ` ` ` ` ` ` ` ` ` ` ` ` ` #.f.V.V.V.9.V . . . . . . . . .                                                             ",
"    . # W ` ` ` ` | ` W W ( ` ` ` | 1.*.# .                                                                               . . . g V N N N V N N N N N N N N N V r.#.` ` ` ` ` ` ` ` ` ` ` ` ` ` ` ` ` ` ` ` ` ` ` ` ` ` ` X.6.9.9.1.( - . . . . . . . .                                                                         ",
"      . = W ` ` ` ` ` ` ` ` ` ` | >.>.2 .                                                                                     . . - F N N N N N N N N N N N N >.X.` ` ` ` ` ` ` ` ` ` ` ` ` ` ` ` ` ` ` ` ` ` ` ` | ` ( K g . . . . . . . . .                                                                                   ",
"        . # V ` ` ` ` ` ` ` ` X.>.| = .                                                                                         . . . V N N N N N N N N N N | X.` ` ` ` ` ` ` ` ` ` ` ` ` ` ` ` ` ` ` ` ( W N 9 . . . . . . . . .                                                                                               ",
"          . . 5 V ( ` ` ` X.*.| g . .                                                                                             . . . g V N N N N V N N W | ` ` ` ` ` ` ` ` ` ` ` ` ` ` ` ` ~ F l = . . . . . . . .                                                                                                           ",
"            . . . . - q c q . . . .                                                                                                   . . - F N N N N N F ` ` ` ` ` ` ` ` ` ` ` ` ( K m 5 . . . . . . . . .                                                                                                                     ",
"                  . . . . . .                                                                                                           . . . V N N N F ` ` ` ` ` ` ` ` W V q # . . . . . . . .                                                                                                                                 ",
"                                                                                                                                          . . . l V F ` ` ` ~ F c - . . . . . . . . .                                                                                                                                           ",
"                                                                                                                                              . . 2 m 9 . . . . . . . . .                                                                                                                                                       ",
"                                                                                                                                                . . . . . . .                                                                                                                                                                   ",
"                                                                                                                                                                                                                                                                                                                                "
};
