/* XPM */
static char * kunai_xpm[] = {
"64 64 282 2",
"  	c #7C9BFA",
". 	c #8393FB",
"+ 	c #7C93FC",
"@ 	c #849BFA",
"# 	c #8B93FB",
"$ 	c #9B9AF7",
"% 	c #749BFA",
"& 	c #7493FB",
"* 	c #838CFC",
"= 	c #7C84FD",
"- 	c #6D6CFA",
"; 	c #6A5CF5",
"> 	c #7C74FC",
", 	c #829DFA",
"' 	c #6C7BFC",
") 	c #7C8BFD",
"! 	c #8384FD",
"~ 	c #7483FC",
"{ 	c #83A4F6",
"] 	c #8CA1F9",
"^ 	c #929BF9",
"/ 	c #8DB1F2",
"( 	c #7BABF5",
"_ 	c #65B3EF",
": 	c #64A4F6",
"< 	c #7CB9F1",
"[ 	c #7CBCEE",
"} 	c #7BA5F7",
"| 	c #849BF6",
"1 	c #8BA3F7",
"2 	c #8B9BFA",
"3 	c #8B8CFC",
"4 	c #7C7CFD",
"5 	c #837CFD",
"6 	c #8B84FC",
"7 	c #6D93FA",
"8 	c #748BFC",
"9 	c #8474FD",
"0 	c #7474FC",
"a 	c #6C74FC",
"b 	c #5C6DF7",
"c 	c #9494FA",
"d 	c #8595F6",
"e 	c #7CA2F9",
"f 	c #908CF5",
"g 	c #74A3F9",
"h 	c #6DB5F0",
"i 	c #7CB3F2",
"j 	c #83B3F2",
"k 	c #84AAF6",
"l 	c #9283FB",
"m 	c #938BFB",
"n 	c #747CFC",
"o 	c #9A7CFA",
"p 	c #6C8BFB",
"q 	c #6374FA",
"r 	c #6BACF4",
"s 	c #72ABF5",
"t 	c #000000",
"u 	c #86A7F6",
"v 	c #8B7CFC",
"w 	c #83A3F9",
"x 	c #8B74FC",
"y 	c #9373FB",
"z 	c #7B6CFC",
"A 	c #656BF9",
"B 	c #A274F9",
"C 	c #92A4F7",
"D 	c #6DA2F8",
"E 	c #746CFB",
"F 	c #836CFC",
"G 	c #7464FA",
"H 	c #8464FA",
"I 	c #6381F7",
"J 	c #90A2F9",
"K 	c #9B6BF9",
"L 	c #88A9F9",
"M 	c #6CA3F6",
"N 	c #6C83FC",
"O 	c #7C64FA",
"P 	c #735DF9",
"Q 	c #121212",
"R 	c #070707",
"S 	c #6C55F6",
"T 	c #7454F5",
"U 	c #7C4CF4",
"V 	c #8554F6",
"W 	c #845DF9",
"X 	c #8B64FA",
"Y 	c #9B8BFA",
"Z 	c #648BFA",
"` 	c #9A74FA",
" .	c #7461F7",
"..	c #725BF6",
"+.	c #7C5DF9",
"@.	c #8B5CF9",
"#.	c #9AA6F5",
"$.	c #2C2C2C",
"%.	c #3B3B3B",
"&.	c #181818",
"*.	c #8B6CFB",
"=.	c #845CF5",
"-.	c #9A62F6",
";.	c #9B83FA",
">.	c #5D7CFA",
",.	c #787BF7",
"'.	c #966BF6",
").	c #A46BF5",
"!.	c #937BFB",
"~.	c #9B8AF7",
"{.	c #9B93F8",
"].	c #769CF6",
"^.	c #0B0B0B",
"/.	c #505050",
"(.	c #373737",
"_.	c #A47DF5",
":.	c #A672F7",
"<.	c #9A65F9",
"[.	c #9364F9",
"}.	c #7D5BF6",
"|.	c #6C64F9",
"1.	c #6163F6",
"2.	c #A35DF5",
"3.	c #7A9EF6",
"4.	c #5D95F6",
"5.	c #141414",
"6.	c #565656",
"7.	c #404040",
"8.	c #232323",
"9.	c #935EF8",
"0.	c #8D57F8",
"a.	c #8345F2",
"b.	c #8A4CF3",
"c.	c #834CF3",
"d.	c #936BFA",
"e.	c #945CF6",
"f.	c #9B5DF6",
"g.	c #9B54F2",
"h.	c #A254F1",
"i.	c #6A9DF5",
"j.	c #1E1E1E",
"k.	c #686868",
"l.	c #5E5E5E",
"m.	c #3F3F3F",
"n.	c #0E0E0E",
"o.	c #8C63F7",
"p.	c #9454F5",
"q.	c #7241EE",
"r.	c #8F43EE",
"s.	c #6948EF",
"t.	c #8B53F5",
"u.	c #8355F8",
"v.	c #924DF3",
"w.	c #A54CEC",
"x.	c #647BFB",
"y.	c #2B2B2B",
"z.	c #313131",
"A.	c #4B4B4B",
"B.	c #676767",
"C.	c #606060",
"D.	c #5B5B5B",
"E.	c #9E6BF6",
"F.	c #7A67F6",
"G.	c #943FED",
"H.	c #A643E9",
"I.	c #A755ED",
"J.	c #A354EF",
"K.	c #7B83F6",
"L.	c #8467F6",
"M.	c #8C75F6",
"N.	c #9173F7",
"O.	c #A63FE6",
"P.	c #9A4DF1",
"Q.	c #6553F3",
"R.	c #6D4BF2",
"S.	c #4C4C4C",
"T.	c #896CF7",
"U.	c #252525",
"V.	c #9899FB",
"W.	c #7E57F8",
"X.	c #7657F9",
"Y.	c #5C64F2",
"Z.	c #7D6AF6",
"`.	c #6B6CF7",
" +	c #454545",
".+	c #B75DED",
"++	c #5F59F4",
"@+	c #8675F6",
"#+	c #8D9CF7",
"$+	c #6C9CF9",
"%+	c #929CF7",
"&+	c #8A94F7",
"*+	c #6F6F6F",
"=+	c #717171",
"-+	c #6483FA",
";+	c #060000",
">+	c #0C0000",
",+	c #090101",
"'+	c #787878",
")+	c #8D8D8D",
"!+	c #1B0101",
"~+	c #290000",
"{+	c #7E7E7E",
"]+	c #8B8B8B",
"^+	c #6493F9",
"/+	c #2E0101",
"(+	c #4A0000",
"_+	c #4F0101",
":+	c #300101",
"<+	c #A7A7A7",
"[+	c #878787",
"}+	c #648CF7",
"|+	c #430303",
"1+	c #6F0000",
"2+	c #460101",
"3+	c #A3A3A3",
"4+	c #747474",
"5+	c #800000",
"6+	c #7D0000",
"7+	c #510101",
"8+	c #818181",
"9+	c #B5B5B5",
"0+	c #9D9D9D",
"a+	c #9B9B9B",
"b+	c #B1B1B1",
"c+	c #665AF6",
"d+	c #6E5EF8",
"e+	c #C2C2C2",
"f+	c #4B4D4D",
"g+	c #420404",
"h+	c #BDBDBD",
"i+	c #450505",
"j+	c #850000",
"k+	c #560101",
"l+	c #DDDDDD",
"m+	c #4C0505",
"n+	c #910000",
"o+	c #620101",
"p+	c #949494",
"q+	c #CBCBCB",
"r+	c #EFEFEF",
"s+	c #510505",
"t+	c #9B0000",
"u+	c #970000",
"v+	c #690101",
"w+	c #9162F6",
"x+	c #C5C5C5",
"y+	c #ADADAD",
"z+	c #75A3F7",
"A+	c #444343",
"B+	c #909090",
"C+	c #160000",
"D+	c #6499F8",
"E+	c #90ACF3",
"F+	c #68B5F1",
"G+	c #6592F6",
"H+	c #AA8DF6",
"I+	c #637AF7",
"J+	c #5889F8",
"K+	c #5C85F7",
"L+	c #A668F6",
"M+	c #A386F9",
"N+	c #A983F7",
"O+	c #7C53F5",
"P+	c #734BF3",
"Q+	c #8A3DEB",
"R+	c #8445EF",
"S+	c #5A4BEE",
"T+	c #9745EF",
"U+	c #6465F9",
"V+	c #5B77F8",
"W+	c #567BF5",
"X+	c #848AF5",
"Y+	c #8B8FF4",
"Z+	c #6C86F2",
"`+	c #8C5BF7",
" @	c #626CF5",
".@	c #6E63F5",
"+@	c #9B76F6",
"@@	c #5A71F5",
"#@	c #62ABF5",
"$@	c #629CF5",
"    . . + @   # $ @     # . % & * . + = - ; >   , * ' = ) ! ~   { { { ] # ^ / ( _ : & *   % < < [ < } | 1 # * 2 @ + . * ) * # # ",
"* + + * ) * ) ^ 3 4 5 6 . ! . 7 8 9 0 a b ! c 2   8 & d .   , e e   , @ 2 $ f 8 g _ h i ( j < i i i i j j ( k , ) 8 ) * ) ! l 6 ",
"9 5 = ! = ! 3 m n 4 4 o 6 = 9 n p 8 ~ q a m l l # r s , k t t } g   @ u # 6 v 4 v 8 7 u i i s ( ( ( { w , e   % & 8 8 ! ! 8 x y ",
"9 9 5 ! 6 ) l v ~ n 3 6 z z z z > ~ A A * c # 6 B 3 r e u t t n = w C * p 3 * ~ 6 0 5 3 #   D } } g + = 3 + + + & % & 8 5 n = y ",
"5 5 6 ! 6 4 v x 5 ) ! E z F z G H z I , J 2 @ @ m K 9 . t t t t t ^ 8 n 5 ! > = ! ~ c # c 2 e L s r M e * = , % p ~ N 8 ~ 4 6 6 ",
"9 v l 6 ! = 6 0 x O P P O F > = . . e { , . . * ! v y x t Q Q R t t S T U V W X > * c * Y c + n 0 ~ & % % 1 @ Z N N N ~ N ~ 5 9 ",
"9 ` x x 9 > z > >  ...+.W @.v 6 c #.j h } } ,     . # ! R $.%.&.t t t 0 0 *.=.-.;.c @ @ c 5 4 >.E z z 5 ! = 4 N 7 Z N ' n = ,.9 ",
"4 y y 9 9 > 6 ! a ' a z E '.).!.;.~.{.].h i s k < ( & 8 ^.%./.(.&.^.t t 8 5 = _.:.<.[.F W }.+.a N 0 > F O O O > a ~ Z n = = ~ ! ",
") * *.*.t 4 F P G |.1. .y l :.K <.2.2.[.3 { s u 3.4.Z t 5.(.6.6.7.8.R t t t 9 ` <.9.0.a.U b.c.U O > >  .H O F G E z q n 4 4 = * ",
"= 4 4 l t - |.W +.|.A n d.` d.e.f.f.g.h.2.d.0 G O ~ i.t j.(./.k.l.m.j.n.t t > o.p.[.T q.r.U U b.a.c.s.t.*.z z  .O .. .4 ) = = = ",
"> 4 6 t t t t a H z 0 = * d.u.0.f.p.v.w.h.2.> x.O W +.R y.z.A.B.C.D.A.y.^.t t t ).E.A ~ 9 H 9 E F.=.E d.e.z G z E 0 v 9 z z z > ",
"! # * R Q Q R x.4 z F x 0 |.V p.v.a.G.H.I.J.v. .|.T U ^.$.z.7.B.B.B.C.7.8.n.R t m ` = 8 p 4 *.0 4 5 v 4 *.+.P H > = 6 ) 8 > > 5 ",
"6 6 t &.(.%.Q ~ 8 8 = F O 8 % K.L.M.N.f.w.O.P.U Q.R.t 5.z.z.%.C.B.B.B.D.S.z.Q t t t x 5 ' ' l ~ ! 6 4 > 9 E E H 9.*.x T.' ' 9 v ",
"!.x R y.A./.U.t = = 8 & * 6   g } V.# # !.-.w.c.Q. .t 8.z.z.(.D.B.B.B.B.B.S.y.Q R t t 4 a * v 4 ! ! n = # N ' 4 x X H X O a 9 x ",
"x F 5.7.S./.7.^.) +   + 7 6 6 & 8 l 6 6 ! 5 y H > 4 R y.z.z.z.6.B.B.B.B.B.l./.%.5.t t t t + = 4 9 v * # - - a 6 = 4 F +.W.T.v v ",
"4 z 8.A.S.S./.&.* * = ~ ~ * l 8 p v x v 5 6 6 z O G n.z.z.z.z.S.B.B.B.B.B.B.B.6.z.5.^.t t 4 ~ - =.[.T.Q.; z z 6 ! * N K.# c * ! ",
"> R z.S.S.S.6.y.5 4 0 0 4 3 6 ~ N = 5 v 6 ! |.X.}.t &.z.z.z.z.A.B.B.B.B.B.B.B.C.6.7.8.R t t t Y.Z.g.=.0 * 8 * l ! 4 n 2 c * = > ",
"! n.m.S.S.S.6.%.> > 0 0 9 *.O T ..+.0.;.3 A `.3   t 8.z.z.z.z. +B.B.B.B.B.B.B.B.B.D.%.j.Q R t = % . l + * 8 # * = = 2 # 6 4 ~ = ",
"] 5. +S.S.S./. +^.5 n a z W ..G > > H .+ .++l !.@+^.$.z.z.z.z.m.B.B.B.B.B.B.B.B.B.C.D.A.(.5.t t t , m . & . ] e }   # * = 4 = @ ",
"4 j.A.S.7.7.S.S.Q 8 ' 8 8 ) + . & p 8 E.=.0 *.+.0.Q z.z.z.z.z.%.C.B.B.B.B.B.B.B.B.B.B.C./.z.&.n.t k , #   L #+  e $++ ) 8 ) %+&+",
"n U.S./.U.$.S./.j.p 7 + + + 8 = = 7 & . 9 > 9 6 t &.z.z.z.z.z.(.l.B.B.B.B.B.B.B.B.B.B.B.l.l.6.$.t t t 2 ^ k e . @ D 7 + & # > F ",
"n $./. +Q &. +6.U.n + ) 8 N n 4 > 9 . % 8 + * ! t 8.z.z.z.z.z.z.D.B.B.B.B.B.B.B.B.B.B.B.B.*+=+S.U.5.t , ^ #   e 2   r } D 8 ' M.",
"R (.6.z.R ^.%.6.y.t t t t t t t t t t t t t t t t U.z.z.z.z.z.z.6.k.B.B.B.B.B.B.B.B.B.B.B.k.k.*+=+ +R t t . 3 e + 4 ~ -+N p Z = ",
"^.%.6.j.t t y.6.$.;+>+>+>+>+>+>+>+>+>+>+>+>+>+>+,+U.z.z.z.z.z.z.S.*+B.B.B.B.B.B.B.B.B.B.B.B.B.'+)+k.z.j.R t 3 ! p n > N 8 N -+~ ",
"n.7./.Q W t j.6.%.!+~+~+~+~+~+~+~+~+~+~+~+~+~+~+!+U.z.z.z.z.z.z. +=+B.B.B.B.B.B.B.B.B.B.B.B.B.*+=+{+]+l.n.t t t +.- 5 * 7 ^+N & ",
"Q  +S.^.U t.5./.7./+(+(+(+(+(+(+(+(+(+(+(+(+(+_+:+U.z.z.z.z.z.z.m.=+B.B.B.B.B.B.B.B.B.B.B.B.B.B.B.{+<+[+7.U.R t Z.9 x O F }+p n ",
"5.A. +H H y Q S. +|+1+1+1+1+1+1+1+1+1+1+1+1+1+1+2+U.z.z.z.z.z.z.(.*+k.B.B.B.B.B.B.B.B.B.B.B.B.B.B.*+'+)+3+4+&.t t t = n T.|.a a ",
"&.S.m.+ 6 !.n. +A.(+5+6+6+6+6+6+6+6+6+6+6+6+6+5+7+U.z.z.z.z.z.z.z.k.*+B.B.B.B.B.B.B.B.B.B.B.B.B.B.B.B.8+9+0+6.y.n.t b.O |...; S ",
"5./.(.8 4 O ^.7.A.2+5+6+5+5+6+6+6+6+6+6+6+6+6+5+7+U.z.z.z.z.z.z.z.C.4+B.B.B.B.B.B.B.B.B.B.B.B.B.B.B.B.*+8+a+b+]+$.t t t +.c+Q.Z.",
"5./.z...S d+^.m.A.|+6+6+6+6+6+6+6+6+6+6+6+6+6+6+7+U.z.z.z.z.z.z.z.6.'+k.k.k.k.k.B.B.B.B.B.B.B.B.B.B.B.B.B.]+e+9+k.z.5.t t 1.6 * ",
"5.6.$.z 4 ) R m.f+g+6+6+6+6+6+6+6+6+6+6+6+6+6+5+_+U.z.z.z.z.z.z.z.A.8+'+4+=+*+*+k.B.B.B.B.B.B.B.B.B.B.B.B.=+[+<+h+a+ +R t t t X.",
"&.6.y.* * ! R m.f+i+j+j+j+j+5+5+5+5+5+5+5+5+5+j+k+U.z.z.z.z.z.z.z.7.[+]+8+'+4+=+*+B.C.C.C.C.C.C.C.C.C.C.C.l.l.)+l+l+=+n.t t t F ",
"&.6.y.5 5 6 t m.S.m+n+n+n+n+n+n+n+n+n+n+n+n+n+n+o+U.z.z.z.z.z.z.z.m.[+p+]+8+{+4+*+B.l.6.6.6.6.6.6.6.6.6.6.6./.=+q+r+a+j.t t t 5 ",
"&.6.$.*.5 6 R m.f+s+t+u+u+u+u+u+u+u+u+u+u+u+u+t+v+U.z.z.z.z.z.z.z.m.8+[+{+'+=+k.B.l.6././././././././.S.S./.k.[+9+h+{+&.t t t 9 ",
"5.6.$.9 w+*.R m.A.7+t+t+t+t+t+t+t+t+t+t+t+t+t+t+v+U.z.z.z.z.z.z.z.A.4+l.l.D.D.6.6./.S.S.S.S.S.S.S.S.S.S.A.D.0+x+a+S.U.^.t = = 4 ",
"5./.z.n 9 X ^.7.A.7+t+u+u+u+u+u+u+u+u+u+u+u+u+t+v+U.z.z.z.z.z.z.z.6.k.A.A.A.A.A.A.A.A.A.A.A.A.A.A.A.A.S.B.{+<+y+B.Q t t t > > F ",
"Q /.m.. % + n.7.A.7+n+n+n+n+n+n+n+n+n+n+n+n+n+n+o+U.z.z.z.z.z.z.z.l.C.A.A.A.A.A.A.A.A.A.A.A.A.A.A.A.A.D.p+9+8+m.j.R t n ) 8 = = ",
"Q S.7.v 5 + Q  + +_+j+5+5+5+5+5+5+5+5+5+5+5+5+j+k+U.z.z.z.z.z.z.(.B.D.A.S.A.S.S.S.S.S.S.S.S.S.A.A.S.C.4+a+a+/.R t t t w } z+%   ",
"5.A. +R 6 v 5.S.A+|+1+1+1+1+1+1+1+1+1+1+1+1+1+1+2+U.z.z.z.z.z.z.%.B./.A.S.S.S.S.S.S.S.S.S.S.S.A.A.6.B+3+k.z.&.t t % %   . % % + ",
"Q 7.S.n.% * &./.m./+(+(+(+(+(+(+(+(+(+(+(+(+(+(+/+U.z.z.z.z.z.z.m.B.S.A.S.S.S.S.S.S.S.S.S.A.A.S.l.k.]+]+%.t t t 4 *   % ) ) % % ",
"^.m.6.5.! t U.6.(.>+C+C+C+C+C+C+C+C+C+C+C+C+C+C+>+U.z.z.z.z.z.z.A.C.A.A.S.S.S.S.S.S.S.S.S.A.A.6.[+)+/.y.Q t ..> 4 v 5 N = ! = 8 ",
"R %.D.U.t R z.6.$.t t t t t t t t t t t t t t t t U.z.z.z.z.z.z./.l.A.S.S.S.S.S.S.S.S.A.A.S.D.C.'+=+U.t t t * 3   + 5 = ) ! ) 8 ",
"t z.6.%.R n.m.D.U.* Y 3 . 3 Y + D+. + . * ! 6 ! t U.z.z.z.z.z.z.6.6.A.S.S.S.S.S.S.S.S.A.A./.4+4+%.U.^.t } i , ^ E+F+s     + = = ",
"t y.S.A.5.j.A.6.j.# c 3 * 3 l 6 G+8 * . 2 w   2 t 8.z.z.z.z.z.(.D./.A.S.S.S.S.S.S.A.A.S.6.6.B.l.5.t t t ;.N + 6 B * : g } s % ) ",
"a 8.S.S.(.%.S.6.5.# 3 ! 6 6 5 *.5     . 6 E x z t 5.z.z.z.z.z.%.D.S.A.S.S.S.S.S.S.A.A./.B.6.y.j.R t m H+Y 8 = . !.d.= & . & ^+I+",
"8 &.A.S.A.A./.S.n.c.V e.x > z *.*.X > = 8 8 6 0 E n.$.z.z.z.z.m.6.S.A.S.S.S.S.S.S.S.S.A./.7.R t t # #.$ 6 > 3 * ) !.*.0 4 ~ J+I ",
"p Q  +S.A.A./. +Z.w+H e.h.W F 6 > *.*.!.> 0 0 4 ) R U.z.z.z.z.7./.A.S.S.S.S.S.S.S.S.S.%.j.5.t t w # ;.l ! @ # ) ) * 6 = ! ! -+Z ",
"p ^.%.S.S.S.6.(.) ! 9 v d.W e.'.n F d.*.|...}.W X t j.z.z.z.z. +/.A.S.S.S.S.S.S.A.m.%.U.t t t 6 ! + 6 !.l c } 7 ! . ) = = 4 I+N ",
"i.K+$.S.S.S.6.U.p = = x !.4 v L+O z *.w+> I+H H X X Q z.z.z.z.A.S.A.S.S.S.S.S.S. +8.Q ^.t & , + ! ! 5 y M+H+* ^+. 3 p n n z K.g ",
"1.K+j. +S./.S.5.8   ) * ;.* = y x 4 > @.[.N 7 ! v v ^.$.z.z.z.A.S.A.A.S.S.S.A.m.z.n.t t t / i z+e & 8 ;.N+y H a > H E ' E 0 d.G ",
"W - n.%.S.6.%.^., % p * 6 9 4 v F H z 9 ` x + z+] , t U.z.z.(.A.S.A.A.S.S.S.7.j.n.R t ^ #.J z+r i.& e # ` *.W G d+O+c.G - 9 ..R.",
"*.|.R U.7. +8.t v a n ! 4 4 5 > ; O+u.@.w+<.@.H O W t &.z.z.(.A.S.S.S.S. +%.y.^.t t t ;.!.x v ! D s $+p m G P+P+S P+Q+R+H G 1.H ",
"H E t n.U.U.^.6 z 4 ) = 4 4 > A A ! ! 6 v [.@.u.W [.[.Q z.z.%.A.S.S.S.S.(.5.n.t t o ` '.[.[.*.*.z x.x.) a 1.0 G c+S+R+T+p.+.U+H ",
"z O > t Q n.t z 9 5 z |.H H > q 4 6 * ! ! 6 5 ! v z @.^.$.z.m.S.S.A.7.%.8.t t t t K d.d.d.*.X *.z - 0 a V+N U+c+1.a n w+P.U G x ",
"E ! v t R R =.X.@.O P > ! 5 x N ! m * 3 * # . ) = ,.6 t 8.z.7.S.S.A.$.Q ^.t t 4 ` E.[.d.X X d.y > n 0 a ~ Z W+N ) $+& % X+M.v > ",
"m + * ! t t P+c.p.X 5 ! 4 = 5 4 # # # # #+  @ ].~ = 5 t &.(. +A.m.(.&.t t t 4 5 o *.[.w+X X X t.0.G z 4 ,.' 4.D+8 ~ 8 = + 8 F z ",
"3 ! = n 0 ' -+n e.f.d.F 9 > z x !.v 6 m m * Y+Z+W+> F F n.(.A. +U.Q R t t F > > '.9 y d.*.O W *.`+W.H O ; O A A n n A 9 6 8 ) # ",
"* 4 > n ~ N p 7 8 E.d.9 9 E 9 y y y !.!.F u.a.Q.`.z z O R $.m.z.Q t t t 8 0 H z X p.@.X O+V [.*...0.X F 0 > U+a 4 q n 5 y 0 6 3 ",
"v 8 = ~ = 8 8 & $+* y F O z 9 d.` !.;.z X.R.b.M.-+E E O t j.j.n.R t  @9 4 p 8 4 0 X p.V ..V P.e.E y ` 5 ~ n q = ~ ' . & ! * 3 v ",
"6 = n 4 8 ! +   %   = 0 5 6 * 3 o ~.6 q .@> 5 v...' 0 E t Q ^.t t t z 9 x 4 N n a E W V W.X B ` 5 9 d.[.> ' & 7 a 0 5 = . # . ) ",
"! = ~ = = = 6 + & & 8   2 2 #+w {.{.~ q 8 ) ~ ) 6 ~ N a - R t t W.T.Y   ) ! 8 p 7 p n O *.+@K E.T.4 x d.+.O x @@ @v v 5 v 6 6 = ",
"4 5 = = 8 8 6 v 8 & e w w ^ ^   ^ 3 I+,.* 8 + @ + 8 Z -+  t t 8 4 o E.H 4 = ~ N 4 & #@i.m 5 [.-.p.@.T.*.E 6 > Y.* * * * 6 6 5 > ",
"* ! = ! = = ! 6 .     , , J . ) ! 5 N 8 = + + 4 = 8 Z 7 @ % % Z ) 3 v @+M.v 8 7 ~ F ! $@@ % = F V 2.X X 9 x > 7 = 6 * * ! 4 4 ! ",
") = * + + + . # # @   , ] @ + 8 ! 5 n + @ . x.> T.6 p p .   & G+k k { 1 L 2 , s #@z+6 7 @ & p 4 ,.E.[.*.}.o.d.|.) 6 5 = 5 ! * * "};
