/* XPM */
static char * player_xpm[] = {
"64 64 423 2",
"  	c #7C9BFA",
". 	c #8393FB",
"+ 	c #7C93FC",
"@ 	c #849BFA",
"# 	c #8B93FB",
"$ 	c #9B9AF7",
"% 	c #749BFA",
"& 	c #7493FB",
"* 	c #838CFC",
"= 	c #7C84FD",
"- 	c #6D6CFA",
"; 	c #6A5CF5",
"> 	c #7C74FC",
", 	c #829DFA",
"' 	c #6C7BFC",
") 	c #7C8BFD",
"! 	c #8384FD",
"~ 	c #7483FC",
"{ 	c #83A4F6",
"] 	c #8CA1F9",
"^ 	c #929BF9",
"/ 	c #8DB1F2",
"( 	c #7BABF5",
"_ 	c #65B3EF",
": 	c #64A4F6",
"< 	c #7CB9F1",
"[ 	c #7CBCEE",
"} 	c #7BA5F7",
"| 	c #849BF6",
"1 	c #8BA3F7",
"2 	c #8B9BFA",
"3 	c #8B8CFC",
"4 	c #7C7CFD",
"5 	c #837CFD",
"6 	c #8B84FC",
"7 	c #6D93FA",
"8 	c #748BFC",
"9 	c #8474FD",
"0 	c #7474FC",
"a 	c #6C74FC",
"b 	c #5C6DF7",
"c 	c #9494FA",
"d 	c #8595F6",
"e 	c #7CA2F9",
"f 	c #908CF5",
"g 	c #74A3F9",
"h 	c #6DB5F0",
"i 	c #7CB3F2",
"j 	c #83B3F2",
"k 	c #84AAF6",
"l 	c #9283FB",
"m 	c #938BFB",
"n 	c #747CFC",
"o 	c #9A7CFA",
"p 	c #6C8BFB",
"q 	c #6374FA",
"r 	c #6BACF4",
"s 	c #72ABF5",
"t 	c #86A7F6",
"u 	c #8B7CFC",
"v 	c #83A3F9",
"w 	c #8B74FC",
"x 	c #9373FB",
"y 	c #7B6CFC",
"z 	c #656BF9",
"A 	c #A274F9",
"B 	c #0C0505",
"C 	c #75A3F7",
"D 	c #92A4F7",
"E 	c #251212",
"F 	c #6DA2F8",
"G 	c #746CFB",
"H 	c #836CFC",
"I 	c #7464FA",
"J 	c #8464FA",
"K 	c #6381F7",
"L 	c #90A2F9",
"M 	c #9B6BF9",
"N 	c #341A19",
"O 	c #629CF5",
"P 	c #6499F8",
"Q 	c #2B1414",
"R 	c #442121",
"S 	c #88A9F9",
"T 	c #6C83FC",
"U 	c #7C64FA",
"V 	c #735DF9",
"W 	c #1C0C0C",
"X 	c #3C1C1C",
"Y 	c #4A2323",
"Z 	c #845DF9",
"` 	c #6C55F6",
" .	c #7454F5",
"..	c #110707",
"+.	c #220E0E",
"@.	c #8B64FA",
"#.	c #552A2A",
"$.	c #411E1E",
"%.	c #648BFA",
"&.	c #9A74FA",
"*.	c #7461F7",
"=.	c #725BF6",
"-.	c #7C5DF9",
";.	c #8B5CF9",
">.	c #9AA6F5",
",.	c #3D2322",
"'.	c #6B6CF7",
").	c #321616",
"!.	c #5D2E2E",
"~.	c #522627",
"{.	c #787BF7",
"].	c #966BF6",
"^.	c #A46BF5",
"/.	c #937BFB",
"(.	c #9B83FA",
"_.	c #9B8AF7",
":.	c #9B93F8",
"<.	c #769CF6",
"[.	c #5A2C2C",
"}.	c #8B6CFB",
"|.	c #6C64F9",
"1.	c #6163F6",
"2.	c #A672F7",
"3.	c #9A65F9",
"4.	c #A35DF5",
"5.	c #9364F9",
"6.	c #936BFA",
"7.	c #150909",
"8.	c #57371A",
"9.	c #5F4116",
"0.	c #48291A",
"a.	c #647BFB",
"b.	c #8355F8",
"c.	c #8D57F8",
"d.	c #8C730B",
"e.	c #B6910C",
"f.	c #AB8A02",
"g.	c #6F5013",
"h.	c #5E2F30",
"i.	c #653333",
"j.	c #623130",
"k.	c #6C3636",
"l.	c #743B3B",
"m.	c #733B3B",
"n.	c #6F3838",
"o.	c #6A3535",
"p.	c #8554F6",
"q.	c #9454F5",
"r.	c #924DF3",
"s.	c #8345F2",
"t.	c #D0AA03",
"u.	c #9A7A06",
"v.	c #7B83F6",
"w.	c #8467F6",
"x.	c #8C75F6",
"y.	c #9173F7",
"z.	c #866906",
"A.	c #643C21",
"B.	c #896CF7",
"C.	c #533D0F",
"D.	c #622C2C",
"E.	c #341A17",
"F.	c #7E57F8",
"G.	c #040101",
"H.	c #B75DED",
"I.	c #5F59F4",
"J.	c #9E6BF6",
"K.	c #543527",
"L.	c #492C26",
"M.	c #929CF7",
"N.	c #8A94F7",
"O.	c #90764B",
"P.	c #B39452",
"Q.	c #76664A",
"R.	c #332324",
"S.	c #493629",
"T.	c #7C6B52",
"U.	c #CAB789",
"V.	c #E9D29E",
"W.	c #B8A47A",
"X.	c #584637",
"Y.	c #6483FA",
"Z.	c #5D5047",
"`.	c #736758",
" +	c #593936",
".+	c #483836",
"++	c #877966",
"@+	c #D0C7B0",
"#+	c #E2CFA6",
"$+	c #DAC696",
"%+	c #685646",
"&+	c #39231A",
"*+	c #6592F6",
"=+	c #6C9CF9",
"-+	c #3D3011",
";+	c #7F705B",
">+	c #947E65",
",+	c #2D1B1B",
"'+	c #34231C",
")+	c #442A29",
"!+	c #A89375",
"~+	c #C7B590",
"{+	c #876857",
"]+	c #775444",
"^+	c #281916",
"/+	c #24100F",
"(+	c #5D9CF5",
"_+	c #5B4D2C",
":+	c #9F936D",
"<+	c #EED38D",
"[+	c #947D58",
"}+	c #2C2726",
"|+	c #3A3434",
"1+	c #4B4847",
"2+	c #6D6451",
"3+	c #948369",
"4+	c #F3DDA6",
"5+	c #A9896A",
"6+	c #6493F9",
"7+	c #7C4CF4",
"8+	c #8B53F5",
"9+	c #AC5DF2",
"0+	c #FEE395",
"a+	c #F3CB6C",
"b+	c #8E733C",
"c+	c #6B6765",
"d+	c #AAA4A6",
"e+	c #D4D5D6",
"f+	c #BABCC0",
"g+	c #565966",
"h+	c #3A3026",
"i+	c #B39D77",
"j+	c #F8E3A9",
"k+	c #E4CF9A",
"l+	c #888174",
"m+	c #797777",
"n+	c #867B7A",
"o+	c #648CF7",
"p+	c #684D2E",
"q+	c #9D9B9B",
"r+	c #9EA3AF",
"s+	c #6F7584",
"t+	c #4C4A55",
"u+	c #EDD9A2",
"v+	c #BAAA87",
"w+	c #898887",
"x+	c #999FAD",
"y+	c #B5B3B5",
"z+	c #120807",
"A+	c #8A3DEB",
"B+	c #A63FE6",
"C+	c #D3B469",
"D+	c #806834",
"E+	c #46321D",
"F+	c #94928F",
"G+	c #3E4B69",
"H+	c #333A49",
"I+	c #515B75",
"J+	c #6A6A7A",
"K+	c #9D6555",
"L+	c #AC9388",
"M+	c #5F6267",
"N+	c #4A4F64",
"O+	c #5B637A",
"P+	c #6D4BF2",
"Q+	c #7C53F5",
"R+	c #A54CEC",
"S+	c #A643E9",
"T+	c #604A4A",
"U+	c #774442",
"V+	c #B05450",
"W+	c #D75A5B",
"X+	c #EB6464",
"Y+	c #F26C6C",
"Z+	c #C85558",
"`+	c #665AF6",
" @	c #6553F3",
".@	c #7D6AF6",
"+@	c #6E5EF8",
"@@	c #A354EF",
"#@	c #B24AE9",
"$@	c #5D95F6",
"%@	c #762A2A",
"&@	c #A74242",
"*@	c #B85456",
"=@	c #AA6256",
"-@	c #A0745C",
";@	c #894F35",
">@	c #B84B4A",
",@	c #E85858",
"'@	c #FC6464",
")@	c #F56262",
"!@	c #8A5746",
"~@	c #775B59",
"{@	c #A47DF5",
"]@	c #A668F6",
"^@	c #383335",
"/@	c #491B1B",
"(@	c #3C2C2C",
"_@	c #CA4949",
":@	c #F55656",
"<@	c #D35453",
"[@	c #8D3B3A",
"}@	c #5B1D1D",
"|@	c #7657F9",
"1@	c #1D1211",
"2@	c #CBC5C4",
"3@	c #9A7474",
"4@	c #D44C4F",
"5@	c #6B2D4D",
"6@	c #95583A",
"7@	c #A94638",
"8@	c #AD3535",
"9@	c #E34B4C",
"0@	c #F45C5C",
"a@	c #FA5F5F",
"b@	c #682525",
"c@	c #6E63F5",
"d@	c #6948EF",
"e@	c #ADAA9F",
"f@	c #DCDDDC",
"g@	c #C5C3C3",
"h@	c #AD7070",
"i@	c #4C4242",
"j@	c #C6A45B",
"k@	c #882A2A",
"l@	c #983434",
"m@	c #A83535",
"n@	c #5A4BEE",
"o@	c #655858",
"p@	c #B0B0B0",
"q@	c #D5D0C1",
"r@	c #C5B2AB",
"s@	c #BBBABB",
"t@	c #845CF5",
"u@	c #8A4CF3",
"v@	c #9162F6",
"w@	c #9B8BFA",
"x@	c #554C4A",
"y@	c #ADA07E",
"z@	c #886B6C",
"A@	c #A69B99",
"B@	c #788EF6",
"C@	c #938A8A",
"D@	c #52304E",
"E@	c #B3485B",
"F@	c #CDCBCB",
"G@	c #8E5253",
"H@	c #773535",
"I@	c #EAE9EA",
"J@	c #9A9292",
"K@	c #766969",
"L@	c #733773",
"M@	c #853B86",
"N@	c #8E4176",
"O@	c #B24866",
"P@	c #C99091",
"Q@	c #BAB4B4",
"R@	c #F0EFF0",
"S@	c #362D2D",
"T@	c #866122",
"U@	c #8A5C35",
"V@	c #864C64",
"W@	c #853B7B",
"X@	c #903C66",
"Y@	c #916984",
"Z@	c #81B4EF",
"`@	c #301C2E",
" #	c #7D445F",
".#	c #966B27",
"+#	c #884B4B",
"@#	c #784C7B",
"##	c #542725",
"$#	c #7E3669",
"%#	c #AA8509",
"&#	c #6E7DF4",
"*#	c #7A9EF6",
"=#	c #621E1E",
"-#	c #D43C3C",
";#	c #7D3783",
">#	c #6465F9",
",#	c #994E4F",
"'#	c #EB5E60",
")#	c #A07E07",
"!#	c #626CF5",
"~#	c #8675F6",
"{#	c #D16D6D",
"]#	c #896D4D",
"^#	c #8A6617",
"/#	c #8C5BF7",
"(#	c #9B5DF6",
"_#	c #90ACF3",
":#	c #68B5F1",
"<#	c #D67272",
"[#	c #A983F7",
"}#	c #BDADAD",
"|#	c #C8B4B4",
"1#	c #AA8DF6",
"2#	c #637AF7",
"3#	c #5889F8",
"4#	c #A254F1",
"5#	c #945CF6",
"6#	c #6A9DF5",
"7#	c #5C85F7",
"8#	c #567BF5",
"9#	c #A386F9",
"0#	c #5A71F5",
"a#	c #834CF3",
"b#	c #734BF3",
"c#	c #8445EF",
"d#	c #575252",
"e#	c #578BF5",
"f#	c #9745EF",
"g#	c #5B77F8",
"h#	c #9A4DF1",
"i#	c #848AF5",
"j#	c #8D9CF7",
"k#	c #9B76F6",
"l#	c #62ABF5",
"m#	c #9A62F6",
"n#	c #5C64F2",
"o#	c #7D5BF6",
"p#	c #8C63F7",
"    . . + @   # $ @     # . % & * . + = - ; >   , * ' = ) ! ~   { { { ] # ^ / ( _ : & *   % < < [ < } | 1 # * 2 @ + . * ) * # # ",
"* + + * ) * ) ^ 3 4 5 6 . ! . 7 8 9 0 a b ! c 2   8 & d .   , e e   , @ 2 $ f 8 g _ h i ( j < i i i i j j ( k , ) 8 ) * ) ! l 6 ",
"9 5 = ! = ! 3 m n 4 4 o 6 = 9 n p 8 ~ q a m l l # r s , k } e } g   @ t # 6 u 4 u 8 7 t i i s ( ( ( { v , e   % & 8 8 ! ! 8 w x ",
"9 9 5 ! 6 ) l u ~ n 3 6 y y y y > ~ z z * c # 6 A 3 B e t C . n = v D * p 3 * ~ 6 0 E E #   F } } g + = 3 + + + & % & 8 5 n = x ",
"5 5 6 ! 6 4 u w 5 ) ! G y H y I J y K , L 2 @ @ m M N N 2 e O P # ^ 8 n 5 ! > = ! ~ Q N R 2 e S s Q Q e * = , % p ~ T 8 ~ 4 6 6 ",
"9 u l 6 ! = 6 0 w U V V U H > = . . B W E . . * ! u X Y Y Z G p ! U `  ...W +.@.> * E N #.Y X n +.$.Y % % 1 @ %.T T T ~ T ~ 5 9 ",
"9 &.w w 9 > y > > *.=.-.Z ;.u 6 c >.j E X Y Y ,.Q E N Y #.Y Q N N '.0 0 0 +.).N ).+.+.).Y !.#.N N Y ~.N ! = 4 T 7 %.T ' n = {.9 ",
"4 x x 9 9 > 6 ! a ' a y G ].^./.(._.:.<.E X ~.!.!.[.Y Y #.!.~.Y R n 8 T 8 5 E N Y $.X X Y #.!.[.Y ~.#.R U U U > a ~ %.n = = ~ ! ",
") * }.}.u 4 H V I |.1.*.x l 2.M 3.4.4.5...E X Y #.!.[.Y Y ~.[.~.$.E n ' ' 4 W E ).N N N N X Y Y $.Y #.Y R N Q I G y q n 4 4 = * ",
"= 4 4 l w - |.Z -.|.z n 6.&.6.7.E Q ).N N N $.Y Y Y Y 8.9.8.0.X N N N ,.Y ~.~.#.[.[.[.#.#.~.Y Y R R R $.X N y *.U =.*.4 ) = = = ",
"> 4 6 ! H - a.a J y 0 = * 6.b.c.W E N X Y Y Y Y Y 8.d.e.f.g.8.~.h.i.i.i.i.j.j.j.j.i.k.l.l.m.m.m.m.n.o.h.Y X E y G 0 u 9 y y y > ",
"! # * n y 0 ' a.4 y H w 0 |.p.q.r.s.W E ).N X $.8.d.t.u.9.!.j.!.#.~.Y Y Y Y Y Y Y #.i.l.l.l.l.l.l.l.l.l.m.o.[.N > = 6 ) 8 > > 5 ",
"6 6 = T T 0 0 ~ 8 8 = H U 8 % v.w.x.y.7.+.).N X g.d.z.A.#.#.Y Y Y Y Y Y Y Y Y Y Y Y !.k.m.l.l.l.l.l.l.l.l.m.k.[.X }.w B.' ' 9 u ",
"/.w > n T T ~ n = = 8 & * 6   g } B W +.Q ).).N 0.C.8.~.Y Y Y Y Y Y Y Y Y Y Y Y Y Y Y #.D.o.m.m.m.l.l.m.m.o.!.j.Y N J @.U a 9 w ",
"w H y > 0 T T = ) +   + 7 6 6 & 8 l 6 6 7.W E Q Q E.Y Y Y Y Y Y Y Y Y Y Y Y Y Y Y Y Y Y Y Y #.[.j.j.i.j.!.~.Y #.[.~.H -.F.B.u u ",
"4 y -.J > n n ! * * = ~ ~ * l 8 p u w u 5 W E +.E N Y Y Y Y Y Y Y Y Y Y Y Y Y Y Y Y Y Y Y Y Y Y Y Y Y Y Y Y Y Y [.D.T v.# c * ! ",
"> n = l 5 ~ = ! 5 4 0 0 4 3 6 ~ T = 5 u 6 B ..B E X Y Y Y Y Y Y Y Y Y Y Y Y Y Y Y Y Y Y Y Y Y Y Y Y Y Y Y Y Y Y ~.[.[.2 c * = > ",
"! . v + = n > 9 > > 0 0 9 }.U  .=.-.c.(.3 z '.G.E $.Y Y Y Y Y Y Y Y #.~.Y Y Y Y Y Y Y Y Y Y Y Y Y Y Y Y $.$.Y Y [.!.!.# 6 4 ~ = ",
"] 2 ~ a G 0 ! = 4 5 n a y Z =.I > > J H.*.I.l B Q $.Y Y Y Y $.$.Y o.m.n.o.o.i.j.!.!.[.#.Y $.Y #.[.[.[.#.$.N Y i.m.m.o.Y = 4 = @ ",
"4 - G a = * ! + % 8 ' 8 8 ) + . & p 8 J.E Q }.W ).Y Y Y N ).).Y o.m.n.o.k.m.l.m.m.m.n.j.$.Y [.m.m.m.k.[.K.L.L.[.o.l.k.Y 8 ) M.N.",
"n T n ! ) = 4 u * p 7 + + + 8 = = 7 & . N R Y Q N $.X ).E E $.#.j.!.!.i.m.l.l.l.l.m.!.$.).X [.l.l.n.!.L.O.P.Q.Y Y h.[.X & # > H ",
"n ' ~ ! ! * & c = n + ) 8 T n 4 N R Y ~.#.[.~.N Q Q E E N $.$.N ).).Y !.i.o.n.n.o.~.X N R.,.[.m.m.#.S.T.U.V.W.X.N $.Y N F 8 ' x.",
"> =   v , . t | Y.) ~ n 0 ' n 4 0 N X Y X ).E W W E ).N N E E W +.N Y Y Y Y Y Y X Q ,.Z.`. +Y [.Y .+++@+#+$+W.%+&+).$.).T p %.= ",
"n u m #   | M.*+*++ 7 % =+% % & T T X #.Y X &+-+-+X.;+>+%+,+Q Q N Y Y Y 0.$.).Q '+S.X.X..+)+X ,.X.!+#+~+{+]+]+S.^+/+N E 8 T Y.~ ",
"8 6 /.J Z ;.M = (+) + + =+=+=+=+X ~.[.[.~.0.0._+:+$+<+<+[+'+E N Y Y Y X E.Q }+|+1+2+%+S.N ,.X.3+$+4+$+[+T.>+5+%+'++.Q +.7 6+T & ",
"' G 7+s.7+8+9+x %.p = = 8 & E N Y Y R Y Y $.)+3+$+0+a+a+b+^+E.X $.X ,.S.Z.c+d+e+f+g+}+h+Q.i+$+j+j+j+k+W.l+m+n+.+^+E +.W H o+p n ",
"z 1.'.J J x ^.4.5 6+~ = = = 8 8 O W E X Y X )+!+k+0+a+P.p+Q Q Q )+T.W.U.~+q+r+r+s+t+t+l+$+4+u+V.V.j+u+v+w+x+y+1+,+E W z+B.|.a a ",
"|.T & + 6 /.}.A+B+y ) 8 n 5 4 n ' E N $.X ).'+T.U.0+C+D+E++.+.N Q.$+j+j+$+F+s+G+H+I+J+l+i+5+K+K+K+5+v+L+M+N+O+|+^+W B U |.=.; ` ",
"H > = 8 4 U P+Q+R+S+5.n + v C 7 + Q N Q +.+.Q '+T.U.<+C+b+E.Q N p+!+$+4+u+~+w+J+I+g+T+U+V+W+X+Y+Y+Z+K+>+m+O+N+R.+.7.G.8+-.`+ @.@",
"4 > U =.` +@0 u x @@#@6.3 3 + $@W W W 2 & W +.7.^+S.Q.Q.X.Q E %@&@*@=@-@5+5+>+{+U+;@>@,@'@'@'@'@'@)@W+!@~@Z.)+).+.z+H H -.1.6 * ",
"U *.=.y 4 ) . @ # 2 {@]@3.}.9 %.& ) , . ^@|+|+)+$./@/@L.(@,+Q %@_@:@,@,@<@<@<@W+,@)@'@'@'@'@'@'@'@'@)@,@>@[@}@W B > u I ` U J |@",
"H - ! * * ! ! ! 3 m 3 &.J.M w = E 1@1@}+m+y+2@3@V+4@4@*@5@R.R. +]+6@7@7@8@_@4@9@,@:@0@0@a@a@'@'@'@a@0@9@8@b@+.G.U /.c@d@ .Z -.H ",
"> > u 5 5 6 5 u l /.u w M A ^+,.)+,.,..+`.e@f@g@h@_@)@)@&@Y i@w+v+j@P.O. +* = }@b@%@k@k@l@m@m@8@8@m@k@}@Q W B c@4 *.n@.@u u 5 5 ",
"y 4 9 }.5 6 = 6 u /.u 6 u ^+N R R $.X )+Q.L+g@e+L+>@:@'@<@;@o@p@q@W.v+r@s@! 8 5 = & # + ) ) + % @ 7 n J B B  .t@u@`+= . * 5 9 9 ",
"5 5 = 9 v@}.w 5 6 l w@^@x@.+R.N X N X K.O.y@y+f+3@l@_@0@0@Z+z@g@f@A@@+@+d+! = = u ! * + & . 2 B@~ *+P + T 8 e g + # @ . ) = = 4 ",
"9 9 > n 9 @.y+C@T+,.E R.o@m+c+.+R.^+^+S._+2+m+J+D@5@E@,@'@X+=@r@f@s@F@A@G@H@) 8 = 9 @.@..@> V V y 5 7 % 7 . + +   . = 0 y > > H ",
"5 4 5 . % g@I@I@F@J@o@)+(@m+d+q+K@i@- U 8+'+)+5@L@M@M@N@O@Z+*@P@F@g@A@~@!.D.= n n 4 y J Z -.y 9 6 # % & p   & + ) ~ a n ) 8 = = ",
"    + u ^@m+Q@I@R@R@2@n+(@S@1+. + p % } e E+p+T@U@V@N@M@M@W@X@Y@d+y+K@.+(@& a.0 4 n n 5 5 5 ! c c ! = p & & + & % % % v } C %   ",
"+ + + & 6 E .+K@Q@f@g@m+R.W & e   C k Z@`@D@L@ #!@.#.#6@+#+#!@V@N@@#D@}+= ' p + ) ) + + ) * c * H > 9 5 + C 7 ! + % %   . % % + ",
"& 8 * ) % B 7.E (@o@x@R.E +.W 5 4 y H @.##5@$#M@M@W@V@!@.#%#t.e.U@U+L.&#q n = + + | *#    ] v.G 6 > w 9 /.u *+) 4 *   % ) ) % % ",
"7 + ) = ! ) B ..W E E +.E N N Q z V =#l@-#9@4@E@X@W@M@;# #T@%#f.f.f.u.|.a > 9 9 5 5 5 ~ = y >#9 w ) . # 4 -.=.> 4 u 5 T = ! = 8 ",
"8 8 & ) ) 6 6 3 W Q Q E N Y Y X E .+,#9@:@a@'@'@'#W+E@X@U+T@e.)#z.z.' 8 p 8 5 6 * @ + 8 T ' a U 5.5.w > !#~#* 3   + 5 = ) ! ) 8 ",
"8 & & & ) ) ! /.7.E ).X Y Y R X Q i@z@{#X+'@'@'@'@'@)@W+=@]#D+T@^#J F.-.U 4 4 w w H I V G - q n J /#(#6.} i , ^ _#:#s     + = = ",
"~ a y > 4 ) . E N $.Y Y Y Y X N )+i@K@d+P@<#X+'@'@)@{#P@r@A@%+K.5 * + + = 4 0 }.w y 0 n v.&#5 8 ) 3 o [#(.T + 6 A * : g } s % ) ",
"a n = 4 9 W Q X Y Y Y Y Y $.X .+n+q+C@z@A@}#P@<#{#P@|#}#L+,#[@n 6 u 5 = 8 ) 7 = w 4 * . ) F =+~ = ! m 1#w@8 = . /.6.= & . & 6+2#",
"8 8 8 8 W N Y [.i.k.o.!.Y X ,.x@w+w+K@+#,#3@d+|#2@Q@C@G@l@m@b@8 6 = > H H 9 4 %.5 6 ! 4 4 4 Y.p * # >.$ 6 > 3 * ) /.}.0 4 ~ 3#K ",
"p T ~ E N Y !.k.l.m.o.#.4#Z H x@m+m+o@D.>@W+*@3@z@~@H@%@b@% v C ) 4 ~ ~ > }.> ~ 8 x ! = 8 ~ n   v # (.l ! @ # ) ) * 6 = ! ! Y.%.",
"p p T 4 N R #.!.!.~.9 u 6.Z 5#].n }+,+$.&@,@X+>@b@/@####| *#v 3#a n 0 4 n 9 9 5 8 u /.* 8 T ! 6 ! + 6 /.l c } 7 ! . ) = = 4 2#T ",
"6#7#' n 9 u . & p = = w /.4 u ]@U y ^+,.H@>@_@D.N X X ,+1@b.Z 8#T = a y > 4 9 w ! 8 o = n & , + ! ! 5 x 9#1#* 6+. 3 p n n y v.g ",
"1.7#' 0 > x u ~ 8   ) * (.* = x w 4 > ^+$.b@b@N N R )+,.N H }.n p ~ 0#H U J }.x 9 ! w@= | / i C e & 8 (.[#x J a > J G ' G 0 6.I ",
"Z - 2#0 4 x &.! , % p * 6 9 4 u H J y 9 E Q Q E N R R ,.,+4 9 H T ' Y.8 ~ 5 /.o 6 c 3 ^ >.L C r 6#& e # &.}.Z I +@Q+a#I - 9 =.P+",
"}.|.- > > w M /.u a n ! 4 4 5 > ; Q+b.;.v@i@.+}+,+N N Q & & 8 6 * P $@8 8 4 w M o /.(.(./.w u ! F s =+p m I b#b#` b#A+c#J I 1.J ",
"J G n > 4 5 9#6 y 4 ) = 4 4 > z z ! ! 6 u w+J@w+c+d#d#}+H ~ 8 ! 9 0 e#T a 0 9 6.^.o &.].5.5.}.}.y a.a.) a 1.0 I `+n@c#f#q.-.>#J ",
"y U > 4 > (.w@y 9 5 y |.J J > q 4 6 * ! ! c+q+s@d+w+m+1+}.y G y y U !#q n n 4 w ^.M 6.6.6.}.@.}.y - 0 a g#T >#`+1.a n v@h#7+I w ",
"G ! u 4 4 o t@|@;.U V > ! 5 w T ! m * 3 * .+o@n+C@n+d#(@^+y y y ` P+ .y > n 4 4 &.J.5.6.@.@.6.x > n 0 a ~ %.8#T ) =+& % i#x.u > ",
"m + * ! = y b#a#q.@.5 ! 4 = 5 4 # # # # j#E N )+)+)+X $.Y #.j.i.[.Y 4 U H > 4 5 o }.5.v@@.@.@.8+c.I y 4 {.' $@P 8 ~ 8 = + 8 H y ",
"3 ! = n 0 ' Y.n 5#(#6.H 9 > y w /.u 6 m m +.Q N X X $.Y Y [.k.l.m.n.#.X B.H > > ].9 x 6.}.U Z }./#F.J U ; U z z n n z 9 6 8 ) # ",
"* 4 > n ~ T p 7 8 J.6.9 9 G 9 x x x /./.H E X Y Y Y Y Y Y Y [.j.i.j.#.Y N 0 J y @.q.;.@.Q+p.5.}.=.c.@.H 0 > >#a 4 q n 5 x 0 6 3 ",
"u 8 = ~ = 8 8 & =+* x H U y 9 6.&./.(.y |@E X $.$.X X X X X X $.$.X X N Q p 8 4 0 @.q.p.=.p.h#5#G x &.5 ~ n q = ~ ' . & ! * 3 u ",
"6 = n 4 8 ! +   %   = 0 5 6 * 3 o _.6 q c@W +.E E W W W W W W W W W W 9 w 4 T n a G Z p.F.@.A &.5 9 6.5.> ' & 7 a 0 5 = . # . ) ",
"! = ~ = = = 6 + & & 8   2 2 j#v :.:.~ q 8 ) ~ ) 6 ~ T a - U J @.F.B.w@  ) ! 8 p 7 p n U }.k#M J.B.4 w 6.-.U w 0#!#u u 5 u 6 6 = ",
"4 5 = = 8 8 6 u 8 & e v v ^ ^   ^ 3 2#{.* 8 + @ + 8 %.Y.  g   8 4 o J.J 4 = ~ T 4 & l#6#m 5 5.m#q.;.B.}.G 6 > n#* * * * 6 6 5 > ",
"* ! = ! = = ! 6 .     , , L . ) ! 5 T 8 = + + 4 = 8 %.7 @ % % %.) 3 u ~#x.u 8 7 ~ H ! O @ % = H p.4.@.@.9 w > 7 = 6 * * ! 4 4 ! ",
") = * + + + . # # @   , ] @ + 8 ! 5 n + @ . a.> B.6 p p .   & *+k k { 1 S 2 , s l#C 6 7 @ & p 4 {.J.5.}.o#p#6.|.) 6 5 = 5 ! * * "};
