/* XPM */
static char * playerback_xpm[] = {
"64 64 433 2",
"  	c #7C9BFA",
". 	c #8393FB",
"+ 	c #7C93FC",
"@ 	c #849BFA",
"# 	c #8B93FB",
"$ 	c #9B9AF7",
"% 	c #749BFA",
"& 	c #7493FB",
"* 	c #838CFC",
"= 	c #7C84FD",
"- 	c #6D6CFA",
"; 	c #6A5CF5",
"> 	c #7C74FC",
", 	c #829DFA",
"' 	c #6C7BFC",
") 	c #7C8BFD",
"! 	c #8384FD",
"~ 	c #7483FC",
"{ 	c #83A4F6",
"] 	c #8CA1F9",
"^ 	c #929BF9",
"/ 	c #8DB1F2",
"( 	c #7BABF5",
"_ 	c #65B3EF",
": 	c #64A4F6",
"< 	c #7CB9F1",
"[ 	c #7CBCEE",
"} 	c #7BA5F7",
"| 	c #849BF6",
"1 	c #8BA3F7",
"2 	c #8B9BFA",
"3 	c #8B8CFC",
"4 	c #7C7CFD",
"5 	c #837CFD",
"6 	c #8B84FC",
"7 	c #6D93FA",
"8 	c #748BFC",
"9 	c #8474FD",
"0 	c #7272F8",
"a 	c #6C74FC",
"b 	c #5C6DF7",
"c 	c #9494FA",
"d 	c #8595F6",
"e 	c #7CA2F9",
"f 	c #908CF5",
"g 	c #74A3F9",
"h 	c #6DB5F0",
"i 	c #7CB3F2",
"j 	c #83B3F2",
"k 	c #84AAF6",
"l 	c #9283FB",
"m 	c #938BFB",
"n 	c #747CFC",
"o 	c #9A7CFA",
"p 	c #6C8BFB",
"q 	c #6374FA",
"r 	c #6BACF4",
"s 	c #72ABF5",
"t 	c #86A7F6",
"u 	c #8B7CFC",
"v 	c #351919",
"w 	c #83A3F9",
"x 	c #8B74FC",
"y 	c #9373FB",
"z 	c #7B6CFC",
"A 	c #656BF9",
"B 	c #3B1B1C",
"C 	c #241111",
"D 	c #A274F9",
"E 	c #75A3F7",
"F 	c #92A4F7",
"G 	c #7474FC",
"H 	c #462121",
"I 	c #542929",
"J 	c #2C1414",
"K 	c #2B2A4A",
"L 	c #746CFB",
"M 	c #7464FA",
"N 	c #8464FA",
"O 	c #7769F4",
"P 	c #6381F7",
"Q 	c #5B2D2D",
"R 	c #9B6BF9",
"S 	c #629CF5",
"T 	c #6499F8",
"U 	c #643232",
"V 	c #482222",
"W 	c #2D3049",
"X 	c #4D2929",
"Y 	c #351618",
"Z 	c #6C83FC",
"` 	c #7C64FA",
" .	c #735DF9",
"..	c #836CFC",
"+.	c #845DF9",
"@.	c #6C55F6",
"#.	c #7454F5",
"$.	c #7C4CF4",
"%.	c #8554F6",
"&.	c #8B64FA",
"*.	c #2B214A",
"=.	c #302A49",
"-.	c #6A3535",
";.	c #512727",
">.	c #648BFA",
",.	c #9A74FA",
"'.	c #7461F7",
").	c #725BF6",
"!.	c #7C5DF9",
"~.	c #321616",
"{.	c #421E1E",
"].	c #220E0E",
"^.	c #6F3838",
"/.	c #787BF7",
"(.	c #7A72F8",
"_.	c #966BF6",
":.	c #252749",
"<.	c #8B6CFB",
"[.	c #2B234A",
"}.	c #6C64F9",
"|.	c #272C49",
"1.	c #291C48",
"2.	c #647BFB",
"3.	c #2D2113",
"4.	c #2B254A",
"5.	c #6A5406",
"6.	c #593D0C",
"7.	c #441E21",
"8.	c #442D0D",
"9.	c #B5A300",
"0.	c #5D4507",
"a.	c #935EF8",
"b.	c #896CF7",
"c.	c #937BFB",
"d.	c #292A4A",
"e.	c #E2B500",
"f.	c #886904",
"g.	c #E6C800",
"h.	c #E6B900",
"i.	c #7D6004",
"j.	c #331A15",
"k.	c #AA8B02",
"l.	c #FECF00",
"m.	c #533B0B",
"n.	c #36210B",
"o.	c #2E2A4A",
"p.	c #271F49",
"q.	c #7E57F8",
"r.	c #2C284A",
"s.	c #29274A",
"t.	c #3D270D",
"u.	c #664A0A",
"v.	c #987802",
"w.	c #D8AD00",
"x.	c #B28F01",
"y.	c #D6AC00",
"z.	c #715B08",
"A.	c #251847",
"B.	c #7B83F6",
"C.	c #C19C00",
"D.	c #CCA300",
"E.	c #4A2F0F",
"F.	c #472A16",
"G.	c #845CF5",
"H.	c #8769F3",
"I.	c #8D57F8",
"J.	c #3A1F12",
"K.	c #2C1C49",
"L.	c #2C2A4A",
"M.	c #88A9F9",
"N.	c #8D9CF7",
"O.	c #6C9CF9",
"P.	c #929CF7",
"Q.	c #8A94F7",
"R.	c #493634",
"S.	c #6C6262",
"T.	c #7A6E6E",
"U.	c #847777",
"V.	c #928D8E",
"W.	c #A49D9D",
"X.	c #8B8786",
"Y.	c #1F1B1B",
"Z.	c #6DA2F8",
"`.	c #CACACA",
" +	c #F3F3F3",
".+	c #FDFEFE",
"++	c #E7E7E7",
"@+	c #ABABAB",
"#+	c #342D2C",
"$+	c #8C75F6",
"%+	c #6483FA",
"&+	c #C3C4C4",
"*+	c #E0DFDE",
"=+	c #E3E0DF",
"-+	c #B4B4B3",
";+	c #3A3837",
">+	c #27160D",
",+	c #5E4B05",
"'+	c #685848",
")+	c #D4C6A2",
"!+	c #B1A891",
"~+	c #544947",
"{+	c #6592F6",
"]+	c #5B5454",
"^+	c #6F4646",
"/+	c #4A403D",
"(+	c #968B73",
"_+	c #D4B701",
":+	c #B99601",
"<+	c #4A340C",
"[+	c #593631",
"}+	c #755034",
"|+	c #8B795F",
"1+	c #84796C",
"2+	c #8B5CF9",
"3+	c #5D9CF5",
"4+	c #8355F8",
"5+	c #6493F9",
"6+	c #8345F2",
"7+	c #8B53F5",
"8+	c #AC5DF2",
"9+	c #837109",
"0+	c #56463B",
"a+	c #3C2D2A",
"b+	c #7D6AF6",
"c+	c #648CF7",
"d+	c #6163F6",
"e+	c #6B6CF7",
"f+	c #A46BF5",
"g+	c #A35DF5",
"h+	c #3C2221",
"i+	c #A07E02",
"j+	c #392418",
"k+	c #C6B588",
"l+	c #8A3DEB",
"m+	c #A63FE6",
"n+	c #6C6CDD",
"o+	c #1E1212",
"p+	c #43342A",
"q+	c #D6D4D4",
"r+	c #924DF3",
"s+	c #8A4CF3",
"t+	c #6D4BF2",
"u+	c #7C53F5",
"v+	c #A54CEC",
"w+	c #A643E9",
"x+	c #9364F9",
"y+	c #281817",
"z+	c #1E1009",
"A+	c #8C8A8A",
"B+	c #665AF6",
"C+	c #6553F3",
"D+	c #6E5EF8",
"E+	c #A354EF",
"F+	c #B24AE9",
"G+	c #936BFA",
"H+	c #2C1A1A",
"I+	c #665A5A",
"J+	c #635E5E",
"K+	c #A47DF5",
"L+	c #A668F6",
"M+	c #9A65F9",
"N+	c #2C214A",
"O+	c #332222",
"P+	c #241B1B",
"Q+	c #7657F9",
"R+	c #9E6BF6",
"S+	c #27274A",
"T+	c #252149",
"U+	c #454343",
"V+	c #959595",
"W+	c #BDBEBF",
"X+	c #5E5C5C",
"Y+	c #6E63F5",
"Z+	c #6948EF",
"`+	c #B44848",
" @	c #A54143",
".@	c #743232",
"+@	c #A85252",
"@@	c #985858",
"#@	c #642C2C",
"$@	c #7C3333",
"%@	c #280F0F",
"&@	c #291A46",
"*@	c #5A4BEE",
"=@	c #322F2B",
"-@	c #4C1D1D",
";@	c #BB4B4C",
">@	c #F36161",
",@	c #FE6666",
"'@	c #752B2B",
")@	c #C84D4D",
"!@	c #524F50",
"~@	c #787776",
"{@	c #9162F6",
"]@	c #9B8BFA",
"^@	c #8C63F7",
"/@	c #281A48",
"(@	c #6CA3F6",
"_@	c #6A2929",
":@	c #E55B5B",
"<@	c #923A3A",
"[@	c #D35453",
"}@	c #C34E4E",
"|@	c #353333",
"1@	c #8F43EE",
"2@	c #EB5D5D",
"3@	c #9C9B9B",
"4@	c #272A49",
"5@	c #9D4AEF",
"6@	c #833635",
"7@	c #2E254A",
"8@	c #9B5DF6",
"9@	c #F3615F",
"0@	c #6F695C",
"a@	c #AA9A75",
"b@	c #412C2C",
"c@	c #AE79F4",
"d@	c #81B4EF",
"e@	c #79C3ED",
"f@	c #4D2144",
"g@	c #6B2D54",
"h@	c #79324A",
"i@	c #883744",
"j@	c #963D47",
"k@	c #A8484A",
"l@	c #CB5151",
"m@	c #DB5554",
"n@	c #A897F5",
"o@	c #6A9DF5",
"p@	c #70B3F3",
"q@	c #5C6FB3",
"r@	c #652D67",
"s@	c #81398D",
"t@	c #883B96",
"u@	c #853A93",
"v@	c #7D378A",
"w@	c #7B3686",
"x@	c #793878",
"y@	c #6E317A",
"z@	c #6B2F6F",
"A@	c #5D284D",
"B@	c #5770B0",
"C@	c #2E214A",
"D@	c #848AF5",
"E@	c #865A34",
"F@	c #814E4B",
"G@	c #7F4858",
"H@	c #7D4265",
"I@	c #7D3F6E",
"J@	c #7D3982",
"K@	c #5E2A65",
"L@	c #5D57B5",
"M@	c #6465F9",
"N@	c #5C85F7",
"O@	c #9056FA",
"P@	c #8C622B",
"Q@	c #8D6525",
"R@	c #926C1B",
"S@	c #967213",
"T@	c #5A3727",
"U@	c #626CF5",
"V@	c #8675F6",
"W@	c #371730",
"X@	c #50361E",
"Y@	c #8C5BF7",
"Z@	c #90ACF3",
"`@	c #68B5F1",
" #	c #401B29",
".#	c #662B48",
"+#	c #5B2855",
"@#	c #763584",
"##	c #401C47",
"$#	c #6E7DF4",
"%#	c #A983F7",
"&#	c #9B83FA",
"*#	c #712F43",
"=#	c #AA8DF6",
"-#	c #637AF7",
";#	c #9454F5",
">#	c #834CF3",
",#	c #945CF6",
"'#	c #9C8686",
")#	c #926D6D",
"!#	c #C74F50",
"~#	c #E05756",
"{#	c #8C3939",
"]#	c #9AA6F5",
"^#	c #5889F8",
"/#	c #A254F1",
"(#	c #C6CBCB",
"_#	c #A59898",
":#	c #997D7D",
"<#	c #896A6A",
"[#	c #7D5BF6",
"}#	c #8D544E",
"|#	c #A5A4A4",
"1#	c #B0AEAE",
"2#	c #F65959",
"3#	c #CC3737",
"4#	c #3D0E0E",
"5#	c #4B4444",
"6#	c #9A9695",
"7#	c #4D4A4A",
"8#	c #A386F9",
"9#	c #F64B4B",
"0#	c #5A71F5",
"a#	c #942929",
"b#	c #AD3131",
"c#	c #5D95F6",
"d#	c #734BF3",
"e#	c #8445EF",
"f#	c #578BF5",
"g#	c #322149",
"h#	c #9745EF",
"i#	c #9A4DF1",
"j#	c #5F59F4",
"k#	c #252B49",
"l#	c #797CD5",
"m#	c #271A48",
"n#	c #251E49",
"o#	c #8982F6",
"p#	c #698AF6",
"q#	c #5D7CFA",
"r#	c #271647",
"s#	c #9B8AF7",
"t#	c #9B93F8",
"u#	c #322A49",
"v#	c #9B76F6",
"w#	c #62ABF5",
"x#	c #9A62F6",
"y#	c #5C64F2",
"z#	c #90A2F9",
"    . . + @   # $ @     # . % & * . + = - ; >   , * ' = ) ! ~   { { { ] # ^ / ( _ : & *   % < < [ < } | 1 # * 2 @ + . * ) * # # ",
"* + + * ) * ) ^ 3 4 5 6 . ! . 7 8 9 0 a b ! c 2   8 & d .   , e e   , @ 2 $ f 8 g _ h i ( j < i i i i j j ( k , ) 8 ) * ) ! l 6 ",
"9 5 = ! = ! 3 m n 4 4 o 6 = 9 n p 8 ~ q a m l l # r s , k } e } g   @ t # 6 u 4 u 8 7 t i i v ( ( ( { w , e   % & 8 8 ! ! 8 x y ",
"9 9 5 ! 6 ) l u ~ n 3 6 z z z z > ~ A B C c # 6 D 3 r e t E . n = w F * p 3 * ~ 6 G 5 3 # H I } } g + = J B K + & % & 8 5 n = y ",
"5 5 6 ! 6 4 u x 5 ) ! L J C z M N O P H Q C @ @ m R 9 . 2 e S T # ^ 8 n 5 ! > = ! ~ c # B U V W s r B X I Y , % p ~ Z 8 ~ 4 6 6 ",
"9 u l 6 ! = 6 G x `  . .J X X B C . e B I Q J * C C y x ..+.L p ! ` @.#.$.%.+.&.*.H =.J -.;.H v H U U ;.B 1 @ >.Z Z Z ~ Z ~ 5 9 ",
"9 ,.x x 9 > z > > '.).!.+.~.X Q U I B {.V Q U J H H # ! n > z ].C J J J J J J ].C ;.H U U V H Q ^.Q V H C = 4 Z 7 >.Z ' n = /.9 ",
"4 y y 9 9 (.6 ! a ' a z L _.Y V ;.U ^.;.H V U U V H & J Y B {.H H V V V H {.H {.J V X U X H H ;.;.H H H Y Y B B B Y :.n = = ~ ! ",
") * <.<.u 4 .. .C J J J J J Y H H V ;.X H H X Q V H C v J C {.V V V V V {.[.C J J H V ;.H H V H H H V V V V {.B J z q n 4 4 = * ",
"= 4 4 l x - }.+.!.J B {.H V V V V H H H V V H V V H Y Y |.Y V V V V V V V B C B H H V H H V V H V V H H B B J 1.` ).'.4 ) = = = ",
"> 4 6 ! ..- 2.a N z G J Y B {.H H V V V V V H H H V H J ~.V V V V V V V V V B ].B V V H V V V V H V H {.Y ~.].z L 0 u 9 z z z > ",
"! # * n z G ' 2.4 z ..x ].~.Y {.H V H V V V V V V H J J H H H V V V V V V V {.J 3.B V V V V V V V H {.B B Y ~.J ].= 6 ) 8 > > 5 ",
"6 6 = Z Z G G ~ 8 8 4.C J ~.B {.{.H V V V V V V V v 5.6.B B {.V V V V V H V 7.8.9.0.B V V V V V V H B ~.~.].L N a.<.x b.' ' 9 u ",
"c.x > n Z Z ~ n = = 8 d.].C J ~.Y {.V V V V V V B 5.e.f.J B H V V V V V V H B 8.g.e.0.Y 7.7.{.{.B B B ~.~.].' 4 x &.N &.` a 9 x ",
"x ..z > G Z Z = ) +   + 7 6 J ~.Y B B B {.B B Y 0.e.h.i.~.H V H V V V V {.B ~.j.k.l.h.i.m.n.J J ~.~.~.o.- p.a 6 = 4 ..!.q.b.u u ",
"4 z !.N > n n ! * * = ~ ~ r.].s.J ~.~.J J t.u.v.w.h.x.8.~.B H V V V V V H {.B B t.v.w.h.y.x.z.j.C C ].A.; z z 6 ! * Z B.# c * ! ",
"> n = l 5 ~ = ! 5 4 G G 4 3 6 ~ ].].5 C n.f.C.D.x.f.8.Y Y B {.V V V V V V V V H Y ~.E.u.u.6.F.H H B G.G * 8 * l ! 4 n 2 c * = > ",
"! . w + = n > 9 > > G G 9 H.` #.).!.I.{.{.F.F.F.J.~.B H H H H H V V V V V V V H B Y {.7.7.B B H V B l + * 8 # * = = 2 # 6 4 ~ = ",
"] 2 ~ a L G ! = 4 5 n a z +.).M > C K.B V V H H B B H V V V V V V V V V V V V V H H V V H {.H V H Y m . & . ] e }   # * = 4 = @ ",
"4 - L a = * ! + % 8 ' 8 8 ) + L.d.C 8 Y V V {.B H H V V V V V V V V V V V H V V V V V H J ].H V H J , #   M.N.  e O.+ ) 8 ) P.Q.",
"n Z n ! ) = 4 u * p 7 R.S.T.U.V.W.X.Y.J H V B 6 J H V H V V H V V V V V V V F.H V V H J J ].{.H B ].  2 ^ k e . @ Z.7 + & # > ..",
"n ' ~ ! ! * & c = n + `. + + +.+++@+#+% B {.Y C Y J B B B 7.V V H H H V V V B Y {.{.J Y H C J Y B H v #+^ #   e 2   r } Z.8 ' $+",
"> =   w , . t | %+) ~ &+ +++*+=+-+;+v H B B ~.~.V B J >+8.F.{.B B B H V V 7.F.5.,+>+B V H H H V X B '+)+!+~+3 e + 4 ~ %+Z p >.= ",
"n u m #   | P.{+{++ 7 % ]+^+~+R./+(+'+B ;.X V V H V H j.5.C.k.m.J B H {.B z._+:+<+B V V H V X Q U Q [+}+|+1+Y.! p n > Z 8 Z %+~ ",
"8 6 c.N +.2+R = 3+) + + O.O.|.O.~+'+[+U -.Q ;.V H H V V B m.C.w.m.B {.Y m.g.k.t.{.V H V H V V V X ;.Q Q I ;.B 4+!.- 5 * 7 5+Z & ",
"' L $.6+$.7+8+y >.p = = 8 & J H I Q Q ;.V V V H V V V V V B t.D.v.~.B B 9+g.8.B V H V V V H H H H V H B H 0+a+4 b+9 x ` ..c+p n ",
"A d+e+N N y f+g+5 5+~ = = = v h+h+B H V V V H V V V V V V H J v.i+v B B z._+n.B V V V V V V H H X U U j+|+k+R.#+> u = n b.}.a a ",
"}.Z & + 6 c.<.l+m+z ) 8 n 5 n+o+'+p+I -.Q V H V V V V V V B J ,+u.Y B Y j+z.>+Y H V V V V V V H V ;.U -.[+0+@+q+@+r+s+` }.).; @.",
"..> = 8 4 ` t+u+v+w+x+n + w o+v y+Q ^.Q V H V V V H V V H B J z+J ~.~.~.~.].].~.B H H H V V V V H H V ;.U X A+ +q+b+G.7+!.B+C+b+",
"4 > ` ).@.D+G u y E+F+G+3 3 y+H+;.U X V H V V V H V {.H {.Y ~.d.J ~.~.~.~.].].Y Y {.B {.V {.H V V {.v B {.;.X I+J+N ....!.d+6 * ",
"` '.).z 4 ) . @ # 2 K+L+M+<.N+X ;.{.Y ~.H V V {.{.H v Y B J J ].C v O+O+a+P+].].J Y ~.Y {.B B H V {.o+H+J ].C ].a > u M @.` N Q+",
"..- ! * * ! ! ! 3 m 3 ,.R+R J J S+C L.T+H V {.Y B B ~.J ~.C ].% U+A+V+@+W+X++ & ].~.].J Y ~.J Y {.V J ].J C . G ` c.Y+Z+#.+.!...",
"> > u 5 5 6 5 u l c.u x R D c.> 5 6 2.J V {.~.C J ~.J J J ~.`+ @.@+@+@+@@@^.#@$@B [.= %@~.J & ! J {.{.C B v &@Y+4 '.*@b+u u 5 5 ",
"z 4 9 <.5 6 = 6 u c.u 6 u M+D 4 l ~ L B {.J P+=@C J -@;@-@{.>@,@>@,@,@,@,@,@,@,@'@V )@ @J ].!@~@#+O+B J U+U+#.G.s+B+= . * 5 9 9 ",
"5 5 = 9 {@<.x 5 6 l ]@#   * R 2+^@Y+/@B ].l = (@2 6 _@:@;@<@,@,@,@,@,@,@,@,@,@,@[@}@,@[@R.P+-+-+A+T.P+K |@;+e g + # @ . ) = = 4 ",
"9 9 > n 9 &.x+9 x x R M+N M Q+s+s+#.u+s+1@I.+.N ` L _@:@2@>@,@,@,@,@,@,@,@,@,@,@,@`+2@^+W+3@@+!@]+P+H+J 4@L.+ +   . = G z > > ..",
"5 4 5 . % + c.<.<.G+y ,...L = * 6 a - ` 7+5@7+4++.N 6@2@>@,@,@,@,@,@,@,@,@,@,@,@,@[@$@I+.+++J+O+7@v {.{.H h+& + ) ~ a n ) 8 = = ",
"    + u 5 + ) 4 9 {@8@R+l t g . + p % } e 3 y x 9 <.6@[@:@9@>@,@,@,@,@,@,@,@,@,@,@,@-@;+&+W+0@a@C B H B R.b@+ & % % % w } E %   ",
"+ + + & 6 u ) & + ) c.c@c@c.& e   E k d@[ e@i . ) 6 f@g@g@h@h@h@i@j@j@k@`+;@}@l@m@[@{.+ ) U+=@(+j+J B B h+o+7 ! + % %   . % % + ",
"& 8 * ) % * 6 + +   ^ n@c.x+G+5 4 z ..&.b.$+o@p@E q@r@s@t@t@t@u@s@v@w@x@y@y@z@r@r@A@B@    ] B.L 6 > C@o+c.u {+) 4 *   % ) ) % % ",
"7 + ) = ! ) . * + . c ]@* 6 l u A  .<.x <.G+R D@(@>+}+E@F@F@G@G@H@I@x@x@J@s@s@u@v@K@L@~ = z M@9 x ) . # 4 !.).> 4 u 5 Z = ! = 8 ",
"8 8 & ) ) 6 6 3 + . ^ c * 3 c . N@@ # * 3 6 y O@N C }+E@P@Q@R@R@S@S@S@S@S@R@R@Q@P@T@+ 8 Z ' a ` x+x+x > U@V@* 3   + 5 = ) ! ) 8 ",
"8 & & & ) ) ! c.* * ]@3 . 3 ]@+ T . + . * ! 6 ! m W@y@v@v@v@w@J@J@x@I@I@H@G@G@F@}+X@M  .L - q n N Y@8@G+} i , ^ Z@`@s     + = = ",
"~ a z > 4 ) . # 6 # c 3 * 3 l 6 {+8 * . 2 w   2 =  #.#A@A@+#+#K@r@r@z@y@y@@#@#w@@###Y -@B.$#5 8 ) 3 o %#&#Z + 6 D * : g } s % ) ",
"a n = 4 9 x c.6 # # 3 ! 6 6 5 <.5     . 6 L x z ].`+m@m@m@[@)@;@`+ @j@i@i@h@*#.#.#W@`+:@m@)@k@_@= ! m =#]@8 = . c.G+= & . & 5+-#",
"8 8 8 8 ) # 6 N ;#>#%.,#x > z <.<.&.> = 8 8 6 G J+'#)#@@@@+@`+;@!#[@m@m@~#~#m@m@[@{#$@m@2@,@,@m@6@# ]#$ 6 > 3 * ) c.<.G 4 ~ ^#P ",
"p Z ~ 4 6 5 L - b+{@N ,#/#+...6 > <.<.c.> G G 4 ~@-+&+(#`.(#W+-+@+W._#'#'#'#:#:#:#<#H+V #@.@$@6@#@C &#l ! @ # ) ) * 6 = ! ! %+>.",
"p p Z 4 x n 8 + ) ! 9 u G++.,#_.n ..G+<.}.).[#+.B k@k@}#@@<#)#U.A+3@|#@+1#-+-+-+-+@+|@C v h+h+B H C 6 c.l c } 7 ! . ) = = 4 -#Z ",
"o@N@' n 9 u . & p = = x c.4 u L+` z <.{@> -#N N <@,@,@,@>@2#3#4#Z = a z > 4 9 o+! 8 S.X.5#6#3@7#T.Y.5 y 8#=#* 5+. 3 p n n z B.g ",
"d+N@' G > y u ~ 8   ) * &#* = y x 4 > 2+x+Z 7 ~.[@,@,@,@2#9#_@n p ~ 0#..` N <.y 9 ! J+W.`.6#V.`.7#& 8 &#%#y N a > N L ' L G G+M ",
"+.- -#G 4 y ,.! , % p * 6 9 4 u ..N z 9 ,.x + #@>@,@,@,@9#a#9 ..Z ' %+8 ~ 5 c.o 6 c ;+6#`.|#V+3@;+& e # ,.<.+.M D+u+>#M - 9 ).t+",
"<.}.- > > x R c.u a n ! 4 4 5 > ; u+4+2+{@M+2+<@>@,@,@2#b#].8 6 * T c#8 8 4 x R o c.#+b@J+W.S.I+#+s O.p m M d#d#@.d#l+e#N M d+N ",
"N L n > 4 5 8#6 z 4 ) = 4 4 > A A ! ! 6 u x+B 6@<@{#6@.@{.~ 8 ! 9 G f#Z a G 9 G+f+o g#Y B B B B Y H J ) a d+G M B+*@e#h#;#!.M@N ",
"z ` > 4 > &#]@z 9 5 z }.N N > q 4 6 * ! ! 6 v h+B B B v y+z L z z ` U@q n n 4 x f+R ~.H B B B B H ;.I V J J M@B+d+a n {@i#$.M x ",
"L ! u 4 4 o G.Q+2+`  .> ! 5 x Z ! m * 3 * # 7#X+]+6#X+7#V.z z z @.t+#.z > n 4 4 ,.R+{.V V V V V V H V ;.;.Y Y Z ) O.& % D@$+u > ",
"m + * ! = z d#>#;#&.5 ! 4 = 5 4 # # # # N.  Y.3@@+V+-+|#3@` ..M@j#9 4 ` ..> 4 5 o C H V V V H H H H H H V J X k#8 ~ 8 = + 8 ..z ",
"3 ! = n G ' %+n ,#8@G+..9 > z x c.u 6 m m * l#~@|#A+&+q+J+L ..n Z., 2.n b...> > _.C Y Y v v v v ~.j.H+J m#C Y n#n n A 9 6 8 ) # ",
"* 4 > n ~ Z p 7 8 R+G+9 9 L 9 y y y c.c...4+6+J+]+1#V+~+5#` ` _.o#p#q#= 8 G N z &.;#2+&.u+%.x+<.).I.&...G > M@a 4 q n 5 y G 6 3 ",
"u 8 = ~ = 8 8 & O.* y ..` z 9 G+,.c.&#z Q+r#v v B H H B J ].N G+O@).U@9 4 p 8 4 G &.;#%.).%.i#,#L y ,.5 ~ n q = ~ ' . & ! * 3 u ",
"6 = n 4 8 ! +   %   = G 5 6 * 3 o s#6 C B I ;.B B B B B {.H ].I.%.@.z 9 x 4 Z n a L +.%.q.&.D ,.5 9 G+x+> ' & 7 a G 5 = . # . ) ",
"! = ~ = = = 6 + & & 8   2 2 N.w t#u#B B Q V H V V V V V V V Y &.q.b.]@  ) ! 8 p 7 p n ` <.v#R R+b.4 x G+!.` x 0#U@u u 5 u 6 6 = ",
"4 5 = = 8 8 6 u 8 & e w w ^ ^   ^ Y {.B V H H H H H H H H H B 8 4 o R+N 4 = ~ Z 4 & w#o@m 5 x+x#;#2+b.<.L 6 > y#* * * * 6 6 5 > ",
"* ! = ! = = ! 6 .     , , z#. ) ! J B s.C J J J J J J J J C C >.) 3 u V@$+u 8 7 ~ ..! S @ % = ..%.g+&.&.9 x > 7 = 6 * * ! 4 4 ! ",
") = * + + + . # # @   , ] @ + 8 ! 5 n + @ . 2.> b.6 p p .   & {+k k { 1 M.2 , s w#E 6 7 @ & p 4 /.R+x+<.[#^@G+}.) 6 5 = 5 ! * * "};
