/* XPM */
static char * sortie_xpm[] = {
"64 64 403 2",
"  	c #7C9BFA",
". 	c #8393FB",
"+ 	c #7C93FC",
"@ 	c #849BFA",
"# 	c #8B93FB",
"$ 	c #9B9AF7",
"% 	c #749BFA",
"& 	c #7493FB",
"* 	c #838CFC",
"= 	c #7C84FD",
"- 	c #6D6CFA",
"; 	c #6A5CF5",
"> 	c #7C74FC",
", 	c #829DFA",
"' 	c #6C7BFC",
") 	c #7C8BFD",
"! 	c #8384FD",
"~ 	c #7483FC",
"{ 	c #83A4F6",
"] 	c #8CA1F9",
"^ 	c #929BF9",
"/ 	c #8DB1F2",
"( 	c #7BABF5",
"_ 	c #65B3EF",
": 	c #64A4F6",
"< 	c #7CB9F1",
"[ 	c #7CBCEE",
"} 	c #7BA5F7",
"| 	c #849BF6",
"1 	c #8BA3F7",
"2 	c #8B9BFA",
"3 	c #8B8CFC",
"4 	c #7C7CFD",
"5 	c #837CFD",
"6 	c #8B84FC",
"7 	c #6D93FA",
"8 	c #748BFC",
"9 	c #8474FD",
"0 	c #7474FC",
"a 	c #6C74FC",
"b 	c #5C6DF7",
"c 	c #9494FA",
"d 	c #8595F6",
"e 	c #7CA2F9",
"f 	c #908CF5",
"g 	c #74A3F9",
"h 	c #6DB5F0",
"i 	c #7CB3F2",
"j 	c #83B3F2",
"k 	c #84AAF6",
"l 	c #9283FB",
"m 	c #938BFB",
"n 	c #747CFC",
"o 	c #9A7CFA",
"p 	c #6C8BFB",
"q 	c #6374FA",
"r 	c #6BACF4",
"s 	c #72ABF5",
"t 	c #86A7F6",
"u 	c #8B7CFC",
"v 	c #83A3F9",
"w 	c #8B74FC",
"x 	c #9373FB",
"y 	c #7B6CFC",
"z 	c #656BF9",
"A 	c #A274F9",
"B 	c #2D005A",
"C 	c #260058",
"D 	c #12000D",
"E 	c #6DA2F8",
"F 	c #746CFB",
"G 	c #836CFC",
"H 	c #7464FA",
"I 	c #8464FA",
"J 	c #6381F7",
"K 	c #90A2F9",
"L 	c #9B6BF9",
"M 	c #3C005B",
"N 	c #33005C",
"O 	c #53006D",
"P 	c #629CF5",
"Q 	c #6499F8",
"R 	c #580044",
"S 	c #310034",
"T 	c #1C001C",
"U 	c #88A9F9",
"V 	c #6CA3F6",
"W 	c #6C83FC",
"X 	c #7C64FA",
"Y 	c #735DF9",
"Z 	c #3C0062",
"` 	c #820076",
" .	c #440064",
"..	c #410042",
"+.	c #530065",
"@.	c #250028",
"#.	c #845DF9",
"$.	c #8B64FA",
"%.	c #9B8BFA",
"&.	c #648BFA",
"*.	c #9A74FA",
"=.	c #7461F7",
"-.	c #725BF6",
";.	c #7C5DF9",
">.	c #8B5CF9",
",.	c #9AA6F5",
"'.	c #64006C",
").	c #A10080",
"!.	c #6C64F9",
"~.	c #6B6CF7",
"{.	c #650079",
"].	c #5B006A",
"^.	c #9B83FA",
"/.	c #5D7CFA",
"(.	c #787BF7",
"_.	c #966BF6",
":.	c #A46BF5",
"<.	c #937BFB",
"[.	c #9B8AF7",
"}.	c #9B93F8",
"|.	c #769CF6",
"1.	c #9E0080",
"2.	c #9C007F",
"3.	c #550071",
"4.	c #61004B",
"5.	c #6C007C",
"6.	c #52005F",
"7.	c #9A65F9",
"8.	c #9364F9",
"9.	c #7D5BF6",
"0.	c #8B6CFB",
"a.	c #6163F6",
"b.	c #A672F7",
"c.	c #A35DF5",
"d.	c #5D0073",
"e.	c #460068",
"f.	c #4D0045",
"g.	c #620073",
"h.	c #935EF8",
"i.	c #8D57F8",
"j.	c #8345F2",
"k.	c #7C4CF4",
"l.	c #8A4CF3",
"m.	c #834CF3",
"n.	c #936BFA",
"o.	c #945CF6",
"p.	c #9B5DF6",
"q.	c #9B54F2",
"r.	c #A254F1",
"s.	c #360060",
"t.	c #34003B",
"u.	c #7454F5",
"v.	c #7241EE",
"w.	c #8F43EE",
"x.	c #6948EF",
"y.	c #8B53F5",
"z.	c #647BFB",
"A.	c #8355F8",
"B.	c #9454F5",
"C.	c #924DF3",
"D.	c #A54CEC",
"E.	c #4C0065",
"F.	c #9E6BF6",
"G.	c #7A67F6",
"H.	c #845CF5",
"I.	c #8554F6",
"J.	c #943FED",
"K.	c #A643E9",
"L.	c #A755ED",
"M.	c #A354EF",
"N.	c #4D006C",
"O.	c #5C004A",
"P.	c #7B83F6",
"Q.	c #8467F6",
"R.	c #8C75F6",
"S.	c #9173F7",
"T.	c #A63FE6",
"U.	c #2D013A",
"V.	c #896CF7",
"W.	c #9899FB",
"X.	c #9A62F6",
"Y.	c #7E57F8",
"Z.	c #6553F3",
"`.	c #8C5BF7",
" +	c #5C64F2",
".+	c #7D6AF6",
"++	c #8BACF5",
"@+	c #7D96F7",
"#+	c #7C53F5",
"$+	c #B75DED",
"%+	c #5F59F4",
"&+	c #7A9EF6",
"*+	c #9162F6",
"=+	c #2A0156",
"-+	c #E18B0B",
";+	c #D3690C",
">+	c #8D9CF7",
",+	c #6C9CF9",
"'+	c #929CF7",
")+	c #8A94F7",
"!+	c #722E35",
"~+	c #D8770A",
"{+	c #FBAB09",
"]+	c #F79D07",
"^+	c #763B03",
"/+	c #75A3F7",
"(+	c #360269",
"_+	c #B47234",
":+	c #9F6B42",
"<+	c #C18433",
"[+	c #986702",
"}+	c #3D0046",
"|+	c #90ACF3",
"1+	c #6483FA",
"2+	c #471F58",
"3+	c #695A99",
"4+	c #635FCD",
"5+	c #6861B6",
"6+	c #4E3637",
"7+	c #6592F6",
"8+	c #7A73F6",
"9+	c #A668F6",
"0+	c #560679",
"a+	c #463BA6",
"b+	c #8F8BE5",
"c+	c #9694E9",
"d+	c #8F8CE8",
"e+	c #554CB5",
"f+	c #660876",
"g+	c #8982F6",
"h+	c #5D9CF5",
"i+	c #3B024C",
"j+	c #A7B7E9",
"k+	c #B9D5EE",
"l+	c #6B65C9",
"m+	c #2D106B",
"n+	c #16030A",
"o+	c #6493F9",
"p+	c #AC5DF2",
"q+	c #C45C13",
"r+	c #D9812B",
"s+	c #6C2D49",
"t+	c #AFC1ED",
"u+	c #BDDCEE",
"v+	c #6763C6",
"w+	c #500B84",
"x+	c #2E1309",
"y+	c #CC660A",
"z+	c #C85F0A",
"A+	c #648CF7",
"B+	c #BE510C",
"C+	c #DD8931",
"D+	c #E99F40",
"E+	c #FEC759",
"F+	c #7D4F59",
"G+	c #770984",
"H+	c #40200D",
"I+	c #DB810A",
"J+	c #C2560B",
"K+	c #8A3DEB",
"L+	c #EFA947",
"M+	c #F8BA52",
"N+	c #FEC148",
"O+	c #FDB41B",
"P+	c #7C483F",
"Q+	c #7B0075",
"R+	c #83007E",
"S+	c #55289A",
"T+	c #9497E3",
"U+	c #A2ADE9",
"V+	c #908CE7",
"W+	c #8A85E2",
"X+	c #5338A6",
"Y+	c #5C047F",
"Z+	c #F29E0B",
"`+	c #EC9A0D",
" @	c #9D4AEF",
".@	c #7657F9",
"+@	c #6C55F6",
"@@	c #6D4BF2",
"#@	c #C96519",
"$@	c #D47826",
"%@	c #F8B94F",
"&@	c #ECA10C",
"*@	c #7B3742",
"=@	c #95007D",
"-@	c #6E0073",
";@	c #950180",
">@	c #4B35A5",
",@	c #BFE0EF",
"'@	c #9B9EE9",
")@	c #43005B",
"!@	c #3C161C",
"~@	c #CB7811",
"{@	c #EA930B",
"]@	c #F5A20A",
"^@	c #665AF6",
"/@	c #6E5EF8",
"(@	c #B24AE9",
"_@	c #FBB83D",
":@	c #FCB426",
"<@	c #853E41",
"[@	c #7C007C",
"}@	c #460054",
"|@	c #4D231A",
"1@	c #C9871C",
"2@	c #73017C",
"3@	c #4D005D",
"4@	c #90500E",
"5@	c #C4590A",
"6@	c #BC4E0A",
"7@	c #F2AF3A",
"8@	c #6B006F",
"9@	c #B46808",
"0@	c #6E63F5",
"a@	c #590464",
"b@	c #2C0034",
"c@	c #B04F09",
"d@	c #5A4BEE",
"e@	c #43004F",
"f@	c #8A0079",
"g@	c #1E0315",
"h@	c #8C63F7",
"i@	c #690565",
"j@	c #39023B",
"k@	c #59290E",
"l@	c #788EF6",
"m@	c #9EA5E8",
"n@	c #784106",
"o@	c #92523B",
"p@	c #5A57B5",
"q@	c #51148B",
"r@	c #3D0051",
"s@	c #FFC13C",
"t@	c #830482",
"u@	c #740072",
"v@	c #A897F5",
"w@	c #6D1990",
"x@	c #7875D4",
"y@	c #52148B",
"z@	c #A0007F",
"A@	c #624DAD",
"B@	c #626CF5",
"C@	c #8675F6",
"D@	c #060100",
"E@	c #68B5F1",
"F@	c #150115",
"G@	c #637AF7",
"H@	c #480355",
"I@	c #5889F8",
"J@	c #6A9DF5",
"K@	c #5C85F7",
"L@	c #350044",
"M@	c #080002",
"N@	c #4C297B",
"O@	c #120725",
"P@	c #2C0049",
"Q@	c #2B0044",
"R@	c #6465F9",
"S@	c #3A1B74",
"T@	c #564593",
"U@	c #4E3091",
"V@	c #250057",
"W@	c #452B82",
"X@	c #7774A9",
"Y@	c #A1ABE7",
"Z@	c #4A1578",
"`@	c #420D6E",
" #	c #6C68C6",
".#	c #2E2395",
"+#	c #150D38",
"@#	c #353252",
"##	c #525962",
"$#	c #423D5F",
"%#	c #0D0514",
"&#	c #5657AD",
"*#	c #C3E4F3",
"=#	c #362B9C",
"-#	c #7875C8",
";#	c #C0E1EF",
">#	c #726BCC",
",#	c #2B208A",
"'#	c #8493CC",
")#	c #848AF5",
"!#	c #7E8AC7",
"~#	c #766DC7",
"{#	c #0A030C",
"]#	c #4C46AC",
"^#	c #A3B9DF",
"/#	c #8887DA",
"(#	c #3B31A0",
"_#	c #8D91D1",
":#	c #362A98",
"<#	c #5E4CA5",
"[#	c #3F3099",
"}#	c #867FD9",
"|#	c #9A4DF1",
"1#	c #9B76F6",
"2#	c #5A71F5",
"3#	c #AFC9E7",
"4#	c #756FD0",
"5#	c #62ABF5",
"6#	c #5F62B4",
"    . . + @   # $ @     # . % & * . + = - ; >   , * ' = ) ! ~   { { { ] # ^ / ( _ : & *   % < < [ < } | 1 # * 2 @ + . * ) * # # ",
"* + + * ) * ) ^ 3 4 5 6 . ! . 7 8 9 0 a b ! c 2   8 & d .   , e e   , @ 2 $ f 8 g _ h i ( j < i i i i j j ( k , ) 8 ) * ) ! l 6 ",
"9 5 = ! = ! 3 m n 4 4 o 6 = 9 n p 8 ~ q a m l l # r s , k } e } g   @ t # 6 u 4 u 8 7 t i i s ( ( ( { v , e   % & 8 8 ! ! 8 w x ",
"9 9 5 ! 6 ) l u ~ n 3 6 y y y y > ~ z z * c # 6 A 3 r e B C . n = v D * p 3 * ~ 6 0 5 3 #   E } } g + = 3 + + + & % & 8 5 n = x ",
"5 5 6 ! 6 4 u w 5 ) ! F y G y H I y J , K 2 @ @ m L M N O C P Q # ^ R S T ! > = ! ~ c # c 2 e U s r V e * = , % p ~ W 8 ~ 4 6 6 ",
"9 u l 6 ! = 6 0 w X Y Y X G > = . . e { , . . * ! Z `  .Z C F p ! X ..Z +.@.#.$.> * c * %.c + n 0 ~ & % % 1 @ &.W W W ~ W ~ 5 9 ",
"9 *.w w 9 > y > > =.-.;.#.>.u 6 c ,.j h } } ,   '.` ). .Z C y !.F ~...Z {.]...T ^.c @ @ c 5 4 /.F y y 5 ! = 4 W 7 &.W ' n = (.9 ",
"4 x x 9 9 > 6 ! a ' a y F _.:.<.^.[.}.|.h i s O 1.).2. .3.C 0 a > n 4. .{.5.5.6.D 7.8.G #.9.;.a W 0 > G X X X > a ~ &.n = = ~ ! ",
") * 0.0.u 4 G Y H !.a.=.x l b.L 7.c.c.8.3 { C d.1.1.2. .e.C n ' 0 9 f. .{.5.5.g.D h.i.j.k.l.m.k.X > > =.I X G H F y q n 4 4 = * ",
"= 4 4 l w - !.#.;.!.z n n.*.n.o.p.p.q.r.c.n.C d.1.1.2. .s.C 0 W & = t.s.{.5.5.g.D 8.u.v.w.k.k.l.j.m.x.y.0.y y =.X -.=.4 ) = = = ",
"> 4 6 ! G - z.a I y 0 = * n.A.i.p.B.C.D.r.c.C d.1.1.2. .3.C ~ > 0 n 4.E.{.5.5.g.D F.z ~ 9 I 9 F G.H.F n.o.y H y F 0 u 9 y y y > ",
"! # * n y 0 ' z.4 y G w 0 !.I.B.C.j.J.K.L.M.C d.1.1.2. .N.C ~.- y y O. .{.5.5.g.D *.= 8 p 4 0.0 4 5 u 4 0.;.Y I > = 6 ) 8 > > 5 ",
"6 6 = W W 0 0 ~ 8 8 = G X 8 % P.Q.R.S.p.D.T.C d.1.1.2. .N C X y y > U.s.{.5.5.g.D 8.w 5 ' ' l ~ ! 6 4 > 9 F F I h.0.w V.' ' 9 u ",
"<.w > n W W ~ n = = 8 & * 6   g } W.# # <.X.C d.1.1.2. .O C 4 > > > O. .{.5.5.g.D [.3 4 a * u 4 ! ! n = # W ' 4 w $.I $.X a 9 w ",
"w G y > 0 W W = ) +   + 7 6 6 & 8 l 6 6 ! 5 C d.1.1.2. .O C G y > 9 O. .{.5.5.g.D c 4 > + + = 4 9 u * # - - a 6 = 4 G ;.Y.V.u u ",
"4 y ;.I > n n ! * * = ~ ~ * l 8 p u w u 5 6 C d.1.1.2. .N C l.H.0.9 U.s.{.5.5.g.D ! z.5 w 4 ~ - H.8.V.Z.; y y 6 ! * W P.# c * ! ",
"> n = l 5 ~ = ! 5 4 0 0 4 3 6 ~ W = 5 u 6 ! C d.1.1.2. .N.C H.q.B.`.O. .{.5.5.g.D H 0 5 G y !. +.+q.H.0 * 8 * l ! 4 n 2 c * = > ",
"! . v + = n > 9 > > 0 0 9 0.X u.-.;.i.^.3 z C d.1.1.2. .3.C ++@+V.i.4.E.{.5.5.g.D #+X u.h.> z = % . l + * 8 # * = = 2 # 6 4 ~ = ",
"] 2 ~ a F 0 ! = 4 5 n a y #.-.H > > I $+=.%+C d.1.1.2. .s.C ] Q g &+t.s.{.5.5.g.D * y 0 *+I.n # . , m . & . ] e }   # * = 4 = @ ",
"4 - F a = * ! + % 8 ' 8 8 ) + . & p 8 F.H.0 C d.1.1.2. .e.=+8 -+;+( f. .{.5.5.g.D 8 W 3 g d c >+1 k , #   U >+  e ,++ ) 8 ) '+)+",
"n W n ! ) = 4 u * p 7 + + + 8 = = 7 & . 9 > C d.1.1.2. .3.!+~+{+]+^+O. .{.5.5.g.D n /+1 1 k k @ W.,   2 ^ k e . @ E 7 + & # > G ",
"n ' ~ ! ! * & c = n + ) 8 W n 4 > 9 . % 8 + C d.1.1.2. .(+!+_+:+<+[+}+Z {.5.5.g.D ^ e + 6 # >+k |+%   , ^ #   e 2   r } E 8 ' R.",
"> =   v , . t | 1+) ~ n 0 ' n 4 0 X B.y = = C d.1.1.2. .Z 2+3+4+5+6+..Z {.5.5.g.D 2 2 j ( , m <.u & e ++{ . 3 e + 4 ~ 1+W p &.= ",
"n u m #   | '+7+7++ 7 % ,+% % & W W 8+9+9 0 C d.1.1.2. .0+a+b+c+d+e+f+ .g.5.5.g.D % W.g+' n > 0.8.n.6 l 8 & 3 ! p n > W 8 W 1+~ ",
"8 6 <.I #.>.L = h+) + + ,+,+,+,+7 ,+,+l 5 0 i+d.1.2.1. .(+e+j+k+c+l+m+B {.5.5.g.n+#.#.A.Y ;.V.u 6 0.i.y.y.I X A.;.- 5 * 7 o+W & ",
"' F k.j.k.y.p+x &.p = = 8 & % E Q & Q 3 q+r+s+d.1.).` N.0+e+t+u+c+v+w+N. .5.5.g.x+y+z+y.Y G n.x 9 9 9 y $.>.X 4 .+9 w X G A+p n ",
"z a.~.I I x :.c.5 o+~ = = = 8 8 P Q B+C+D+E+F+d.1.).+.d.G+e+t+u+c+v+w+5.N g.5.g.H+-+-+I+J+$.i.i.`.$.X y I 0.w G > u = n V.!.a a ",
"!.W & + 6 <.0.K+T.y ) 8 n 5 4 n q+r+L+M+N+O+P+d.1.Q+O R+S+T+u+U+V+W+X+Y+O M g.g.H+-+Z+{+`+I+J+ @B.*+I F I h.#..@.@C.l.X !.-.; +@",
"G > = 8 4 X @@#+D.K.8.n + v #@$@%@%@N+O+{+&@*@{.=@'.-@;@>@U+,@'@V+c+e+Y+{.M )@].!@~@{@]@{+{+]@~+y+F.0.> n #.i.Y X .+H.y.;.^@Z..+",
"4 > X -.+@/@0 u x M.(@n.q+$@L+E+_@:@{+{+`+<@` [@Q+ .=@;@>@U+,@'@V+V+e+Y+5.N.M ].}@|@~@Z+{+{+{+{+Z+~+y+I F a $.> > I G G ;.a.6 * ",
"X =.-.y 4 ) . @ # 2 B+C+D+E+_@:@{+{+{+{+1@].=@2@Q+].).;@>@U+,@'@V+V+e+Y+5.N.M 3@E.U.4@{@{+{+{+{+{+{+{@I+5@0 5 w a > u H +@X I .@",
"G - ! * * ! ! ! 6@$@D+%@M+7@]@]@]@]@]@`+s+[@5.{. .[@8@[@>@U+,@'@V+V+e+0+N.{.Z )@3@}@!@9@{@]@]@]@]@]@]@]@{@~+6@0 X <.0@x.u.#.;.G ",
"> > u 5 5 6 5 B+6@J+q+q+q+5@5@5@5@5@5@4@a@R+5.d.].1.=@=@>@U+,@'@V+V+e+Y+5.5.N.)@3@3@b@x+c@5@5@5@5@5@5@5@5@J+6@B+B+=.d@.+u u 5 5 ",
"y 4 9 0.5 6 = 6 u <.u 6 u 7.A 4 l ~ F e@f@5.5. .=@f@f@;@>@U+,@'@V+V+e+Y+g.d.5.s.)@3@3@g@) ) + % @ 7 n I 9.; u.H.l.^@= . * 5 9 9 ",
"5 5 = 9 *+0.w 5 6 l %.#   * L >.h@J+!+i@[@5.5.Z =@f@f@;@>@U+,@'@V+V+e+Y+g.d.5.s.)@3@3@j@k@6@2 l@~ 7+Q + W 8 e g + # @ . ) = = 4 ",
"9 9 > n 9 $.8.9 w w L 7.I H .@q+$@_+i@;@5.5.5.Z =@2.2.;@>@m@u+m@V+b+e+Y+5.5.5.s.)@3@3@3@t.n@;+J+y 5 7 % 7 . + +   . = 0 y > > G ",
"5 4 5 . % + <.0.0.n.x *.G F #@L+7@o@-@[@5.5.5.Z =@-@-@).G+p@t+k+c+l+q@5.d.e.5.s.)@3@3@3@r@k@I+{@;+# % & p   & + ) ~ a n ) 8 = = ",
"    + u 5 + ) 4 9 *+p.F.#@r+L+s@1@a@R+5.5.5.5.Z =@8@8@).t@e+t+u+c+v+w+5.d. .5.s.)@3@3@3@3@b@4@`+Z+~+;+p & & + & % % % v } /+%   ",
"+ + + & 6 u ) & + ) <.6@q+r+r+~@*@u@2@5.5.5.O N =@f@f@).t@e+m@U+c+v+w+5.{.d.5.s.M 3@)@3@3@e@|@9@~+~+z+6@+ /+7 ! + % %   . % % + ",
"& 8 * ) % * 6 + +   ^ v@<.8.n.5  .R+{.5.5.5.Z B =@).).).1.w@l+V+x@S+{.5.5.5.5.N B )@3@3@)@3@@.F 6 > w 9 <.u 7+) 4 *   % ) ) % % ",
"7 + ) = ! ) . * + . c %.* 6 l  .[@O s.3.5.O C B =@).f@` 2.2.y@x@>@{.5.d.d.5.5.N C N 3@)@N M }@@.w ) . # 4 ;.-.> 4 u 5 W = ! = 8 ",
"8 8 & ) ) 6 6 3 + . ^ c *  .].[@d. .5.s.d.].M B =@f@].].u@z@G+A@y@5.d. . .d.5.N B  .)@N )@M M 3@@.T w > B@C@* 3   + 5 = ) ! ) 8 ",
"8 & & & ) ) ! <.* * %.C M ` =@5.{.N. .N.s.].].B =@8@-@=@E.1.z@q@{.5. .d.d. .5.N s.N.B M N M )@3@E.e@T D@} i , ^ |+E@s     + = = ",
"~ a y > 4 ) . # 6 # '.Q+Q+[@5.5.5.g.O e.N.].].'.].=@'.E.` 1.=@R+R+5.{. . .{.N.N.Z N.N M M )@3@3@3@3@}@}+t.W + 6 A * : g } s % ) ",
"a n = 4 9 w <. .Z ].[@2@2@5.5.5.d.N.s.d.d.].].u@ .).=@=@1.).8@Z N.5.5.5.{.5. .O Z N.M )@N M )@3@3@3@3@3@3@t.F@F@<.n.= & . & o+G@",
"8 8 8 8 ) # E.[@R+5.5.5.5.5.d.N. . .5.5.d.].].u@ .` ).Q+=@1.).f@[@5.5.3.5.{.s.3.Z N.M 3@3@M s.M M 3@3@3@3@3@3@H@@.<.0.0 4 ~ I@J ",
"p W ~ 4 8@].-@2@5.5.5.5.{. .]. .Q+ .5.5.d.].].u@B +.).Q+=@).u@+.].5.5.3.5.N.C 3.Z N.M 3@3@M N.s. .N )@3@3@3@3@3@}@S S F@! ! 1+&.",
"p p B u@[@2@5.5.5.5.N.s. .].8@+.u@ .5.5.d.].].u@E.'.u@).=@1.f@g.{.5.5.5.{.e.Z O Z N.M 3@3@M N.Z 3.Z  .N N 3@3@3@3@3@3@i+D 4 G@W ",
"J@K@'.[@5.5.5.5.5.5. .u@E.8@8@+.Q+ .5.5.d.].].u@+.8@8@=@'.2.f@` Q+5.N.{.d. .e.3.Z N.M 3@3@M N.Z 3.e.e.O N 3@3@3@3@3@3@3@L@M@P.g ",
"a.K@8@[@5.5.5.5.5.5. .+.M E.E.M +.s.N.N. . . .+.M E.E.=@2.).u@ .N.5.5.5.e.s.s. .N Z N M M N Z N  .s.s. .N 3@3@3@3@3@3@3@}+M@n.H ",
"#.- 8@[@5.5.5.5.5.5.d.N.N.N.N.N.N.N.N.N.N.N.N.N.N.N.s.` ).2.1.=@R+5.5.{.B M M M M M M M M M M M M M M M )@3@3@3@3@3@3@3@}+M@-.@@",
"0.!.8@R+Q+N.2@5.[@-@3.2@5.R+].{.2@5.R+O 5.5.5.5.5.{.Z ` f@u@8@ .O 3.3.{.N }@3@3@3@3@].Z 3@E.3@].M 6.3@+.].M +.)@+.N.)@+.}+M@a.I ",
"I F ].-@8@N -@M g.]. .u@Z -@ .O 8@Z u@Z 3.{.{.d.0+N@N@Q+=@f@=@5.{.{.{.d.m+O@U.}+e@}@H@P@i+r@L@H@Q@e@i+L@}@Q@e@Q@}+r@Q@}+S M@R@I ",
"y X C C S@3+T@U@m+m+C C C C C C C C C C V@ .e.W@X@u+Y@Z@u@].).[@5.N.N.`@ #.#m++#T t.D@M@M@M@M@M@M@M@M@M@M@O@@###$#@#+#%#M@k.H w ",
"F ! u 4 &#*#U+W+=#.#Y > ! 5 w W ! m * 3 * s.N -#,@;#U+Z@u@s.].{.e.N N.`@>#.#.#,#F@T 8.n.$.$.n.x > n 0 a ~ &.'#*#'@l+.#% )#R.u > ",
"m + * ! = !#U+e+.#$.5 ! 4 = 5 4 # # # # >+  C ~#k+;#j+'#N@~#W@O S@~#U@A@x@.#.#,#{#D@8.*+$.$.$.y.i.H y 4 (.' ]#^#/#(#.#= + 8 G y ",
"3 ! = n 0 p@_#(#.#p.n.G 9 > y w <.u 6 m m * C :#T+u+u+&#T@c+<#N.U@c+<#[#>#.#.#,#%#9 x n.0.X #.0.`.Y.I X ; X .#!# #.#z 9 6 8 ) # ",
"* 4 > n ~ .#.#.#8 F.n.9 9 F 9 x x x <.<.G A.j.=#T+u+u+&#j+V+b+W@}#V+b+]#>#.#.#.#$.B.>.$.#+I.8.0.-.i.$.G 0 > R@.#.#.#n 5 x 0 6 3 ",
"u 8 = ~ = 8 8 & ,+* x G X y 9 n.*.<.^.y .@@@l.=#T+u+u+p@j+V+b+W@}#V+b+]#>#.#.#.#0 $.B.I.-.I.|#o.F x *.5 ~ n q = ~ ' . & ! * 3 u ",
"6 = n 4 8 ! +   %   = 0 5 6 * 3 o [.6 q 0@> 5 C.e+j+,@j+U+j+b+a+/#V+V+x@a+.#.#n a F #.I.Y.$.A *.5 9 n.8.> ' & 7 a 0 5 = . # . ) ",
"! = ~ = = = 6 + & & 8   2 2 >+v }.}.~ q 8 ) ~ ) a+U+*#u+m@j+b+p@W+V+V+W+=#.#.#p 7 p n X 0.1#L F.V.4 w n.;.X w 2#B@u u 5 u 6 6 = ",
"4 5 = = 8 8 6 u 8 & e v v ^ ^   ^ 3 G@(.* 8 + @ (#-#'#3#U+t+V+4#b+V+V+l+:#.#.#W 4 & 5#J@m 5 8.X.B.>.V.0.F 6 >  +* * * * 6 6 5 > ",
"* ! = ! = = ! 6 .     , , K . ) ! 5 W 8 = + + 4 = 8 &.6#p@5+e+=#e+e+e+=#R.u 8 7 ~ G ! P @ % = G I.c.$.$.9 w > 7 = 6 * * ! 4 4 ! ",
") = * + + + . # # @   , ] @ + 8 ! 5 n + @ . z.> V.6 p p .   & 7+k k { 1 U 2 , s 5#/+6 7 @ & p 4 (.F.8.0.9.h@n.!.) 6 5 = 5 ! * * "};
