/* XPM */
static char *_f7e6e24c7424186debed25fba37dc7376I6b3CnRUNwfPqZ[] = {
/* columns rows colors chars-per-pixel */
"80 80 13 1 ",
"  c None",
". c #080101",
"X c #260058",
"o c #4D005D",
"O c #6C007C",
"+ c #BE500B",
"@ c #E38F0D",
"# c #FBAB0A",
"$ c #FEC459",
"% c #2E2395",
"& c #9F0080",
"* c #918DE7",
"= c #BFDFEF",
/* pixels */
"                                                                                ",
"                                                                                ",
"                                                                                ",
"                                    X     .                                     ",
"                                   XX     ..                                    ",
"                                 XXOX     .&..                                  ",
"                                X&XOX     .&XO.                                 ",
"                              XX&&XXX     .XXOO..                               ",
"                             X&&&&XOX     .&XOOOO.                              ",
"                            XO&&&&XOX     .&XOOOOO.                             ",
"                            XO&&&&XOX     .&XOOOOO.                             ",
"                            XO&&&&XXX     .XXOOOOO.                             ",
"                            XO&&&&XOX     .&XOOOOO.                             ",
"                            XO&&&&XOX     .&XOOOOO.                             ",
"                            XO&&&&XOX     .&XOOOOO.                             ",
"                            XO&&&&XXX     .XXOOOOO.                             ",
"                            XO&&&&XOX     .&XOOOOO.                             ",
"                            XO&&&&XOX     .&XOOOOO.                             ",
"                            XO&&&&XOX     .&XOOOOO.                             ",
"                            XO&&&&XXX     .XXOOOOO.                             ",
"                            XO&&&&XOX     .&XOOOOO.                             ",
"                            XO&&&&XOX     .&XOOOOO.                             ",
"                            XO&&&&XOX     .&XOOOOO.                             ",
"                            XO&&&&XXX  +  .XXOOOOO.                             ",
"                            XO&&&&XOX +#+ .&XOOOOO.                             ",
"                            XO&&&&XOX+@##+.&XOOOOO.                             ",
"                            XO&&&&XOX@@###.&XOOOOO.                             ",
"                            XO&&&&XXX@%%%#.XXOOOOO.                             ",
"                            XO&&&&XOX%***%.&XOOOOO.                             ",
"                            XO&&&&XO%*****%&XOOOOO.                             ",
"                            XO&&&&XX%*==**%XXOOOOO.                             ",
"                          ++XO&&&&XO%*==**%OXoOOOO.++                           ",
"                        ++$$XO&&&XOO%*==**%OOXOOOO.@@++                         ",
"                      ++$$$$XO&&&XO&%*==**%OOXoOOO.@@##++                       ",
"                    ++$$$$##XO&&XO&%*==****%OOXoOO.@@####++                     ",
"                  ++$$$$####XO&&X&&%*==****%OOXooO.@@@#####++                   ",
"                ++$$$$#####X&O&XO&&%*==****%OOOXoOo.@@#######++                 ",
"              ++$$$$######X&&O&X&&&%*==****%OOOXoooo.@@########++               ",
"            ++$$$$########X&OO&X&&&%*==****%OOOXoooo.@@##########++             ",
"          ++$$$$$########X&OOOXO&X&%*==****%OXOOXoooo.@@###########++           ",
"        +++++++++++++++++X&OOOX&&&&%*==****%OOOOXoooo..++++++++++++++++         ",
"                        X&OOOX&&&&&%*==****%OOOOOXoooo.                         ",
"                       +X&OOOX&&X&&%*==****%OOXOOXoooo.+                        ",
"                     ++X&OOOOX&&&&&%*==****%OOOOOXooooo.++                      ",
"                   ++$X&&OOOOX&&&&&%*==****%OOOOOXoooooo.@++                    ",
"                  +$$#X&OOOOOX&&X&&&%*==**%OOOXOOXoooooo.@@#+                   ",
"                ++$$#X&OOOOOOX&&X&&&%*==**%OOOXOOXooooooo.@@#++                 ",
"              ++$$$##X&OOOOOOX&&X&&&%*==**%OOOXOOXooooooo.@@###++               ",
"             +++++++X&OOOOOOXX&&&&&&%*****%OOOOOOXXooooooo.+++++++              ",
"                    X&OOOOOOXX&&&&&&&%***%OOOOOOOXXooooooo.                     ",
"                   X&OXXOOOXXX&&&&&&&&%*%OOOOOOOOXXXoooXXoo.                    ",
"                 XX&OXOOXOOXXX&&&XX&&&%*%OOOXXOOOXXXooXooXoo..                  ",
"                X&&OOXOOXOX&XX&&X&&X&&&%OOOXOOXOOXXOXoXooXoooo.                 ",
"             XXX&&OOOOXXOXX&XX&&X&&X&&&%OOOXOOXOOXXOXXoXXoooooo...              ",
"            X&&&OOOOOOOOXOX&X&X&&XX&&&&&&OOOXXOOXOXOXoXooooooooooo.             ",
"         XXX&OOOOOOOOOXXOOX&X&X&&&&&&&XXXOOOOOOOXOXOXooXXoooooooooo...          ",
"        X&&OOOOOOOOOXXOOOOX&X&X&&&&&&&&OOOOOOOOOXOXOXooooXXooooooooooo.         ",
"     XXX&OOOOOOOOOXX&XOOOOX&X&XX&&X&&&&&&OOOXOOXXOXOXooooXOXXoooooooooo...      ",
"    X&&OOOOOOOOOXX&X&XOOOOX&X&XX&&&&&&XXXOOOOOOXXOXOXooooXOXOXXooooooooooo.     ",
"  XX&OOOOOOOOXXX&X&X&XOOOOX&X&X&X&&&&&&OOOOOOOXOXOXOXooooXOXOXOXXXooooooooo..   ",
"  X&OOOOOOOOOX&X&X&X&XOOOOX&X&X&X&&X&&&&&OOXOOXOXOXOXooooXOXOXOXOXoooooooooo.   ",
"  X&OOOOOOOOOX&X&X&X&XOOOOX&X&X&X&&&&&XXXOOOOOXOXOXOXooooXOXOXOXOXoooooooooo.   ",
"  X&OOOOOOOOOXXXXXXXXXXXXXXXXXXXXX&&&&&OOOOOOXXXXXXXXXXXXXXXXXXXXXoooooooooo.   ",
"  X&OOOOOOOOOOOOOOOOOOOOOOOOOOOOOX&&&&&&&OOOOXoooooooooooooooooooooooooooooo.   ",
"  X&O&XOOOO&XOOOO&XOOOO&XOOOOOOOOX&&X&XXXOXOOXoooooooOXooooOXooooOXooooOXooo.   ",
"  X&O&XO&XO&XO&XO&XO&XO&XOOOOOOXXX&&&&&OOOOOOX..oooooOXoOXoOXoOXoOXoOXoOXooo.   ",
"  XXXXXXXXXXXXXXXXXXXXXXXXXOXXX==*X&X&&OOOXOX*%%...o.........................   ",
"     %==**%%              XOX*===*X&X&&OOOXOX*%%%%.o.              %==**%%      ",
"     %==**%%               XX*===*X&XXXOXXXOX*%%%%..               %==**%%      ",
"      %=*%%                XX*===*=X**XOX**X**%%%%..                %=*%%       ",
"      %=*%%                 X%*===%X**XOX**X%*%%%%.                 %=*%%       ",
"      %%%%%                  %*===%=***X****%*%%%%                  %%%%%       ",
"                             %*===%=***X****%*%%%%                              ",
"                             %*===%=***X****%*%%%%                              ",
"                              %*===*=**%*****%%%%                               ",
"                              %*===*=**%*****%%%%                               ",
"                              %*===*=********%%%%                               ",
"                              %%%%=*=**%****%%%%%                               ",
"                                  %%%%%%%%%%%                                   ",
"                                                                                "
};
