/* XPM */
static char *b9aa743f8b7546a3cf238875627cc1985sDo7yYD2cDMExV2[] = {
/* columns rows colors chars-per-pixel */
"64 64 227 2 ",
"   c #6F3FEE",
".  c #5A4BEE",
"X  c #5059EE",
"o  c #5F59F4",
"O  c #6948EF",
"+  c #7241EE",
"@  c #765AEF",
"#  c #6D4BF2",
"$  c #734BF3",
"%  c #7C4CF4",
"&  c #7D47F5",
"*  c #6553F3",
"=  c #6C55F6",
"-  c #665AF6",
";  c #6A5CF5",
":  c #6E5EF8",
">  c #7454F5",
",  c #7C53F5",
"<  c #725BF6",
"1  c #7D5BF6",
"2  c #7657F9",
"3  c #7E57F8",
"4  c #735DF9",
"5  c #7C5DF9",
"6  c #5C64F2",
"7  c #5C6DF7",
"8  c #5A71F5",
"9  c #567BF5",
"0  c #5D7CFA",
"q  c #5B77F8",
"w  c #6163F6",
"e  c #6E63F5",
"r  c #626CF5",
"t  c #6B6CF7",
"y  c #6465F9",
"u  c #6C64F9",
"i  c #656BF9",
"p  c #6D6CFA",
"a  c #7461F7",
"s  c #7D6AF6",
"d  c #7464FA",
"f  c #7C64FA",
"g  c #746CFB",
"h  c #7B6CFC",
"j  c #7A67F6",
"k  c #6E7DF4",
"l  c #6374FA",
"z  c #6C74FC",
"x  c #647BFB",
"c  c #6C7BFC",
"v  c #637AF7",
"b  c #7A73F6",
"n  c #7474FC",
"m  c #7C74FC",
"M  c #747CFC",
"N  c #7C7CFD",
"B  c #787BF7",
"V  c #8A3DEB",
"C  c #943FED",
"Z  c #A63FE6",
"A  c #8445EF",
"S  c #8F43EE",
"D  c #9D4AEF",
"F  c #9745EF",
"G  c #8345F2",
"H  c #834CF3",
"J  c #8A4CF3",
"K  c #924DF3",
"L  c #9A4DF1",
"P  c #8554F6",
"I  c #8B53F5",
"U  c #845CF5",
"Y  c #8C5BF7",
"T  c #8355F8",
"R  c #8D57F8",
"E  c #845DF9",
"W  c #8B5CF9",
"Q  c #9454F5",
"!  c #9B54F2",
"~  c #945CF6",
"^  c #9B5DF6",
"/  c #9056FA",
"(  c #935EF8",
")  c #A643E9",
"_  c #A54CEC",
"`  c #B24AE9",
"'  c #A354EF",
"]  c #A755ED",
"[  c #B75DED",
"{  c #A254F1",
"}  c #A35DF5",
"|  c #AC5DF2",
" . c #8C63F7",
".. c #896CF7",
"X. c #8464FA",
"o. c #8B64FA",
"O. c #836CFC",
"+. c #8B6CFB",
"@. c #8467F6",
"#. c #9162F6",
"$. c #9A62F6",
"%. c #966BF6",
"&. c #9E6BF6",
"*. c #9364F9",
"=. c #9A65F9",
"-. c #936BFA",
";. c #9B6BF9",
":. c #8C75F6",
">. c #8474FD",
",. c #8B74FC",
"<. c #837CFD",
"1. c #8B7CFC",
"2. c #8675F6",
"3. c #9173F7",
"4. c #9373FB",
"5. c #9A74FA",
"6. c #937BFB",
"7. c #9A7CFA",
"8. c #9B76F6",
"9. c #A46BF5",
"0. c #A668F6",
"q. c #A672F7",
"w. c #AE79F4",
"e. c #A274F9",
"r. c #A47DF5",
"t. c #5C85F7",
"y. c #578BF5",
"u. c #5889F8",
"i. c #5D95F6",
"p. c #5D9CF5",
"a. c #5D91F9",
"s. c #6381F7",
"d. c #6C86F2",
"f. c #648CF7",
"g. c #698AF6",
"h. c #6483FA",
"j. c #6C83FC",
"k. c #648BFA",
"l. c #6C8BFB",
"z. c #7B83F6",
"x. c #788EF6",
"c. c #7483FC",
"v. c #7C84FD",
"b. c #748BFC",
"n. c #7C8BFD",
"m. c #6592F6",
"M. c #629CF5",
"N. c #6A9DF5",
"B. c #6493F9",
"V. c #6D93FA",
"C. c #6499F8",
"Z. c #6C9CF9",
"A. c #7D96F7",
"S. c #769CF6",
"D. c #7A9EF6",
"F. c #7493FB",
"G. c #7C93FC",
"H. c #749BFA",
"J. c #7C9BFA",
"K. c #5DA5F2",
"L. c #65B3EF",
"P. c #7CBCEE",
"I. c #64A4F6",
"U. c #6CA3F6",
"Y. c #62ABF5",
"T. c #6BACF4",
"R. c #6DA2F8",
"E. c #75A3F7",
"W. c #7BA5F7",
"Q. c #72ABF5",
"!. c #7BABF5",
"~. c #74A3F9",
"^. c #7CA2F9",
"/. c #6DB5F0",
"(. c #68B5F1",
"). c #7CB3F2",
"_. c #7CB9F1",
"`. c #70B3F3",
"'. c #79C3ED",
"]. c #8285F7",
"[. c #8982F6",
"{. c #848AF5",
"}. c #8384FD",
"|. c #8B84FC",
" X c #838CFC",
".X c #8B8CFC",
"XX c #8B8FF4",
"oX c #9B8AF7",
"OX c #9283FB",
"+X c #9B83FA",
"@X c #938BFB",
"#X c #9B8BFA",
"$X c #908CF5",
"%X c #8595F6",
"&X c #849BF6",
"*X c #8D9CF7",
"=X c #8393FB",
"-X c #8B93FB",
";X c #829DFA",
":X c #849BFA",
">X c #8B9BFA",
",X c #8A94F7",
"<X c #929CF7",
"1X c #9B9AF7",
"2X c #9494FA",
"3X c #9B93F8",
"4X c #929BF9",
"5X c #9899FB",
"6X c #AA8DF6",
"7X c #A386F9",
"8X c #A983F7",
"9X c #A897F5",
"0X c #81B4EF",
"qX c #86A7F6",
"wX c #83A4F6",
"eX c #8BA3F7",
"rX c #84AAF6",
"tX c #8BACF5",
"yX c #83A3F9",
"uX c #8CA1F9",
"iX c #88A9F9",
"pX c #92A4F7",
"aX c #9AA6F5",
"sX c #90ACF3",
"dX c #90A2F9",
"fX c #83B3F2",
"gX c #8DB1F2",
/* pixels */
"J.J.=X=XG.:XJ.-X1X:XJ.J.-X=XH.F. X=XG.v.p ; m J.;X Xc v.n.}.c.J.wXwXwXuX-X4XgX!.L.I.F. XJ.H._._.P._.W.&XeX-X X>X:XG.=X Xn. X-X-X",
" XG.G. Xn. Xn.4X.XN <.|.=X}.=XV.b.>.n z 7 }.2X>XJ.b.F.%X=XJ.;X^.^.J.;X:X>X1X$Xb.~.L./.).!.fX_.).).).).fXfX!.rX;Xn.b.n. Xn.}.OX|.",
">.<.v.}.v.}..X@XM N N 7.|.v.>.M l.b.c.l z @XOXOX-XT.Q.;XrXW.^.W.~.J.:XqX-X|.1.N 1.b.V.qX).).Q.!.!.!.wXyX;X^.J.H.F.b.b.}.}.b.,.4.",
">.>.<.}.|.n.OX1.c.M .X|.h h h h m c.i i  X2X-X|.e..XT.^.qXE.=XM v.yXpX Xl..X Xc.|.n <..X-XJ.R.W.W.~.G.v..XG.G.G.F.H.F.b.<.M v.4.",
"<.<.|.}.|.N 1.,.<.n.}.g h O.h d X.h s.;XdX>X:X:X@X;.>.=X>X^.M.C.-X4Xb.M <.}.m v.}.c.2X-X2X>X^.iXQ.T.U.^. Xv.;XH.l.c.j.b.c.N |.|.",
">.1.OX|.}.v.|.n ,.f 4 4 f O.m v.=X=X^.wX;X=X=X X}.1.4.,.O.E g l.}.f = > % P E o.m  X2X X#X2XG.M n c.F.H.H.eX:Xk.j.j.j.c.j.c.<.>.",
">.5.,.,.>.m h m m a < 5 E W 1.|.2XaXfX/.W.W.;XJ.J.=X-X}.M m h u g t n n n +.U $.+X2X:X:X2X<.N 0 g h h <.}.v.N j.V.k.j.c M v.B >.",
"N 4.4.>.>.m |.}.z c z h g %.9.6.+XoX3XS./.).Q.rX_.!.F.b.c.M n z m M b.j.b.<.v.r.q.=.*.O.E 1 5 z j.n m O.f f f m z c.k.M v.v.c.}.",
"n. X+.+.1.N O.4 d u w a 4.OXq.;.=.} } *..XwXQ.qXD.i.k.M M M M c n >.M c c N >.5.=.( R G % J H % f m m a X.f O.d g h l M N N v. X",
"v.N N OX,.p u E 5 u i M -.5.-.~ ^ ^ ! { } -.n d f c.N.U.Z.c.n j.F.v.M M c.M m  .Q *.> + S % % J G H O I +.h h a f < a N n.v.v.v.",
"m N |.}.O.p x z X.h n v. X-.T R ^ Q K _ { } m x f E 5 b g.a.c.m n M c.c.M c.j.z 9.&.i c.>.X.>.g j U g -.~ h d h g n 1.>.h h h m ",
"}.-X XM h n c x N h O.,.n u P Q K G C ) ] ' K a u > % & $ e t p h h m M M N c.V.@X5.v.b.l.N +.n N <.1.N +.5 4 X.m v.|.n.b.m m <.",
"|.|.v.j.j.n n c.b.b.v.O.f b.H.z.@.:.3.^ _ Z L % * # G % $ > f h h m m n M N N j.m *.,.<.c c OXc.}.|.N m >.g g X.( +.,...c c >.1.",
"6.,.m M j.j.c.M v.v.b.F. X|.J.~.W.5X-X-X6.$._ H * a X.X.m >.N m m m m n N N N M l.oX.XN z  X1.N }.}.M v.-Xj.c N ,.o.X.o.f z >.,.",
",.O.h m n j.j.v.n.G.J.G.V.|.|.F.b.OX|.|.}.<.4.X.m N N >.m O.O.h m >.N M <.N v.b.n.2XN m G.G.v.N >.1. X-Xp p z |.v.N O.5 3 ..1.1.",
"N h 5 X.m M M }. X Xv.c.c. XOXb.l.1.,.1.<.|.|.h f d 5 +.m ; J U +.>.<.M <.}. Xb.-X}.x <.,.N c.p U *...* ; h h |.}. Xj.z.-X2X X}.",
"m M v.OX<.c.v.}.<.N n n N .X|.c.j.v.<.1.|.}.u 2 1 f ..4.u X U ! Q Y f X.O.+.h s ,.d n <.O.h u 6 s ! U n  Xb. XOX}.N M >X2X Xv.m ",
"}.=XyXG.v.M m >.m m n n >.+.f > < 5 R +X.Xi t .XJ.;X=X<.l f.tXA...R ~ ,.,.<.N c.4 , f > ( m i v.H.=XOXG. Xb.-X Xv.v.>X-X|.N c.v.",
"uX>Xc.z g n }.v.N <.M z h E < d m m X.[ a o OX6.2.v.N N j.yXuXC.~.D.2.~ ;.O.>.p c  Xh n #.P M -X=X;X@X=XF.=XuX^.W.J.-X Xv.N v.:X",
"N p g z v. X}.G.H.b.c b.b.n.G.=XF.l.b.&.U n +.5 R R h >.-X-Xb.b.yX!.Y.-X,.5 %.b. Xb.j..X~.%X2X*XeXrX;X-XJ.iX*XJ.^.Z.G.n.b.n.<X,X",
"M j.M }.n.v.N 1. Xl.V.G.G.G.b.v.v.V.F.=X>.m >.|.}.<.+.6.6.<.}.G.v.}.R.!.E.~.oX}.b.M E.eXeXrXrX:X5X;XJ.>X4XrX^.=X:XR.V.G.F.-Xm O.",
"M c c.}.}. XF.2Xv.M G.n.b.j.M N m >.=XH.b.G. X}.m h O.*.-.OX.X=XF..X:XJ.H.Z.n.|.c.4X^.G.|.-X*XrXsXH.J.;X4X-XJ.^.>XJ.T.W.R.b.c :.",
"m v.J.yX;X=XqX&Xh.n.c.M n c M N n f Q h v.v.N p < o.,.1.*.0...+.N |.<.M v.F.eXtXQ.>X>XfX!.;X@X6.1.F.^.tXwX=X.X^.G.N c.h.j.l.k.v.",
"M 1.@X-XJ.&X<Xm.m.G.V.H.Z.H.H.F.j.j.b 0.>.n n j.J.-X|.<.N Y K ( E -.1.M <.m 8.,.c.H.5X[.c M m +.*.-.|.OXb.F..X}.l.M m j.b.j.h.c.",
"b.|.6.X.E W ;.v.p.n.G.G.Z.Z.Z.Z.V.Z.Z.OX<.n N <.c.m f 5 *.N >.! R ;.W d f h =.R T E E T 4 5 ..1.|.+.R I I X.f T 5 p <. XV.B.j.F.",
"c g % G % I | 4.k.l.v.v.b.F.H.R.C.F.C..Xz.t X.f h v.n.b...Y g O.Q L Y s OXv.N U I H H I 4 O.-.4.>.>.>.h o.W f N s >.,.f O.f.l.M ",
"i w t X.X.4.9.} <.B.c.v.v.v.b.b.M.C.F.:Xx.K.G.m ,.,.n M b.v.<.}.v.3.9.:.X.E h c m 3 P R ..o.R R Y o.f h X.+.,.O.m 1.v.M ..u z z ",
"u j.F.G.|.6.+.V Z h n.b.M <.N M c H.~.J.J.N.p.B.}.+.O.N M m <.<.m 1.$.I 3 P J o.c.G. X<.X.2 > D Q #.X.g X.( E 2 2 K J f u < ; = ",
"O.m v.b.N f # , _ ) *.M G.yXE.V.G.J.V.:XJ.a.b.L.T.J.=X XG.J.-Xn.G.>X=X X|.v.<.@.( m a f n m v.>.{ &.+.m M E R 4 f s U I 5 - * s ",
"N m f < = : n 1.4.' ` -..X.XG.i.n.n.b.>XF.u.v. XM.Z.:XJ.J.J.G.F. X,.<. Xn.v.<.b.1.f z ,.>.>.N b.7.w.N X.g z o.m m X.O.O.5 w |. X",
"f a < h N n.=X:X-X>Xr.0.=.+.>.k.F.n.;X=Xh.a.J.n.b.Z.H.G.G.J.G.G.F.b.OX<.v.n.G.v.}. XJ.F.v.m 4.N 1.| ..n X.n <.,.z m 1.d = f X.2 ",
"O.p }. X X}.}.}..X@X.X5.&.;.,.v.l.>X=Xl i N v.b.c.v.H.V. X>XQ.H.F.J.G.}. X XG.F.=X-Xb.F.J.~.-X Xn.>.} M n >.=Xn f 6.e O > E 5 O.",
"m m 1.<.<.|.<.1.OX6.1.,.;.e.6.m <.|.x q  XS.c.|.H.J.;XI.b.5.].C.H.H.b.|..X Xv. XG.N v.G.G.G.F.}.v.n.6.o.M :.@ e N a . s 1.1.<.<.",
"h N >.+.<.|.v.|.1.6.1.|.1.=.e.N OXc.g Z.J. XL.=X.XwX^.M.T.F.X.>. XS.Z.n.|.}.b.<.v.F.-XG.n.n.G.H.:XV.M X.1 ; > U J - v.=X X<.>.>.",
"<.<.v.>.#.+.,.<.|.OX#X-XJ. X;.W  .e < ( M OXv.U.>X|.c.V.Z.I.R. XN @.p v.}.}.v.v.1.}. XG.F.=X>Xx.c.m.C.G.j.b.^.~.G.-X:X=Xn.v.v.N ",
">.>.m M >.o.*.>.,.,.;.=.X.d 2 J J > , J S R E X.f g h N b.F.~.W.R.l.v.>.<.<.n.b.v.>.o.o.s m 4 4 h <.V.H.V.=XG.G.J.=Xv.n h m m O.",
"<.N <.=XH.G.6.+.+.-.4.5.O.g v. X|.z p f I D I T E X.>.,.N }.v.b.l.Z.~.F..X-Xv.M M N h X.E 5 h >.|.-XH.F.l.J.F.G.n.c.z M n.b.v.v.",
"J.J.G.1.<.G.n.N >.#.^ &.OXqX~.=XG.l.H.W.^..X4.,.>.+.,.,.<.}.v.b.b.b.j.G.uXF.x n N M M <.<.<.}.2X2X}.v.l.F.F.G.F.H.H.H.yXW.E.H.J.",
"G.G.G.F.|.1.n.F.G.n.6.w.w.6.F.^.J.E.rX0XP.'.).=Xn.|.|.1.1.<. Xb.M c.H.;Xv.c l.G.n.n.G.G.n. X2X XO.m >.<.G.E.V.}.G.H.H.J.=XH.H.G.",
"F.b. Xn.H. X|.G.G.J.4X9X6.*.-.<.N h O.o...:.N.`.E.;XG.|.=X.X.X^.m..X{.k l M v.G.G.&XD.J.J.uXz.g |.m ,.>.6.1.m.n.N  XJ.H.n.n.H.H.",
"V.G.n.v.}.n.=X XG.=X2X#X X|.OX1.i 4 +.,.+.-.;.{.U.W.rXtXaX!.A.b d.b.u u z m >.>.<.<.<.c.v.h y >.,.n.=X-XN 5 < m N 1.<.j.v.}.v.b.",
"b.b.F.n.n.|.|..XG.=X4X2X X.X2X=Xt.:X-X X.X|.4./ X..X].B 1 +   $ H 3 c b.l.b.<.|. X:XG.b.j.c z f *.*.,.m r 2. X.XJ.G.<.v.n.}.n.b.",
"b.F.F.F.n.n.}.6. X X#X.X=X.X#XG.C.=XG.=X X}.|.}.@X+.< = - u g f d X.3 5 f N N ,.,.O.d 4 g p l M X.Y ^ -.W.).;X4XsX(.Q.J.J.G.v.v.",
"c.z h m N n.=X-X|.-X2X.X X.XOX|.m.b. X=X>XyXJ.>Xv.p u u g n M n <. XG.G.v.N n +.,.h n M z.k <.b.n..X7.8X+Xj.G.|.e. XI.~.W.Q.H.n.",
"z M v.N >.,.6.|.-X-X.X}.|.|.<.+.<.J.J.=X|.g ,.h p z z M  XM c.M |.1.<.v.b.n.V.v.,.N  X=Xn.R.Z.c.v.}.@X6X#Xb.v.=X6.-.v.F.=XF.B.v ",
"b.b.b.b.n.-X|.X.Q H P ~ ,.m h +.+.o.m v.b.b.|.n g z N v.M v.c.b.|.v.m O.O.>.N k.<.|.}.N N N h.l. X-XaX1X|.m .X Xn.6.+.n N c.u.s.",
"l.j.c.N |.<.g p s #.X.~ { E O.|.m +.+.6.m n n N n.J.H.v.J.H.yXE.n.N c.c.m +.m c.b.4.}.v.b.c.M J.yX-X+XOX}.:X-Xn.n. X|.v.}.}.h.k.",
"l.l.j.N ,.M b.G.n.}.>.1.-.E ~ %.M O.-.+.u < 1 E o.o.v.%X&XD.yXu.z M n N M >.>.<.b.1.6. Xb.j.}.|.}.G.|.6.OX2XW.V.}.=Xn.v.v.N v j.",
"N.t.c M >.1.=XF.l.v.v.,.6.N 1.0.f h +.#.m v X.X.o.o.o.E T T E 9 j.v.z h m N >.,.}.b.7.v.M F.;XG.}.}.<.4.7X6X XB.=X.Xl.M M h z.~.",
"w t.c n m 4.1.c.b.J.n. X+X Xv.4.,.N m W *.j.V.}.1.1.<.m O.O.+.M l.c.8 O.f X.+.4.>.}.#Xv.&XgX).E.^.F.b.+X8X4.X.z m X.g c g n -.d ",
"E p v n N 4.5.}.;XH.l. X|.>.N 1.O.X.h >.5.,.G.E.uX;XG.F.n.N >.O.j.c h.b.c.<.6.7.|.2X.X4XaXdXE.T.N.F.^.-X5.+.E d : , H d p >.< # ",
"+.u p m m ,.;.6.1.z M }.N N <.m ; , T W #.=.W X.f E ..}.F.F.b.|. XC.i.b.b.N ,.;.7.6.+X+X6.,.1.}.R.Q.Z.l.@Xd $ $ = $ V A X.d w X.",
"X.g M m N <.7X|.h N n.v.N N m i i }.}.|.1.*.W T E *.*.o.O.c.b.}.>.n y.j.z n >.-.9.7.5.%.*.*.+.+.h x x n.z w n d - . A F Q 5 y X.",
"h f m N m +X#Xh >.<.h u X.X.m l N |. X}.}.|.<.}.1.h W *.+.h g h h f r l M M N ,.9.;.-.-.-.+.o.+.h p n z q j.y - w z M #.L % d ,.",
"g }.1.N N 7.U 2 W f 4 m }.<.,.j.}.@X X.X X-X=Xn.v.B |.4.+.h h h = # > h m M N N 5.&.*.-.o.o.-.4.m M n z c.k.9 j.n.Z.F.H.{.:.1.m ",
"@XG. X}.v.h $ H Q o.<.}.N v.<.N -X-X-X-X*XJ.:XS.c.v.<.>.O.f O.y o >.N f O.m N <.7.+.*.#.o.o.o.I R d h N B c i.C.b.c.b.v.G.b.O.h ",
".X}.v.M n c h.M ~ ^ -.O.>.m h ,.6.1.|.@X@X XXXd.9 m O.O.f g O.M R.;Xx M ..O.m m %.>.4.-.+.f E +.Y 3 X.f ; f i i M M i >.|.b.n.-X",
" XN m M c.j.l.V.b.&.-.>.>.g >.4.4.4.6.6.O.T G * t h h f f f f %.[.g.0 v.b.n X.h o.Q W o., P *.+.< R o.O.n m y z N l M <.4.n |..X",
"1.b.v.c.v.b.b.F.Z. X4.O.f h >.-.5.6.+Xh 2 # J :.h.g g f 5 5 X.-./ < r >.N l.b.N n o.Q P < P L ~ g 4.5.<.c.M l v.c.c =XF.}. X.X1.",
"|.v.M N b.}.G.J.H.J.v.n <.|. X.X7.oX|.l e m <.K < c n g d 5 E R P = h >.,.N j.M z g E P 3 o.e.5.<.>.-.*.m c F.V.z n <.v.=X-X=Xn.",
"}.v.c.v.v.v.|.G.F.F.b.J.>X>X*XyX3X3Xc.l b.n.c.n.|.c.j.z p f X.o.3 ..#XJ.n.}.b.l.V.l.M f +.8.;.&...N ,.-.5 f ,.8 r 1.1.<.1.|.|.v.",
"N <.v.v.b.b.|.1.b.F.^.yXyX4X4XJ.4X.Xv B  Xb.G.:XG.b.k.h.J.~.J.b.N 7.&.X.N v.c.j.N F.Y.N.@X<.*.$.Q W ..+.g |.m 6  X X X X|.|.<.m ",
" X}.v.}.v.v.}.|.=XJ.J.;X;XdX=Xn.}.<.j.b.v.G.G.N v.b.k.V.:XH.H.k.n..X1.2.:.1.b.V.c.O.}.M.:XH.v.O.P } o.o.>.,.m V.v.|. X X}.N N }.",
"n.v. XG.G.G.=X-X-X:XJ.;XuX:XG.b.}.<.M G.:X=Xx m ..|.l.l.=XJ.F.m.rXrXwXeXiX>X;XQ.Y.E.|.V.:XF.l.N B &.*.+.1  .-.u n.|.<.v.<.}. X X"
};
